<svg width="446" height="883" viewBox="0 0 446 883" fill="none" xmlns="http://www.w3.org/2000/svg">
<g filter="url(#filter0_d_3826_2192)">
<path d="M369.053 0H58.0977C26.0254 0 0 26.0254 0 58.0977V803.879C0 835.975 26.0254 861.977 58.0977 861.977H369.03C401.125 861.977 427.128 835.951 427.128 803.879V58.0977C427.128 26.0021 401.102 0 369.03 0H369.053ZM425.546 798.506C425.546 804.553 424.593 810.391 422.825 815.857C422.685 816.275 422.546 816.694 422.406 817.113C422.267 817.531 422.104 817.95 421.964 818.345C421.848 818.648 421.732 818.973 421.616 819.276C421.243 820.183 420.871 821.09 420.453 821.997C420.267 822.392 420.081 822.787 419.894 823.183C419.615 823.741 419.359 824.276 419.057 824.811C418.871 825.183 418.685 825.532 418.476 825.881C418.266 826.253 418.057 826.625 417.824 827.02C417.22 828.067 416.569 829.09 415.894 830.09C415.685 830.393 415.452 830.718 415.243 831.044C414.987 831.393 414.755 831.742 414.475 832.091C414.22 832.439 413.964 832.788 413.708 833.137C413.452 833.486 413.173 833.812 412.894 834.16C412.615 834.486 412.336 834.835 412.057 835.161C411.498 835.812 410.917 836.463 410.336 837.091C409.428 838.068 408.498 838.998 407.498 839.928C407.196 840.208 406.917 840.463 406.614 840.719C405.94 841.324 405.242 841.905 404.544 842.487C404.242 842.719 403.94 842.975 403.614 843.208C402.591 843.998 401.521 844.766 400.451 845.487C400.102 845.743 399.73 845.975 399.358 846.208C398.614 846.673 397.869 847.115 397.125 847.557C396.753 847.789 396.381 847.999 396.009 848.185C394.799 848.859 393.543 849.487 392.288 850.045C391.962 850.208 391.613 850.348 391.288 850.487C390.892 850.673 390.497 850.836 390.078 850.999C389.659 851.162 389.264 851.325 388.845 851.464C387.938 851.813 387.008 852.139 386.055 852.418C385.729 852.534 385.403 852.627 385.054 852.72C383.822 853.092 382.566 853.418 381.287 853.697C380.845 853.79 380.403 853.883 379.938 853.976C379.473 854.069 379.007 854.162 378.519 854.232C377.635 854.371 376.751 854.511 375.868 854.627H375.844C375.682 854.627 375.496 854.674 375.333 854.674C375.216 854.674 375.077 854.697 374.961 854.697C374.914 854.697 374.868 854.697 374.821 854.697C375.612 854.604 376.403 854.511 377.193 854.371C377.589 854.302 377.961 854.232 378.379 854.162C378.775 854.092 379.147 854.023 379.542 853.93C380.705 853.697 381.845 853.395 382.984 853.092C383.357 852.999 383.729 852.883 384.101 852.767C384.845 852.534 385.589 852.301 386.31 852.022C387.403 851.627 388.497 851.185 389.543 850.72C389.892 850.58 390.264 850.418 390.59 850.255C390.939 850.092 391.287 849.929 391.636 849.766C392.334 849.417 393.009 849.069 393.683 848.697C394.358 848.324 395.009 847.952 395.66 847.534C396.265 847.161 396.846 846.789 397.428 846.417C397.497 846.394 397.544 846.348 397.59 846.301C398.544 845.65 399.474 844.975 400.381 844.278C400.684 844.045 400.986 843.812 401.265 843.557C402.102 842.882 402.916 842.161 403.73 841.44C405.684 839.626 407.521 837.649 409.173 835.556C409.405 835.254 409.638 834.951 409.87 834.649C412.266 831.486 414.313 828.02 415.917 824.369C416.173 823.788 416.429 823.183 416.662 822.578C417.801 819.671 418.708 816.647 419.29 813.508C419.406 812.903 419.522 812.275 419.615 811.647C419.987 809.112 420.197 806.554 420.197 803.902V58.0977C420.197 31.7468 400.149 9.97755 374.495 7.27966C374.054 7.23314 373.588 7.18663 373.123 7.16337C372.658 7.14011 372.193 7.0936 371.728 7.07034C370.844 7.02382 369.983 7.00057 369.1 7.00057H58.121C57.2372 7.00057 56.3534 7.00057 55.4929 7.07034H55.4696C28.5139 8.4658 7.00057 30.8397 7.00057 58.0977V803.879C7.00057 830.114 26.8859 851.79 52.3531 854.674C52.0042 854.651 51.6553 854.627 51.3065 854.581H51.2832C50.3994 854.464 49.4924 854.348 48.6318 854.185C43.3058 853.278 38.2124 851.627 33.5143 849.348C33.1887 849.185 32.8631 849.022 32.5143 848.859C31.677 848.417 30.8397 847.976 30.0257 847.51C29.6536 847.301 29.2814 847.068 28.9093 846.859C27.0487 845.743 25.2579 844.51 23.56 843.184C23.2577 842.952 22.9553 842.719 22.653 842.464C21.7459 841.719 20.8622 840.975 20.0016 840.207C19.7225 839.952 19.4434 839.696 19.1643 839.417C18.8387 839.114 18.5364 838.812 18.2108 838.51C17.9084 838.207 17.6061 837.882 17.3037 837.579C17.0944 837.37 16.9083 837.161 16.699 836.951C16.4432 836.672 16.2106 836.417 15.9548 836.137C14.5128 834.509 13.1639 832.835 11.9079 831.067C11.6754 830.765 11.466 830.439 11.2567 830.114C10.5823 829.114 9.93104 828.113 9.32634 827.067C9.09376 826.695 8.88444 826.323 8.67512 825.951C7.11686 823.136 5.79117 820.206 4.72131 817.159C4.55851 816.74 4.41896 816.322 4.30267 815.903C3.6282 813.787 3.07002 811.624 2.62812 809.438C2.53509 808.996 2.46532 808.554 2.37229 808.112C1.83736 804.995 1.55827 801.809 1.55827 798.553V58.0977C1.55827 57.5395 1.55827 56.9814 1.58152 56.4464C1.58152 56.0278 1.58152 55.6091 1.62804 55.2138C1.67455 54.3067 1.74433 53.4229 1.83736 52.5159C1.88387 52.0507 1.93039 51.5856 2.00016 51.1437C2.02342 50.8878 2.06993 50.6553 2.09319 50.3994C2.11645 50.0971 2.16297 49.818 2.23274 49.5156C2.30251 49.0505 2.37228 48.5853 2.46532 48.1202C2.60486 47.3062 2.76767 46.5154 2.95373 45.7246C3.04676 45.3292 3.13979 44.9339 3.23282 44.5385C3.51191 43.3523 3.83752 42.2127 4.20964 41.0731C4.32593 40.7242 4.44222 40.3521 4.55851 40.0032C4.69805 39.5613 4.86086 39.1194 5.02366 38.6775C5.16321 38.3054 5.30275 37.9566 5.4423 37.6077C5.55859 37.3053 5.67488 37.003 5.79117 36.7239C5.93071 36.375 6.09352 36.0029 6.23306 35.6773C6.34935 35.3982 6.46564 35.1424 6.58193 34.8865C6.74473 34.4912 6.93079 34.119 7.11686 33.7237C7.41921 33.0492 7.76807 32.3747 8.11694 31.7235C8.27974 31.3979 8.4658 31.049 8.67512 30.7234C8.88444 30.328 9.11702 29.9559 9.32634 29.5605C10.8846 26.8859 12.6754 24.3741 14.6523 22.0018C14.9314 21.6762 15.2105 21.3273 15.5129 21.0017C15.8385 20.6296 16.1641 20.2575 16.513 19.8853C17.0711 19.2806 17.6293 18.6992 18.2108 18.1177C18.8387 17.4898 19.4667 16.8851 20.1179 16.3036C20.7691 15.7222 21.4436 15.1408 22.1181 14.5826C22.4437 14.3035 22.7925 14.0244 23.1414 13.7453C23.8391 13.2104 24.5369 12.6754 25.2579 12.1638C25.9788 11.6521 26.6998 11.1637 27.4441 10.6753C28.1883 10.2101 28.9326 9.74497 29.7001 9.30308C30.0722 9.0705 30.4676 8.86118 30.863 8.65186C31.2583 8.44254 31.6305 8.23322 32.0258 8.0239C32.4212 7.81459 32.8166 7.60527 33.212 7.4192C33.6074 7.23314 34.0028 7.02382 34.4214 6.83776C35.2122 6.46564 36.0494 6.11677 36.8634 5.79117C37.2588 5.62836 37.6542 5.46556 38.0496 5.32601C38.0728 5.32601 38.1194 5.30275 38.1659 5.2795C38.5613 5.13995 38.9799 4.97715 39.3753 4.8376C39.7707 4.69805 40.166 4.55851 40.5614 4.41896C41.0033 4.27942 41.4685 4.11661 41.9336 4.00032C42.3755 3.86078 42.7942 3.74449 43.2361 3.6282C43.678 3.51191 44.1199 3.39562 44.5617 3.27933C45.0036 3.16305 45.4455 3.07002 45.8874 2.97698C46.7712 2.76767 47.6783 2.60486 48.5853 2.44206C49.0272 2.37228 49.4924 2.27925 49.9343 2.23274C50.9111 2.09319 51.8879 1.9769 52.8647 1.88387C53.6322 1.8141 54.423 1.74433 55.2138 1.72107C55.6789 1.72107 56.1673 1.67455 56.6558 1.67455C57.1442 1.67455 57.6326 1.67455 58.121 1.67455H369.053C369.542 1.67455 370.03 1.67455 370.518 1.67455C370.914 1.67455 371.332 1.67455 371.728 1.72107C372.635 1.76758 373.542 1.83736 374.449 1.90713H374.472C374.937 1.95365 375.379 2.00016 375.844 2.06993C376.31 2.11645 376.751 2.18622 377.217 2.256C377.682 2.32577 378.124 2.39554 378.566 2.46532C379.007 2.53509 379.449 2.62812 379.914 2.72115C380.356 2.81418 380.798 2.90721 381.24 3.00024C381.659 3.09327 382.054 3.1863 382.45 3.27933C382.543 3.27933 382.636 3.32585 382.705 3.34911C383.078 3.44214 383.45 3.53517 383.845 3.65146C384.38 3.791 384.892 3.95381 385.427 4.09335C385.775 4.20964 386.148 4.30267 386.473 4.41896C387.264 4.6748 388.031 4.95389 388.822 5.23298C389.357 5.41904 389.869 5.62836 390.38 5.83768C390.753 5.97723 391.125 6.14003 391.497 6.30284C391.915 6.46564 392.311 6.6517 392.706 6.86102C393.102 7.04708 393.497 7.23314 393.892 7.44246C396.73 8.83792 399.428 10.466 401.986 12.3033C402.288 12.5126 402.614 12.7452 402.916 12.9778C404.033 13.8151 405.126 14.6989 406.172 15.6059C406.638 16.0013 407.079 16.4199 407.521 16.8386C409.335 18.5364 411.057 20.3505 412.615 22.2576C412.917 22.6065 413.173 22.9321 413.452 23.281C414.034 24.0019 414.568 24.7229 415.08 25.4672C415.359 25.8393 415.615 26.2114 415.848 26.5835C416.29 27.2115 416.708 27.886 417.127 28.5372C417.336 28.8628 417.522 29.2117 417.731 29.5373C418.104 30.1652 418.476 30.8164 418.801 31.4677C418.964 31.77 419.15 32.0956 419.29 32.4212C419.871 33.5143 420.383 34.6074 420.871 35.7471C420.988 36.0494 421.127 36.3285 421.243 36.6309C421.709 37.7472 422.127 38.8869 422.523 40.0497C422.662 40.4916 422.825 40.9103 422.941 41.3289C423.709 43.8175 424.313 46.3526 424.755 48.9574C424.802 49.2365 424.848 49.5156 424.895 49.7947C424.965 50.2366 425.034 50.7018 425.081 51.1437C425.127 51.6088 425.197 52.0507 425.22 52.5159C425.267 52.981 425.314 53.4462 425.36 53.9113C425.407 54.7719 425.453 55.6091 425.476 56.4697C425.476 57.0279 425.5 57.5628 425.5 58.121V798.506H425.546Z" fill="#C7C7C7"/>
<path d="M52.7026 854.72C52.2607 854.674 51.7956 854.627 51.3537 854.581H51.3304C50.4466 854.464 49.5396 854.348 48.679 854.185C43.353 853.278 38.2596 851.627 33.5615 849.348C33.2359 849.185 32.9103 849.022 32.5615 848.859C31.7242 848.417 30.8869 847.976 30.0729 847.51C29.7008 847.301 29.3286 847.068 28.9565 846.859C27.0959 845.743 25.3051 844.51 23.6073 843.185C23.3049 842.952 23.0026 842.719 22.7002 842.464C21.7932 841.719 20.9094 840.975 20.0488 840.208C19.7697 839.952 19.4906 839.696 19.2115 839.417C18.8859 839.114 18.5836 838.812 18.258 838.51C17.9556 838.207 17.6533 837.882 17.3509 837.579C17.1416 837.37 16.9555 837.161 16.7462 836.951C16.4904 836.672 16.2578 836.417 16.002 836.137C14.56 834.509 13.2111 832.835 11.9551 831.067C11.7226 830.765 11.5132 830.439 11.3039 830.114C10.6295 829.114 9.97824 828.113 9.37354 827.067C9.14096 826.695 8.93164 826.323 8.72232 825.951C7.16406 823.136 5.83837 820.206 4.76852 817.159C4.60571 816.74 4.46617 816.322 4.34988 815.903C3.6754 813.787 3.11722 811.624 2.67532 809.438C2.58229 808.996 2.51252 808.554 2.41949 808.112C1.88456 804.995 1.60547 801.809 1.60547 798.553V63.4935C1.62873 33.2352 25.5376 8.46577 55.4703 7.07031C28.5146 8.46577 7.00125 30.8397 7.00125 58.0977V803.879C7.00125 830.23 27.0494 851.999 52.6794 854.697L52.7026 854.72Z" fill="url(#paint0_linear_3826_2192)"/>
<path d="M425.548 63.494V798.484C425.548 804.531 424.594 810.368 422.827 815.834C422.687 816.253 422.548 816.671 422.408 817.09C422.269 817.508 422.106 817.927 421.966 818.323C421.85 818.625 421.734 818.95 421.617 819.253C421.245 820.16 420.873 821.067 420.454 821.974C420.268 822.369 420.082 822.765 419.896 823.16C419.617 823.718 419.361 824.253 419.059 824.788C418.873 825.16 418.687 825.509 418.478 825.858C418.268 826.23 418.059 826.602 417.826 826.998C417.222 828.044 416.57 829.068 415.896 830.068C415.687 830.37 415.454 830.696 415.245 831.021C414.989 831.37 414.733 831.719 414.477 832.068C414.221 832.417 413.966 832.766 413.71 833.114C413.431 833.463 413.175 833.789 412.896 834.138C412.617 834.463 412.337 834.812 412.058 835.138C411.5 835.789 410.919 836.44 410.337 837.068C409.43 838.045 408.5 838.975 407.5 839.906C407.198 840.161 406.918 840.441 406.616 840.696C405.942 841.301 405.244 841.883 404.546 842.464C404.244 842.697 403.941 842.929 403.616 843.185C402.593 843.976 401.523 844.743 400.453 845.464C400.104 845.697 399.732 845.929 399.36 846.185C398.615 846.65 397.871 847.092 397.127 847.534C396.755 847.743 396.383 847.976 396.011 848.162C394.801 848.837 393.545 849.465 392.289 850.023C391.964 850.186 391.615 850.325 391.289 850.465C390.894 850.651 390.499 850.813 390.08 850.976C389.661 851.139 389.266 851.302 388.847 851.441C387.94 851.79 387.01 852.116 386.056 852.395C385.731 852.511 385.405 852.604 385.056 852.697C383.824 853.069 382.568 853.395 381.288 853.674C380.847 853.767 380.405 853.86 379.94 853.953C379.474 854.046 379.009 854.139 378.521 854.209C377.637 854.349 376.753 854.488 375.869 854.604H375.846C375.404 854.651 374.939 854.698 374.497 854.744C400.127 852.023 420.199 830.277 420.199 803.926V58.0982C420.199 31.2821 399.429 9.23382 373.125 7.14062C402.406 9.21056 425.571 33.6777 425.571 63.4708L425.548 63.494Z" fill="url(#paint1_linear_3826_2192)"/>
<path d="M425.546 798.506V803.902C425.546 835.044 400.218 860.395 369.053 860.395H58.1209C26.9788 860.395 1.62793 835.067 1.62793 803.902V798.506C1.62793 801.762 1.90702 804.948 2.44195 808.065C2.51172 808.507 2.60475 808.949 2.69778 809.391C3.13968 811.6 3.69786 813.74 4.37234 815.856C4.51188 816.275 4.65143 816.694 4.79098 817.112C5.86083 820.159 7.18652 823.113 8.74478 825.904C8.9541 826.276 9.16342 826.648 9.396 827.02C10.0007 828.067 10.6287 829.067 11.3264 830.067C11.5357 830.369 11.7683 830.695 11.9776 831.02C13.2335 832.788 14.5825 834.486 16.0244 836.091C16.257 836.37 16.5129 836.625 16.7687 836.905C16.9548 837.114 17.1641 837.323 17.3734 837.532C17.6757 837.835 17.9781 838.16 18.2804 838.463C18.5828 838.765 18.9084 839.068 19.234 839.37C19.5131 839.649 19.7922 839.905 20.0713 840.161C20.9318 840.928 21.8156 841.696 22.7227 842.417C23.025 842.672 23.3274 842.905 23.6297 843.138C25.3275 844.463 27.1184 845.696 28.979 846.812C29.3511 847.045 29.7232 847.254 30.0954 847.464C30.9094 847.929 31.7466 848.371 32.5839 848.812C32.9095 848.975 33.2351 849.138 33.584 849.301C38.3053 851.58 43.3755 853.231 48.7015 854.139C49.5853 854.278 50.4691 854.418 51.3529 854.534H51.3761C52.2832 854.65 53.1902 854.72 54.0973 854.79C54.5624 854.813 55.0276 854.86 55.4928 854.883C56.3765 854.929 57.2603 854.953 58.1441 854.953H369.076C369.96 854.953 370.844 854.953 371.704 854.883C372.17 854.883 372.635 854.836 373.1 854.79C373.844 854.743 374.588 854.673 375.309 854.58C375.472 854.58 375.658 854.557 375.821 854.534H375.844C376.728 854.418 377.635 854.301 378.496 854.139C378.984 854.069 379.449 853.976 379.914 853.883C380.356 853.79 380.821 853.697 381.263 853.604C382.542 853.324 383.798 852.999 385.031 852.627C385.357 852.534 385.706 852.441 386.031 852.324C386.961 852.022 387.892 851.72 388.822 851.371C389.241 851.208 389.636 851.068 390.055 850.906C390.473 850.743 390.869 850.58 391.264 850.394C391.59 850.255 391.939 850.115 392.264 849.952C393.543 849.394 394.776 848.766 395.985 848.091C396.358 847.905 396.73 847.696 397.102 847.464C397.846 847.022 398.59 846.58 399.335 846.115C399.707 845.882 400.079 845.649 400.428 845.394C401.497 844.673 402.567 843.905 403.591 843.114C403.893 842.882 404.219 842.626 404.521 842.393C405.219 841.812 405.917 841.23 406.591 840.626C406.893 840.37 407.196 840.091 407.475 839.835C408.452 838.928 409.405 837.974 410.312 836.998C410.917 836.37 411.498 835.718 412.033 835.067C412.336 834.742 412.615 834.393 412.871 834.067C413.15 833.741 413.429 833.393 413.685 833.044C413.964 832.695 414.219 832.346 414.452 831.997C414.731 831.648 414.964 831.299 415.22 830.951C415.452 830.648 415.661 830.323 415.871 829.997C416.545 828.997 417.196 827.974 417.801 826.927C418.034 826.555 418.243 826.183 418.452 825.787C418.662 825.439 418.848 825.066 419.034 824.718C419.336 824.183 419.592 823.648 419.871 823.089C420.057 822.694 420.266 822.299 420.429 821.903C420.848 820.996 421.22 820.112 421.592 819.182C421.732 818.88 421.848 818.578 421.941 818.252C422.104 817.833 422.243 817.438 422.383 817.019C422.522 816.601 422.685 816.182 422.802 815.763C424.569 810.298 425.523 804.46 425.523 798.413L425.546 798.506Z" fill="url(#paint2_linear_3826_2192)"/>
<path d="M425.546 58.097V63.4928C425.546 34.1648 403.079 10.0001 374.449 7.27893C374.007 7.23242 373.542 7.1859 373.077 7.16264C372.611 7.13939 372.146 7.09287 371.681 7.06961C370.797 7.0231 369.937 6.99984 369.053 6.99984H58.1209C57.2371 6.99984 56.3533 6.99984 55.4928 7.06961H55.4695C25.5368 8.46508 1.62793 33.2345 1.62793 63.4928V58.097C1.62793 57.5388 1.62793 56.9806 1.65119 56.4457C1.65119 56.0271 1.65119 55.6084 1.6977 55.213C1.74422 54.306 1.81399 53.4222 1.90702 52.5152C1.95354 52.05 2.00005 51.5848 2.06983 51.1429C2.09308 50.8871 2.1396 50.6545 2.16286 50.3987C2.18611 50.0964 2.23263 49.8173 2.3024 49.5149C2.37218 49.0498 2.44195 48.5846 2.53498 48.1194C2.67453 47.3054 2.83733 46.5147 3.02339 45.7239C3.11642 45.3285 3.20945 44.9331 3.30248 44.5378C3.58158 43.3516 3.90718 42.212 4.27931 41.0724C4.3956 40.7235 4.51188 40.3514 4.62817 40.0025C4.76772 39.5606 4.93052 39.1187 5.09333 38.6768C5.23287 38.3047 5.37242 37.9558 5.51196 37.607C5.62825 37.3046 5.74454 37.0023 5.86083 36.7232C6.00038 36.3743 6.16318 36.0022 6.30273 35.6766C6.41902 35.3975 6.5353 35.1417 6.65159 34.8858C6.8144 34.4904 7.00046 34.1183 7.18652 33.7229C7.48887 33.0485 7.83773 32.374 8.1866 31.7228C8.3494 31.3972 8.53547 31.0483 8.74478 30.7227C8.9541 30.3273 9.18668 29.9552 9.396 29.5598C10.9543 26.8852 12.7451 24.3733 14.722 22.0011C15.0011 21.6754 15.2802 21.3266 15.5825 21.001C15.9082 20.6288 16.2338 20.2567 16.5826 19.8846C17.1408 19.2799 17.699 18.6985 18.2804 18.117C18.9084 17.4891 19.5364 16.8844 20.1876 16.3029C20.8388 15.7215 21.5133 15.14 22.1877 14.5819C22.5133 14.3028 22.8622 14.0237 23.2111 13.7446C23.9088 13.2096 24.6065 12.6747 25.3275 12.163C26.0485 11.6514 26.7695 11.163 27.5137 10.6746C28.258 10.2094 29.0022 9.74425 29.7697 9.30235C30.1419 9.06978 30.5372 8.86046 30.9326 8.65114C31.328 8.44182 31.7001 8.2325 32.0955 8.02318C32.4909 7.81386 32.8863 7.60454 33.2817 7.41848C33.677 7.23242 34.0724 7.0231 34.4911 6.83704C35.2818 6.46491 36.1191 6.11605 36.9331 5.79044C37.3285 5.62764 37.7239 5.46483 38.1193 5.32529C38.1425 5.32529 38.189 5.30203 38.2355 5.27877C38.6309 5.13922 39.0496 4.97642 39.4449 4.83687C39.8403 4.69733 40.2357 4.55778 40.6311 4.41824C41.073 4.27869 41.5381 4.11589 42.0033 3.9996C42.4452 3.86005 42.8638 3.74376 43.3057 3.62747C43.7476 3.51119 44.1895 3.3949 44.6314 3.27861C45.0733 3.16232 45.5152 3.06929 45.9571 2.97626C46.8409 2.76694 47.7479 2.60414 48.655 2.44133C49.0969 2.37156 49.562 2.27853 50.0039 2.23201C50.9808 2.09247 51.9576 1.97618 52.9344 1.88315C53.7019 1.81337 54.4927 1.7436 55.2834 1.72034C55.7486 1.72034 56.237 1.67383 56.7254 1.67383C57.2138 1.67383 57.7022 1.67383 58.1906 1.67383H369.123C369.611 1.67383 370.1 1.67383 370.588 1.67383C370.983 1.67383 371.402 1.67383 371.797 1.72034C372.704 1.76686 373.612 1.83663 374.519 1.90641H374.542C375.007 1.95292 375.449 1.99944 375.914 2.06921C376.379 2.11572 376.821 2.1855 377.286 2.25527C377.751 2.32504 378.193 2.39482 378.635 2.46459C379.077 2.53436 379.519 2.62739 379.984 2.72042C380.426 2.81346 380.868 2.90649 381.31 2.99952C381.728 3.09255 382.124 3.18558 382.519 3.27861C382.612 3.27861 382.705 3.32512 382.775 3.34838C383.147 3.44141 383.519 3.53444 383.915 3.65073C384.45 3.79028 384.961 3.95308 385.496 4.09263C385.845 4.20892 386.217 4.30195 386.543 4.41824C387.334 4.67407 388.101 4.95316 388.892 5.23226C389.427 5.41832 389.938 5.62764 390.45 5.83696C390.822 5.9765 391.194 6.13931 391.566 6.30211C391.985 6.46491 392.381 6.65098 392.776 6.86029C393.171 7.04636 393.567 7.23242 393.962 7.44174C396.799 8.8372 399.497 10.4652 402.056 12.3026C402.358 12.5119 402.684 12.7445 402.986 12.9771C404.102 13.8143 405.195 14.6981 406.242 15.6052C406.707 16.0006 407.149 16.4192 407.591 16.8378C409.405 18.5357 411.126 20.3498 412.684 22.2569C412.987 22.6058 413.243 22.9314 413.522 23.2802C414.103 24.0012 414.638 24.7222 415.15 25.4665C415.429 25.8386 415.685 26.2107 415.917 26.5828C416.359 27.2108 416.778 27.8853 417.196 28.5365C417.406 28.8621 417.592 29.2109 417.801 29.5365C418.173 30.1645 418.545 30.8157 418.871 31.4669C419.034 31.7693 419.22 32.0949 419.359 32.4205C419.941 33.5136 420.453 34.6067 420.941 35.7464C421.057 36.0487 421.197 36.3278 421.313 36.6301C421.778 37.7465 422.197 38.8861 422.592 40.049C422.732 40.4909 422.895 40.9096 423.011 41.3282C423.778 43.8168 424.383 46.3519 424.825 48.9567C424.872 49.2358 424.918 49.5149 424.965 49.794C425.034 50.2359 425.104 50.7011 425.151 51.1429C425.197 51.6081 425.267 52.05 425.29 52.5152C425.337 52.9803 425.383 53.4455 425.43 53.9106C425.476 54.7712 425.523 55.6084 425.546 56.469C425.546 57.0271 425.569 57.5621 425.569 58.1203L425.546 58.097Z" fill="url(#paint3_linear_3826_2192)"/>
<path d="M371.681 7.06977C370.82 7.02326 369.936 7 369.053 7H58.1204C57.2366 7 56.3528 7 55.4923 7.06977H55.469C28.5134 8.46523 7 30.8391 7 58.0972V803.878C7 830.695 27.7459 852.743 54.0503 854.813C54.5155 854.836 54.9806 854.883 55.4458 854.906C56.3296 854.952 57.2134 854.976 58.0972 854.976H369.029C369.913 854.976 370.797 854.976 371.657 854.906C372.123 854.906 372.588 854.859 373.053 854.813C399.357 852.743 420.126 830.671 420.126 803.878V58.0972C420.126 30.8159 398.613 8.44198 371.657 7.06977H371.681ZM415.824 803.902C415.824 828.159 396.892 848.65 372.774 850.533C372.332 850.557 371.89 850.603 371.448 850.603C370.657 850.65 369.843 850.673 369.029 850.673H58.1204C57.3064 850.673 56.4924 850.673 55.6784 850.603C55.2365 850.603 54.7946 850.557 54.3992 850.533C30.2577 848.626 11.3259 828.136 11.3259 803.902V58.0972C11.3259 33.2347 30.7461 12.7214 55.5853 11.3957H55.7249C56.5156 11.3492 57.3297 11.3259 58.1204 11.3259H369.053C369.867 11.3259 370.681 11.3259 371.448 11.3724H371.518C396.38 12.6981 415.824 33.2114 415.824 58.0972V803.878V803.902Z" fill="#404040"/>
<path d="M415.824 58.3999V804.181C415.824 808.786 415.126 813.275 413.87 817.531C412.847 820.927 411.451 824.16 409.707 827.183C409.358 827.811 408.963 828.416 408.591 829.02C408.009 829.927 407.404 830.811 406.776 831.672C404.986 834.114 402.962 836.37 400.753 838.417C404.846 831.276 407.172 822.997 407.172 814.229V805.623C407.172 805.112 407.195 804.6 407.195 804.088V58.3301C407.195 57.7952 407.195 57.2835 407.172 56.7486V48.3293C407.172 39.4681 404.823 31.1419 400.729 23.9785C410.009 32.5373 415.8 44.8174 415.8 58.3999H415.824Z" fill="url(#paint4_linear_3826_2192)"/>
<path d="M371.309 15.7008H371.1C370.425 15.6543 369.728 15.6543 369.053 15.6543H58.1209C57.4232 15.6543 56.7022 15.6543 56.0277 15.7008H55.8184L55.7254 15.7241C33.2352 16.98 15.6523 35.5861 15.6523 58.1229V803.904C15.6523 825.929 32.8165 844.535 54.7718 846.256C55.0974 846.28 55.4463 846.303 55.7951 846.326H55.9114C56.6324 846.373 57.3767 846.396 58.1209 846.396H369.053C369.774 846.396 370.518 846.373 371.239 846.326H371.379C371.728 846.326 372.1 846.28 372.449 846.256C394.357 844.535 411.522 825.929 411.522 803.927V58.1229C411.522 35.5164 393.869 16.887 371.309 15.7008ZM400.195 803.904C400.195 810.974 397.776 817.533 393.729 822.836C393.497 823.115 393.288 823.394 393.055 823.673C392.381 824.51 391.636 825.301 390.892 826.045C390.218 826.697 389.52 827.348 388.799 827.953C387.892 828.697 386.915 829.418 385.915 830.069C384.915 830.72 383.891 831.325 382.798 831.86C382.263 832.139 381.728 832.372 381.17 832.604C380.635 832.837 380.054 833.069 379.496 833.255C378.356 833.674 377.17 834 375.984 834.279C374.542 834.604 373.077 834.814 371.565 834.953C371.425 834.953 371.286 834.976 371.146 835H370.821H370.681C370.542 835 370.425 835 370.309 835.023C370.169 835.023 370.053 835.023 369.914 835.023C369.634 835.023 369.379 835.023 369.1 835.023H58.1209C57.8651 835.023 57.586 835.023 57.3069 835.023C57.0278 835.023 56.772 835 56.4929 834.976H56.2603H56.051C55.9114 834.976 55.7719 834.953 55.6323 834.93C39.5613 833.674 26.9556 820.022 26.9556 803.881V58.1229C26.9556 41.7029 39.7008 28.1204 56.051 27.0506H56.3301L56.7487 27.0041C57.2604 26.9808 57.7023 26.9808 58.1209 26.9808H369.053C369.472 26.9808 369.937 26.9808 370.425 27.0041H370.565H370.704C370.797 27.0041 370.914 27.0041 371.007 27.0273C371.309 27.0273 371.611 27.0738 371.914 27.0971C372.053 27.0971 372.193 27.0971 372.332 27.1436C372.611 27.1669 372.867 27.1901 373.146 27.2366C373.472 27.2599 373.798 27.3064 374.123 27.3762H374.17C374.635 27.446 375.1 27.5157 375.565 27.632C375.658 27.6553 375.728 27.6785 375.821 27.7018C376.193 27.7716 376.565 27.8646 376.937 27.9809C377.472 28.1204 378.031 28.2832 378.565 28.4693C379.007 28.5856 379.426 28.7484 379.845 28.9112C380.31 29.074 380.752 29.26 381.217 29.4461C382.124 29.8182 382.984 30.2369 383.845 30.702C384.636 31.1207 385.38 31.5626 386.101 32.051C386.264 32.1673 386.427 32.2836 386.589 32.3766C386.892 32.5859 387.194 32.7952 387.473 33.0045C387.869 33.2836 388.241 33.5627 388.613 33.8883C389.357 34.493 390.078 35.121 390.752 35.7955C391.101 36.1211 391.45 36.4699 391.753 36.8188C392.078 37.1677 392.404 37.5165 392.706 37.8887C393.962 39.3539 395.078 40.9122 396.032 42.5867C396.52 43.424 396.939 44.2845 397.358 45.1683C397.753 46.0521 398.125 46.9359 398.451 47.8662C398.614 48.3314 398.753 48.7733 398.893 49.2617C399.195 50.285 399.451 51.3083 399.637 52.3549C399.73 52.7736 399.8 53.1922 399.846 53.6109C400.079 55.0761 400.172 56.6111 400.172 58.1461V803.927L400.195 803.904Z" fill="black"/>
<path d="M110.104 41.3303C109.988 41.1209 109.895 40.9116 109.802 40.7023C109.779 40.6093 109.732 40.5395 109.709 40.4697C109.825 40.7721 109.965 41.0512 110.081 41.3303H110.104Z" fill="black"/>
<path d="M317.422 40.4697C317.422 40.4697 317.352 40.6093 317.329 40.7023C317.236 40.9116 317.143 41.1209 317.026 41.3303C317.166 41.0512 317.282 40.7721 317.398 40.4697H317.422Z" fill="black"/>
<path d="M324.165 26.9775C321.607 27.1171 319.513 29.094 319.257 31.6291C319.257 31.8617 319.257 32.0942 319.234 32.3036C319.188 33.2339 319.095 34.1642 318.932 35.0945C318.885 35.4201 318.839 35.7224 318.769 36.0248C318.699 36.4202 318.606 36.7923 318.513 37.1644C318.443 37.49 318.35 37.8389 318.234 38.1645C318.211 38.2343 318.188 38.304 318.164 38.3971C318.141 38.4668 318.118 38.5599 318.071 38.6529C318.071 38.7227 318.025 38.7924 318.002 38.8622C317.955 38.9785 317.932 39.0948 317.885 39.1878C317.839 39.3041 317.792 39.4437 317.746 39.56C317.653 39.8623 317.513 40.1647 317.397 40.467C317.281 40.7694 317.141 41.0484 317.025 41.3275C317.025 41.3741 317.001 41.4206 316.978 41.4438C316.978 41.4671 316.978 41.4903 316.955 41.5136C316.839 41.7694 316.722 42.002 316.606 42.2346C316.513 42.4439 316.397 42.6532 316.281 42.8625C316.257 42.9323 316.211 42.9788 316.164 43.0486C316.118 43.1649 316.048 43.2579 316.001 43.351C315.932 43.4905 315.839 43.63 315.746 43.7696C315.722 43.8161 315.699 43.8394 315.676 43.8859C315.653 43.9324 315.606 43.9789 315.583 44.0487C315.513 44.1417 315.466 44.2347 315.42 44.3278C315.35 44.4441 315.304 44.5371 315.211 44.6301C315.164 44.7232 315.094 44.7929 315.048 44.886C315.025 44.9325 314.978 44.979 314.955 45.0255C314.885 45.1418 314.815 45.2348 314.745 45.3279C314.699 45.3976 314.652 45.4674 314.583 45.5372C314.513 45.6535 314.443 45.7465 314.35 45.8395C314.35 45.8628 314.304 45.886 314.304 45.9093C314.304 45.9326 314.257 45.9558 314.234 45.9791C314.164 46.0954 314.071 46.2117 313.978 46.3047C313.955 46.3512 313.908 46.3977 313.885 46.421C313.792 46.5373 313.699 46.6768 313.606 46.7698C313.49 46.9094 313.35 47.0722 313.234 47.2117C313.117 47.3745 312.978 47.5141 312.862 47.6536V47.6769C312.862 47.6769 312.699 47.863 312.606 47.956C312.513 48.049 312.42 48.1653 312.327 48.2583C312.234 48.3514 312.164 48.4444 312.048 48.5374C311.885 48.7002 311.722 48.863 311.536 49.0258C311.42 49.1654 311.28 49.2817 311.141 49.398C311.048 49.4677 310.978 49.5375 310.885 49.6305C310.675 49.7933 310.466 49.9794 310.28 50.1422C310.094 50.305 309.908 50.4446 309.699 50.6074C309.582 50.7004 309.466 50.7934 309.35 50.8864C309.21 51.0027 309.071 51.0958 308.931 51.1888C308.792 51.2818 308.652 51.3981 308.512 51.4679C308.443 51.5377 308.396 51.5609 308.326 51.6074C308.094 51.747 307.861 51.9098 307.629 52.0493C307.443 52.1889 307.257 52.3052 307.07 52.3982C306.838 52.5377 306.605 52.6773 306.349 52.7936C306.256 52.8634 306.163 52.9099 306.07 52.9564C306.047 52.9564 306.024 52.9796 306.001 52.9796C305.838 53.0727 305.652 53.1657 305.466 53.2587C305.326 53.3518 305.163 53.4215 304.977 53.4913C304.838 53.5611 304.698 53.6309 304.535 53.7006C304.466 53.7471 304.396 53.7704 304.303 53.7937C304.233 53.8402 304.186 53.8634 304.093 53.8867C303.698 54.0495 303.349 54.189 302.954 54.3286C302.605 54.4449 302.256 54.5844 301.884 54.6775C301.489 54.7937 301.093 54.91 300.698 55.0031C299.907 55.2124 299.093 55.3752 298.279 55.4915C297.953 55.538 297.605 55.5845 297.256 55.631C297.186 55.631 297.116 55.631 297.046 55.6543C296.744 55.6775 296.442 55.7008 296.163 55.724C295.814 55.7473 295.488 55.7706 295.139 55.7706C295.023 55.7706 294.907 55.7706 294.814 55.7706H132.335C132.335 55.7706 132.126 55.7706 132.01 55.7706C131.684 55.7706 131.335 55.7473 130.986 55.724C130.707 55.724 130.405 55.6775 130.103 55.6543C130.033 55.6543 129.963 55.6543 129.893 55.631C129.544 55.5845 129.196 55.538 128.87 55.4915C128.056 55.3752 127.242 55.1891 126.451 55.0031C126.056 54.91 125.66 54.7937 125.265 54.6775C124.916 54.5612 124.567 54.4449 124.195 54.3286C123.823 54.189 123.451 54.0495 123.056 53.8867C123.056 53.8867 122.916 53.8402 122.846 53.7937C122.753 53.7471 122.683 53.7239 122.614 53.7006C122.474 53.6309 122.311 53.5843 122.172 53.4913C122.009 53.4215 121.846 53.3518 121.683 53.2587C121.497 53.1657 121.335 53.0959 121.148 52.9796C121.125 52.9796 121.102 52.9796 121.079 52.9564C120.986 52.9099 120.893 52.8634 120.8 52.7936C120.544 52.6773 120.311 52.5377 120.079 52.3982C119.893 52.3052 119.706 52.1889 119.52 52.0493C119.288 51.9098 119.055 51.747 118.823 51.6074C118.753 51.5609 118.706 51.5377 118.637 51.4679C118.497 51.3749 118.358 51.2818 118.218 51.1888C118.078 51.0958 117.939 50.9795 117.799 50.8864C117.683 50.7934 117.567 50.7236 117.45 50.6074C117.241 50.4446 117.055 50.305 116.869 50.1422C116.66 49.9794 116.45 49.8166 116.264 49.6305C116.171 49.5608 116.102 49.491 116.009 49.398C115.869 49.2817 115.729 49.1654 115.613 49.0258C115.427 48.863 115.264 48.7002 115.101 48.5374C115.008 48.4444 114.915 48.3746 114.822 48.2583C114.729 48.1653 114.613 48.049 114.543 47.956C114.45 47.863 114.38 47.7932 114.287 47.6769C114.287 47.6769 114.148 47.5373 114.078 47.4443C113.869 47.2117 113.706 47.0024 113.52 46.7698C113.52 46.7698 113.311 46.5373 113.241 46.421C113.194 46.3745 113.171 46.3512 113.148 46.3047C113.055 46.1884 112.985 46.0721 112.892 45.9791C112.869 45.9791 112.845 45.9326 112.822 45.9093C112.822 45.886 112.776 45.8628 112.776 45.8395C112.683 45.7465 112.613 45.6302 112.543 45.5372C112.473 45.4674 112.427 45.3976 112.38 45.3279C112.311 45.2348 112.241 45.1185 112.171 45.0255C112.124 44.979 112.101 44.9325 112.078 44.886C112.008 44.7929 111.962 44.7232 111.915 44.6301C111.845 44.5371 111.776 44.4208 111.706 44.3278C111.636 44.2347 111.59 44.165 111.543 44.0487C111.52 44.0022 111.473 43.9557 111.45 43.8859C111.427 43.8394 111.403 43.8161 111.38 43.7696C111.287 43.63 111.217 43.4905 111.124 43.351C111.055 43.2579 111.008 43.1416 110.962 43.0486C110.915 42.9788 110.892 42.9091 110.845 42.8625C110.729 42.6532 110.613 42.4439 110.52 42.2346C110.403 42.002 110.264 41.7694 110.171 41.5136C110.171 41.4903 110.171 41.4671 110.148 41.4438C110.124 41.3973 110.101 41.3741 110.101 41.3275C109.962 41.0484 109.845 40.7694 109.729 40.467C109.613 40.1647 109.473 39.8623 109.38 39.56C109.334 39.4437 109.287 39.3041 109.241 39.1878C109.194 39.0715 109.171 38.9552 109.124 38.8622C109.101 38.7924 109.078 38.7459 109.054 38.6529C109.008 38.5599 108.985 38.4901 108.961 38.3971C108.938 38.3273 108.915 38.2343 108.892 38.1645C108.799 37.8389 108.682 37.49 108.613 37.1644C108.52 36.7923 108.426 36.4202 108.357 36.048C108.287 35.7224 108.24 35.4201 108.194 35.0945C108.031 34.1874 107.938 33.2571 107.892 32.3036C107.892 32.071 107.868 31.8617 107.868 31.6291C107.612 29.094 105.519 27.1171 102.961 26.9775H324.142H324.165Z" fill="black"/>
<path d="M131.01 55.7496C131.359 55.7729 131.684 55.7962 132.033 55.7962C131.847 55.7962 131.661 55.7962 131.475 55.7962C131.266 55.7962 131.08 55.7962 130.87 55.7496C130.638 55.7496 130.429 55.7031 130.219 55.7031C130.196 55.7031 130.173 55.7031 130.149 55.7031C130.452 55.7264 130.754 55.7496 131.033 55.7729L131.01 55.7496Z" fill="black"/>
<path d="M297.024 55.7029C297.024 55.7029 296.978 55.7029 296.955 55.7029C296.722 55.7029 296.513 55.7495 296.304 55.7495C296.094 55.7727 295.908 55.796 295.699 55.796C295.513 55.796 295.303 55.796 295.141 55.796C295.466 55.796 295.815 55.7727 296.164 55.7495C296.443 55.7495 296.745 55.7029 297.048 55.6797L297.024 55.7029Z" fill="black"/>
<path d="M109.381 39.5606C109.381 39.5606 109.381 39.5373 109.357 39.5141C109.311 39.3978 109.288 39.2815 109.241 39.1885C109.288 39.3048 109.334 39.4443 109.381 39.5606Z" fill="black"/>
<path d="M110.101 41.3303C109.985 41.1209 109.892 40.9116 109.799 40.7023C109.776 40.6093 109.729 40.5395 109.706 40.4697C109.822 40.7721 109.962 41.0512 110.078 41.3303H110.101Z" fill="black"/>
<path d="M113.147 46.33C113.031 46.2137 112.938 46.0741 112.845 45.9346C112.845 45.9578 112.891 45.9811 112.914 46.0043C112.984 46.1206 113.077 46.2369 113.17 46.33H113.147Z" fill="black"/>
<path d="M114.126 47.4694C113.987 47.3298 113.871 47.1903 113.754 47.0508C113.684 46.9577 113.615 46.888 113.545 46.7949C113.731 47.0275 113.917 47.2368 114.103 47.4694H114.126Z" fill="black"/>
<path d="M114.568 47.9803C114.568 47.9803 114.382 47.7942 114.312 47.7012C114.312 47.7012 114.475 47.8872 114.568 47.9803Z" fill="black"/>
<path d="M117.474 50.6309C117.265 50.4914 117.079 50.3286 116.893 50.1658C116.776 50.0728 116.66 49.9797 116.544 49.8634C116.451 49.7937 116.381 49.7239 116.288 49.6309C116.497 49.7937 116.707 49.9797 116.893 50.1425C117.079 50.3053 117.265 50.4449 117.474 50.6077V50.6309Z" fill="black"/>
<path d="M117.823 50.8867C117.963 51.003 118.102 51.096 118.242 51.1891C118.195 51.1658 118.149 51.1426 118.126 51.1193C118.033 51.0495 117.916 50.9797 117.823 50.8867Z" fill="black"/>
<path d="M119.568 52.0747C119.428 52.0049 119.289 51.9119 119.149 51.8189C119.149 51.8189 119.149 51.8189 119.126 51.8189C119.033 51.7491 118.963 51.7026 118.87 51.6328C119.103 51.7724 119.335 51.9352 119.568 52.0747Z" fill="black"/>
<path d="M124.219 54.353C123.893 54.2367 123.591 54.1204 123.265 54.0042C123.195 53.9809 123.149 53.9576 123.079 53.9111C123.451 54.0739 123.823 54.2135 124.219 54.353Z" fill="black"/>
<path d="M125.289 54.7032C125.684 54.8195 126.08 54.9358 126.475 55.0288C126.219 54.959 125.94 54.8892 125.684 54.8195C125.545 54.7729 125.428 54.7497 125.289 54.7032C125.126 54.6567 124.94 54.5869 124.777 54.5404C124.591 54.4706 124.405 54.4241 124.242 54.3311C124.591 54.4473 124.94 54.5869 125.312 54.6799L125.289 54.7032Z" fill="black"/>
<path d="M128.893 55.5394C129.219 55.5859 129.568 55.6324 129.917 55.6789C129.614 55.6557 129.289 55.6091 129.01 55.5626C128.963 55.5626 128.94 55.5626 128.893 55.5626C128.754 55.5394 128.614 55.5161 128.475 55.4929C128.196 55.4463 127.94 55.3998 127.661 55.3533C127.312 55.2835 126.986 55.2138 126.637 55.1207C126.591 55.1207 126.521 55.0975 126.475 55.0742C127.265 55.2835 128.079 55.4463 128.893 55.5626V55.5394Z" fill="black"/>
<path d="M131.01 55.7496H130.87C130.87 55.7496 130.708 55.7496 130.638 55.7496C130.498 55.7496 130.359 55.7264 130.219 55.7031C130.196 55.7031 130.173 55.7031 130.149 55.7031C130.452 55.7264 130.754 55.7496 131.033 55.7729L131.01 55.7496Z" fill="black"/>
<path d="M296.163 55.7495C296.442 55.7495 296.745 55.7029 297.047 55.6797C297.024 55.6797 297 55.6797 296.977 55.6797C296.838 55.6797 296.698 55.7029 296.558 55.7262C296.489 55.7262 296.396 55.7262 296.326 55.7262H296.186L296.163 55.7495Z" fill="black"/>
<path d="M298.279 55.5392C299.093 55.4229 299.907 55.2368 300.698 55.0508C300.628 55.074 300.582 55.0973 300.535 55.0973C300.186 55.1903 299.861 55.2601 299.512 55.3299C299.233 55.3996 298.977 55.4462 298.698 55.4694C298.558 55.4927 298.419 55.5159 298.279 55.5392C298.233 55.5392 298.209 55.5392 298.163 55.5392C297.861 55.5857 297.558 55.6322 297.256 55.6555C297.605 55.609 297.954 55.5625 298.279 55.5159V55.5392Z" fill="black"/>
<path d="M302.931 54.3535C302.768 54.4233 302.582 54.4931 302.396 54.5628C302.233 54.6326 302.047 54.6791 301.885 54.7256C301.768 54.7722 301.629 54.7954 301.512 54.8419C301.257 54.9117 300.978 54.9815 300.722 55.0512C301.117 54.9582 301.512 54.8419 301.908 54.7256C302.257 54.6093 302.606 54.4931 302.978 54.3768L302.931 54.3535Z" fill="black"/>
<path d="M302.931 54.353C303.326 54.2135 303.675 54.0739 304.07 53.9111C304.001 53.9576 303.954 53.9809 303.884 54.0042C303.559 54.1437 303.256 54.26 302.931 54.353Z" fill="black"/>
<path d="M307.582 52.0747C307.815 51.9352 308.047 51.7724 308.28 51.6328C308.187 51.7026 308.117 51.7491 308.024 51.8189C308.024 51.8189 308.024 51.8189 308.001 51.8189C307.861 51.9119 307.722 51.9817 307.582 52.0747Z" fill="black"/>
<path d="M309.328 50.8867C309.328 50.8867 309.118 51.0495 309.025 51.1193C308.979 51.1426 308.956 51.1658 308.909 51.1891C309.049 51.096 309.188 50.9797 309.328 50.8867Z" fill="black"/>
<path d="M310.863 49.6543C310.863 49.6543 310.7 49.7938 310.607 49.8869C310.491 50.0032 310.374 50.0962 310.258 50.1892C310.072 50.352 309.886 50.5148 309.677 50.6544C309.886 50.4916 310.072 50.352 310.258 50.1892C310.468 50.0264 310.677 49.8636 310.863 49.6776V49.6543Z" fill="black"/>
<path d="M312.84 47.7236C312.84 47.7236 312.677 47.9097 312.584 48.0027C312.677 47.9097 312.747 47.8399 312.84 47.7236Z" fill="black"/>
<path d="M313.606 46.8174C313.606 46.8174 313.466 46.9802 313.396 47.0732C313.35 47.143 313.303 47.1895 313.233 47.2593C313.35 47.1197 313.489 46.9802 313.606 46.8174Z" fill="black"/>
<path d="M314.303 45.9346C314.21 46.0741 314.094 46.2137 314.001 46.33C314.094 46.2137 314.164 46.0974 314.257 46.0043C314.28 46.0043 314.303 45.9578 314.327 45.9346H314.303Z" fill="black"/>
<path d="M317.42 40.4697C317.42 40.4697 317.35 40.6093 317.327 40.7023C317.234 40.9116 317.141 41.1209 317.024 41.3303C317.164 41.0512 317.28 40.7721 317.397 40.4697H317.42Z" fill="black"/>
<path d="M317.909 39.1885C317.909 39.1885 317.839 39.4211 317.793 39.5141C317.793 39.5141 317.793 39.5373 317.77 39.5606C317.816 39.4443 317.863 39.3048 317.909 39.1885Z" fill="black"/>
<path d="M407.195 805.67V814.275C407.195 823.043 404.846 831.323 400.776 838.463C393.31 845.394 383.565 849.929 372.82 850.79C372.378 850.813 371.936 850.859 371.494 850.859C370.703 850.906 369.889 850.929 369.075 850.929H58.1432C57.3292 850.929 56.5152 850.929 55.7012 850.859C55.2593 850.859 54.8174 850.813 54.422 850.79C53.8173 850.743 53.2359 850.673 52.6312 850.604C42.5838 849.418 33.5133 845.022 26.443 838.486C22.3264 831.323 19.9541 822.997 19.9541 814.205V804.135C19.9541 815.624 25.1638 826.09 33.3738 833.114C39.3045 838.207 46.8167 841.51 55.0732 842.161C55.3523 842.161 55.6082 842.208 55.8872 842.208H56.0035H56.1198C56.771 842.231 57.4455 842.254 58.12 842.254H369.052C369.703 842.254 370.355 842.254 371.006 842.208H371.262C371.564 842.208 371.866 842.161 372.145 842.138C391.286 840.649 406.404 824.741 407.172 805.647L407.195 805.67Z" fill="url(#paint5_linear_3826_2192)"/>
<path d="M415.826 58.1914V58.1216C415.849 33.2359 396.405 12.6994 371.566 11.3969H371.496C370.706 11.3504 369.892 11.3271 369.101 11.3271H58.1455C57.3315 11.3271 56.5175 11.3271 55.75 11.3737H55.6337C54.6104 11.4202 53.6336 11.5132 52.6335 11.6295C42.5396 12.8156 33.4924 17.1881 26.4453 23.677C22.352 30.8171 20.0029 39.1666 20.0029 48.0278V58.0984C20.0029 46.516 25.1894 36.0733 33.3994 29.0495C39.4929 23.8398 47.2842 20.5139 55.8896 20.0023H56.378C57.0292 19.9558 57.6339 19.9325 58.1688 19.9325H369.101C369.589 19.9325 370.148 19.9325 370.729 19.9558H371.124C390.847 21.0023 406.43 36.9106 407.22 56.4936V48.0743C407.22 39.2131 404.871 30.8869 400.778 23.7235C410.058 32.2823 415.849 44.5624 415.849 58.1216L415.826 58.1914Z" fill="url(#paint6_linear_3826_2192)"/>
<path d="M26.4447 838.23C17.1416 829.625 11.3271 817.345 11.3271 803.902V58.0972C11.3271 44.5379 17.1183 32.2579 26.3981 23.6758C22.3048 30.8159 19.9558 39.1654 19.9558 48.0266V813.949C19.9558 822.74 22.328 831.067 26.4447 838.23Z" fill="url(#paint7_linear_3826_2192)"/>
<path d="M415.847 58.2153V803.997C415.847 808.625 415.149 813.09 413.893 817.346C412.87 820.742 411.475 823.975 409.73 826.998C409.381 827.626 408.986 828.231 408.614 828.836C408.056 829.743 407.451 830.627 406.8 831.487C405.009 833.953 402.962 836.255 400.729 838.325C400.729 838.302 400.753 838.278 400.776 838.232C404.869 831.092 407.195 822.812 407.195 814.044V48.1448C407.195 39.2836 404.846 30.9573 400.753 23.7939C410.033 32.3528 415.824 44.6328 415.824 58.2153H415.847Z" fill="url(#paint8_linear_3826_2192)"/>
<path d="M235.787 35.5378H191.388C189.946 35.5378 188.783 34.375 188.783 32.933C188.783 31.491 189.946 30.3281 191.388 30.3281H235.787C237.229 30.3281 238.392 31.491 238.392 32.933C238.392 34.375 237.229 35.5378 235.787 35.5378Z" fill="url(#paint9_linear_3826_2192)"/>
<path d="M400.195 58.1196V803.901C400.195 810.971 397.776 817.53 393.729 822.833C393.496 823.112 393.287 823.391 393.055 823.67C392.357 824.507 391.636 825.298 390.892 826.042C390.217 826.693 389.519 827.345 388.798 827.949C387.891 828.694 386.914 829.415 385.914 830.066C384.914 830.717 383.891 831.298 382.798 831.857C382.263 832.112 381.728 832.368 381.17 832.601C380.635 832.833 380.053 833.043 379.495 833.252C378.356 833.671 377.169 833.996 375.983 834.275C374.541 834.601 373.076 834.81 371.564 834.95C371.402 834.95 371.285 834.973 371.146 834.996H370.936H370.727H370.681C370.541 834.996 370.401 834.996 370.262 835.02C370.122 835.02 370.006 835.02 369.867 835.02C369.587 835.02 369.332 835.02 369.053 835.02H58.1204C57.8646 835.02 57.5855 835.02 57.3064 835.02C57.0273 835.02 56.7714 834.996 56.4924 834.996H56.4458H56.2365H56.1435H56.0505C55.9109 834.996 55.7946 834.973 55.6318 834.95C39.5608 833.694 26.9551 820.042 26.9551 803.901V58.1196C26.9551 41.6997 39.7003 28.1172 56.0505 27.0473H56.3295L56.7482 27.0008C57.2599 26.9775 57.7018 26.9775 58.1204 26.9775H102.984C105.543 27.1171 107.636 29.094 107.892 31.6291C107.892 31.7919 107.892 31.9779 107.892 32.1407V32.2105C107.892 32.2105 107.892 32.2803 107.892 32.3036C107.938 33.2339 108.031 34.1642 108.194 35.0945C108.241 35.4201 108.287 35.7224 108.357 36.0248C108.427 36.4202 108.52 36.7923 108.613 37.1644C108.683 37.49 108.776 37.8389 108.892 38.1645C108.915 38.2343 108.938 38.3273 108.962 38.3971C108.985 38.4901 109.008 38.5599 109.055 38.6529C109.055 38.7227 109.101 38.7924 109.125 38.8622C109.171 38.9785 109.194 39.0948 109.241 39.1878C109.287 39.3041 109.311 39.4204 109.357 39.5134C109.357 39.5134 109.357 39.5367 109.38 39.56C109.473 39.8623 109.613 40.1647 109.729 40.467C109.846 40.7694 109.985 41.0484 110.101 41.3275C110.101 41.3741 110.125 41.4206 110.148 41.4438C110.148 41.4671 110.148 41.4903 110.171 41.5136C110.287 41.7694 110.404 42.002 110.52 42.2346C110.613 42.4439 110.729 42.6532 110.846 42.8625C110.892 42.9323 110.915 43.0021 110.962 43.0486C111.008 43.1649 111.078 43.2579 111.125 43.351C111.194 43.4905 111.287 43.63 111.381 43.7696C111.404 43.8161 111.427 43.8394 111.45 43.8859C111.497 43.9557 111.52 44.0022 111.543 44.0487C111.613 44.1417 111.66 44.2347 111.706 44.3278C111.776 44.4441 111.822 44.5371 111.915 44.6301C111.962 44.7232 112.032 44.7929 112.078 44.886C112.125 44.9325 112.148 44.979 112.171 45.0255C112.241 45.1418 112.311 45.2348 112.381 45.3279C112.427 45.3976 112.474 45.4674 112.543 45.5372C112.613 45.6535 112.683 45.7465 112.776 45.8395C112.776 45.8628 112.822 45.886 112.822 45.9093C112.822 45.9326 112.869 45.9558 112.892 45.9791C112.962 46.0954 113.055 46.2117 113.148 46.3047C113.171 46.3512 113.218 46.3977 113.241 46.421C113.334 46.5373 113.427 46.6768 113.52 46.7698C113.52 46.7698 113.637 46.9326 113.73 47.0257C113.846 47.1652 113.962 47.3048 114.102 47.4443C114.171 47.5373 114.218 47.6071 114.311 47.6769C114.311 47.6769 114.474 47.863 114.567 47.956C114.66 48.049 114.753 48.1653 114.846 48.2583C114.939 48.3514 115.009 48.4444 115.125 48.5374C115.288 48.7002 115.451 48.863 115.637 49.0258C115.753 49.1654 115.893 49.2817 116.032 49.398C116.125 49.4677 116.195 49.5375 116.288 49.6305C116.381 49.7003 116.451 49.7701 116.544 49.8631C116.66 49.9561 116.776 50.0724 116.893 50.1422C117.079 50.305 117.265 50.4678 117.474 50.6074C117.59 50.7004 117.707 50.7934 117.823 50.8864C117.916 50.9795 118.032 51.0493 118.125 51.119C118.172 51.1423 118.195 51.1655 118.242 51.1888C118.381 51.2818 118.521 51.3981 118.66 51.4679C118.73 51.5377 118.776 51.5609 118.846 51.6074C118.939 51.6772 119.009 51.7237 119.102 51.7935C119.102 51.7935 119.102 51.7935 119.125 51.7935C119.265 51.8865 119.404 51.9563 119.544 52.0493C119.73 52.1889 119.916 52.3052 120.102 52.3982C120.335 52.5377 120.567 52.6773 120.823 52.7936C120.916 52.8634 121.009 52.9099 121.102 52.9564C121.125 52.9564 121.149 52.9796 121.172 52.9796C121.335 53.0727 121.521 53.1657 121.707 53.2587C121.846 53.3518 122.009 53.4215 122.195 53.4913C122.335 53.5611 122.474 53.6309 122.637 53.7006C122.707 53.7471 122.777 53.7704 122.87 53.7937C122.94 53.8402 122.986 53.8634 123.079 53.8867C123.149 53.9332 123.219 53.9565 123.288 53.9797C123.614 54.1193 123.916 54.2356 124.242 54.3286C124.405 54.3984 124.591 54.4681 124.777 54.5379C124.94 54.6077 125.126 54.6542 125.289 54.7007C125.405 54.7472 125.544 54.7937 125.684 54.817C125.94 54.8868 126.219 54.9565 126.475 55.0263C126.545 55.0496 126.591 55.0728 126.638 55.0728C126.986 55.1659 127.312 55.2356 127.661 55.3054C127.94 55.3752 128.196 55.4217 128.475 55.445C128.614 55.4682 128.754 55.4915 128.894 55.5147C128.894 55.5147 128.963 55.538 129.01 55.538C129.312 55.5845 129.615 55.631 129.917 55.6543C129.987 55.6543 130.056 55.6543 130.126 55.6775C130.149 55.6775 130.173 55.6775 130.196 55.6775C130.336 55.6775 130.475 55.7008 130.615 55.724C130.684 55.724 130.777 55.724 130.847 55.724C131.057 55.7473 131.243 55.7706 131.452 55.7706C131.754 55.7938 132.057 55.8171 132.336 55.7938C132.429 55.7938 132.545 55.7938 132.661 55.7938H294.488C294.488 55.7938 294.721 55.7938 294.814 55.7938C295.116 55.7938 295.419 55.7938 295.698 55.7706C295.907 55.7706 296.093 55.7706 296.302 55.724C296.372 55.724 296.465 55.724 296.535 55.724C296.675 55.724 296.814 55.7008 296.954 55.6775C296.977 55.6775 297 55.6775 297.023 55.6775C297.093 55.6775 297.163 55.6775 297.233 55.6543C297.535 55.631 297.861 55.5845 298.14 55.538C298.186 55.538 298.21 55.538 298.256 55.538C298.396 55.5147 298.535 55.4915 298.675 55.4682C298.954 55.4217 299.21 55.3752 299.489 55.3287C299.838 55.2589 300.163 55.1891 300.512 55.0961C300.559 55.0961 300.628 55.0728 300.675 55.0496C300.931 54.9798 301.21 54.91 301.466 54.8403C301.605 54.7937 301.721 54.7705 301.838 54.724C302.001 54.6542 302.187 54.6077 302.349 54.5612C302.536 54.4914 302.722 54.4449 302.884 54.3518C303.21 54.2356 303.512 54.1193 303.838 54.003C303.908 53.9797 303.978 53.9565 304.047 53.91C304.117 53.8867 304.187 53.8634 304.257 53.8169C304.35 53.7937 304.419 53.7471 304.489 53.7239C304.629 53.6541 304.792 53.6076 304.931 53.5146C305.094 53.4448 305.257 53.375 305.419 53.282C305.606 53.189 305.768 53.1192 305.954 53.0029C305.978 53.0029 306.001 53.0029 306.024 52.9796C306.117 52.9331 306.21 52.8866 306.303 52.8168C306.559 52.7005 306.792 52.561 307.024 52.4215C307.21 52.3284 307.396 52.2121 307.582 52.0726C307.722 52.0028 307.862 51.9098 308.001 51.8168C308.001 51.8168 308.001 51.8168 308.024 51.8168C308.117 51.747 308.187 51.7005 308.28 51.6307C308.35 51.5842 308.396 51.5609 308.466 51.4911C308.606 51.3981 308.745 51.3051 308.885 51.2121C308.931 51.1888 308.978 51.1655 309.001 51.1423C309.094 51.0725 309.211 51.0027 309.304 50.9097C309.42 50.8167 309.536 50.7469 309.652 50.6306C309.862 50.4911 310.048 50.3283 310.234 50.1655C310.35 50.0724 310.466 49.9561 310.583 49.8631C310.676 49.7933 310.745 49.7236 310.839 49.6305C310.932 49.5608 311.001 49.491 311.094 49.398C311.234 49.2817 311.373 49.1654 311.49 49.0258C311.676 48.863 311.839 48.7002 312.001 48.5374C312.094 48.4444 312.188 48.3746 312.281 48.2583C312.374 48.1653 312.49 48.049 312.56 47.956C312.653 47.863 312.722 47.7932 312.815 47.6769C312.815 47.6769 312.815 47.6769 312.815 47.6536C312.955 47.5141 313.095 47.3745 313.188 47.2117C313.257 47.142 313.304 47.0954 313.35 47.0257C313.42 46.9559 313.49 46.8629 313.56 46.7698C313.56 46.7698 313.769 46.5373 313.839 46.421C313.885 46.3745 313.909 46.3512 313.932 46.3047C314.025 46.1884 314.095 46.0721 314.188 45.9791C314.211 45.9791 314.234 45.9326 314.257 45.9093C314.257 45.886 314.304 45.8628 314.304 45.8395C314.397 45.7465 314.467 45.6302 314.537 45.5372C314.606 45.4674 314.653 45.3976 314.699 45.3279C314.769 45.2348 314.839 45.1185 314.909 45.0255C314.955 44.979 314.978 44.9325 315.002 44.886C315.071 44.7929 315.118 44.7232 315.164 44.6301C315.234 44.5371 315.304 44.4208 315.374 44.3278C315.444 44.2347 315.49 44.165 315.537 44.0487C315.583 43.9789 315.606 43.9324 315.63 43.8859C315.653 43.8394 315.676 43.8161 315.699 43.7696C315.792 43.63 315.862 43.4905 315.955 43.351C316.025 43.2579 316.072 43.1416 316.118 43.0486C316.165 42.9788 316.211 42.9091 316.234 42.8625C316.351 42.6532 316.467 42.4439 316.56 42.2346C316.676 42.002 316.816 41.7694 316.909 41.5136C316.909 41.4903 316.909 41.4671 316.932 41.4438C316.955 41.3973 316.979 41.3741 316.979 41.3275C317.118 41.0484 317.234 40.7694 317.351 40.467C317.467 40.1647 317.607 39.8623 317.7 39.56C317.7 39.56 317.7 39.5367 317.723 39.5134C317.769 39.3971 317.793 39.2809 317.839 39.1878C317.886 39.0715 317.909 38.9552 317.955 38.8622C317.979 38.7924 318.002 38.7459 318.025 38.6529C318.072 38.5599 318.095 38.4901 318.118 38.3971C318.141 38.304 318.165 38.2343 318.188 38.1645C318.281 37.8389 318.397 37.49 318.467 37.1644C318.56 36.7923 318.653 36.4202 318.723 36.048C318.793 35.7224 318.839 35.4201 318.886 35.0945C319.048 34.1874 319.142 33.2571 319.188 32.3036C319.188 32.2803 319.188 32.2338 319.188 32.2105V32.1407C319.188 31.9779 319.188 31.7919 319.188 31.6291C319.444 29.094 321.537 27.1171 324.095 26.9775H368.96C369.378 26.9775 369.843 26.9775 370.332 27.0008H370.471L370.75 27.0473H371.029C371.309 27.0473 371.564 27.0938 371.843 27.1171C371.983 27.1171 372.123 27.1171 372.262 27.1636C372.541 27.1869 372.797 27.2101 373.076 27.2566C373.402 27.3031 373.727 27.3264 374.053 27.3962H374.099C374.565 27.4659 375.03 27.559 375.495 27.652C375.588 27.6753 375.658 27.6985 375.751 27.7218C376.123 27.8148 376.495 27.8846 376.867 28.0009C377.402 28.1404 377.96 28.3032 378.495 28.4893C378.937 28.6288 379.356 28.7684 379.774 28.9312C380.239 29.094 380.681 29.2801 381.147 29.4661C382.03 29.8382 382.914 30.2801 383.775 30.722C384.542 31.1407 385.31 31.5826 386.031 32.071C386.193 32.1873 386.356 32.3036 386.519 32.3966C386.821 32.6059 387.124 32.8152 387.403 33.0245C387.775 33.3036 388.17 33.606 388.542 33.9083C389.287 34.513 390.008 35.141 390.682 35.8155C391.031 36.1411 391.357 36.4899 391.682 36.8388C392.008 37.1877 392.334 37.5365 392.636 37.9087C393.869 39.3739 394.985 40.9322 395.962 42.6067C396.45 43.444 396.869 44.3045 397.287 45.1883C397.683 46.0721 398.055 46.9559 398.38 47.8862C398.543 48.3514 398.683 48.7933 398.822 49.2817C399.125 50.305 399.381 51.3283 399.567 52.3749C399.66 52.7936 399.706 53.2122 399.776 53.6309C400.009 55.0961 400.102 56.6311 400.102 58.1661L400.195 58.1196Z" fill="url(#paint10_linear_3826_2192)"/>
</g>
<defs>
<filter id="filter0_d_3826_2192" x="0" y="0" width="445.757" height="882.932" filterUnits="userSpaceOnUse" color-interpolation-filters="sRGB">
<feFlood flood-opacity="0" result="BackgroundImageFix"/>
<feColorMatrix in="SourceAlpha" type="matrix" values="0 0 0 0 0 0 0 0 0 0 0 0 0 0 0 0 0 0 127 0" result="hardAlpha"/>
<feOffset dx="9.30308" dy="11.6288"/>
<feGaussianBlur stdDeviation="4.65154"/>
<feComposite in2="hardAlpha" operator="out"/>
<feColorMatrix type="matrix" values="0 0 0 0 0 0 0 0 0 0 0 0 0 0 0 0 0 0 0.25 0"/>
<feBlend mode="normal" in2="BackgroundImageFix" result="effect1_dropShadow_3826_2192"/>
<feBlend mode="normal" in="SourceGraphic" in2="effect1_dropShadow_3826_2192" result="shape"/>
</filter>
<linearGradient id="paint0_linear_3826_2192" x1="1.62873" y1="430.895" x2="7.88505" y2="430.895" gradientUnits="userSpaceOnUse">
<stop stop-color="#666666"/>
<stop offset="0.06" stop-color="#727272"/>
<stop offset="0.33" stop-color="#A8A8A8"/>
<stop offset="0.57" stop-color="#CFCFCF"/>
<stop offset="0.76" stop-color="#E8E8E8"/>
<stop offset="0.87" stop-color="#F1F1F1"/>
<stop offset="0.95" stop-color="#F7F7F7"/>
<stop offset="1" stop-color="white"/>
</linearGradient>
<linearGradient id="paint1_linear_3826_2192" x1="420.268" y1="430.942" x2="426.478" y2="430.942" gradientUnits="userSpaceOnUse">
<stop stop-color="white"/>
<stop offset="0.05" stop-color="#F7F7F7"/>
<stop offset="0.13" stop-color="#F1F1F1"/>
<stop offset="0.24" stop-color="#E8E8E8"/>
<stop offset="0.43" stop-color="#CFCFCF"/>
<stop offset="0.67" stop-color="#A8A8A8"/>
<stop offset="0.94" stop-color="#727272"/>
<stop offset="1" stop-color="#666666"/>
</linearGradient>
<linearGradient id="paint2_linear_3826_2192" x1="213.575" y1="860.395" x2="213.575" y2="810.809" gradientUnits="userSpaceOnUse">
<stop stop-color="#F1F1F1"/>
<stop offset="0.12" stop-color="#E3E3E3"/>
<stop offset="0.34" stop-color="#BEBEBE"/>
<stop offset="0.63" stop-color="#838383"/>
<stop offset="1" stop-color="#333333"/>
</linearGradient>
<linearGradient id="paint3_linear_3826_2192" x1="213.575" y1="48.9335" x2="213.575" y2="-12.9553" gradientUnits="userSpaceOnUse">
<stop stop-color="#333333"/>
<stop offset="0.07" stop-color="#4B4B4B"/>
<stop offset="0.25" stop-color="#818181"/>
<stop offset="0.42" stop-color="#AEAEAE"/>
<stop offset="0.59" stop-color="#D1D1D1"/>
<stop offset="0.74" stop-color="#EAEAEA"/>
<stop offset="0.89" stop-color="#F9F9F9"/>
<stop offset="1" stop-color="white"/>
</linearGradient>
<linearGradient id="paint4_linear_3826_2192" x1="400.753" y1="431.221" x2="415.824" y2="431.221" gradientUnits="userSpaceOnUse">
<stop stop-color="#F0F0F0"/>
<stop offset="0.14" stop-color="#B7B7B7"/>
<stop offset="0.27" stop-color="#888888"/>
<stop offset="0.4" stop-color="#636363"/>
<stop offset="0.51" stop-color="#484848"/>
<stop offset="0.62" stop-color="#383838"/>
<stop offset="0.7" stop-color="#333333"/>
</linearGradient>
<linearGradient id="paint5_linear_3826_2192" x1="19.9774" y1="827.509" x2="407.195" y2="827.509" gradientUnits="userSpaceOnUse">
<stop/>
<stop offset="0.1" stop-color="#141414"/>
<stop offset="0.26" stop-color="#2C2C2C"/>
<stop offset="0.4" stop-color="#3A3A3A"/>
<stop offset="0.52" stop-color="#404040"/>
<stop offset="0.63" stop-color="#383838"/>
<stop offset="0.79" stop-color="#232323"/>
<stop offset="0.99" stop-color="#020202"/>
<stop offset="1"/>
</linearGradient>
<linearGradient id="paint6_linear_3826_2192" x1="0.00131141" y1="34.7477" x2="415.849" y2="34.7477" gradientUnits="userSpaceOnUse">
<stop/>
<stop offset="0.1" stop-color="#141414"/>
<stop offset="0.26" stop-color="#2C2C2C"/>
<stop offset="0.4" stop-color="#3A3A3A"/>
<stop offset="0.52" stop-color="#404040"/>
<stop offset="0.63" stop-color="#383838"/>
<stop offset="0.79" stop-color="#232323"/>
<stop offset="0.99" stop-color="#020202"/>
<stop offset="1"/>
</linearGradient>
<linearGradient id="paint7_linear_3826_2192" x1="11.3271" y1="430.965" x2="20.2581" y2="430.965" gradientUnits="userSpaceOnUse">
<stop stop-color="#404040"/>
<stop offset="0.64" stop-color="#191919"/>
<stop offset="1" stop-color="#0A0A0A"/>
</linearGradient>
<linearGradient id="paint8_linear_3826_2192" x1="400.729" y1="431.083" x2="415.847" y2="431.083" gradientUnits="userSpaceOnUse">
<stop stop-color="#0A0A0A"/>
<stop offset="0.36" stop-color="#191919"/>
<stop offset="1" stop-color="#404040"/>
</linearGradient>
<linearGradient id="paint9_linear_3826_2192" x1="188.76" y1="32.933" x2="238.392" y2="32.933" gradientUnits="userSpaceOnUse">
<stop stop-color="#333333"/>
<stop offset="0.09" stop-color="#2A2A2A"/>
<stop offset="0.29" stop-color="#1E1E1E"/>
<stop offset="0.48" stop-color="#1A1A1A"/>
<stop offset="0.79" stop-color="#1B1B1B"/>
<stop offset="0.9" stop-color="#222222"/>
<stop offset="0.98" stop-color="#2E2E2E"/>
<stop offset="1" stop-color="#333333"/>
</linearGradient>
<linearGradient id="paint10_linear_3826_2192" x1="-72.6111" y1="144.778" x2="499.761" y2="717.15" gradientUnits="userSpaceOnUse">
<stop stop-color="#F2F3F4"/>
<stop offset="0.48" stop-color="#EDEEEE"/>
<stop offset="1" stop-color="#E2E2E2"/>
</linearGradient>
</defs>
</svg>
