<svg width="1091" height="869" viewBox="0 0 1091 869" fill="none" xmlns="http://www.w3.org/2000/svg">
<g filter="url(#filter0_d_3822_2169)">
<path d="M231.316 0V30.5032C222.909 30.5032 216.073 23.6672 216.073 15.2427C216.073 6.81814 222.909 0 231.316 0Z" fill="url(#paint0_linear_3822_2169)"/>
<path d="M795.633 0L824.315 5.62229V24.8987L795.633 30.5032H231.315V0H795.633Z" fill="url(#paint1_linear_3822_2169)"/>
<path d="M854.427 18.991L825.566 24.649V5.85449L854.427 11.5125C858.533 12.3157 858.533 18.2057 854.427 18.991Z" fill="url(#paint2_linear_3822_2169)"/>
<path d="M825.566 5.85508V24.6496L824.316 24.8995V5.62305L825.566 5.85508Z" fill="url(#paint3_linear_3822_2169)"/>
<path d="M1030.34 30.0928H45.9957C20.6329 30.0928 0 50.7257 0 76.0885V805.987C0 831.349 20.6329 851.982 45.9957 851.982H1030.34C1055.71 851.982 1076.34 831.332 1076.34 805.987V76.0885C1076.34 50.7257 1055.69 30.0928 1030.34 30.0928ZM1075.93 805.987C1075.93 807.129 1075.89 808.271 1075.8 809.396C1075.77 809.717 1075.75 810.02 1075.71 810.359C1075.54 812.269 1075.23 814.161 1074.82 816C1074.75 816.357 1074.66 816.696 1074.57 817.053C1074.52 817.302 1074.45 817.57 1074.38 817.838C1073.5 821.104 1072.27 824.21 1070.72 827.137C1070.56 827.458 1070.39 827.762 1070.22 828.083C1069.86 828.726 1069.5 829.35 1069.11 829.975C1068.95 830.261 1068.75 830.546 1068.56 830.832C1068.38 831.135 1068.18 831.421 1067.97 831.724C1067.41 832.545 1066.83 833.348 1066.2 834.116C1065.93 834.473 1065.66 834.794 1065.38 835.115C1064.97 835.633 1064.52 836.133 1064.08 836.633C1063.81 836.936 1063.54 837.204 1063.26 837.489C1062.79 837.989 1062.29 838.489 1061.77 838.971C1061.77 838.971 1061.74 839.006 1061.72 839.024C1060.7 839.988 1059.65 840.916 1058.54 841.791C1058.51 841.791 1058.51 841.826 1058.47 841.844C1056.83 843.147 1055.08 844.343 1053.26 845.396C1052.65 845.753 1052.03 846.11 1051.39 846.431C1051.28 846.467 1051.19 846.539 1051.08 846.592C1050.55 846.878 1049.99 847.145 1049.46 847.377C1048.82 847.681 1048.16 847.984 1047.5 848.234C1046.82 848.52 1046.14 848.77 1045.46 849.002C1044.8 849.234 1044.12 849.466 1043.44 849.662C1043.41 849.662 1043.37 849.662 1043.34 849.698C1042.66 849.912 1041.98 850.09 1041.28 850.269C1040.59 850.447 1039.86 850.608 1039.14 850.733C1038.41 850.894 1037.68 851.018 1036.95 851.108C1036.3 851.215 1035.66 851.286 1035.02 851.34C1034.91 851.34 1034.8 851.34 1034.72 851.375C1033.66 851.483 1032.61 851.536 1031.54 851.572C1031.15 851.572 1030.77 851.572 1030.38 851.572H45.9957C45.603 851.572 45.2282 851.572 44.8355 851.572C43.7646 851.536 42.7116 851.465 41.6585 851.375C41.5514 851.375 41.4443 851.34 41.3551 851.34C40.7125 851.286 40.07 851.197 39.4274 851.108C38.6956 851.001 37.9638 850.876 37.2321 850.733C36.5181 850.608 35.8042 850.447 35.0902 850.269C34.3941 850.108 33.7159 849.912 33.0376 849.698C33.0019 849.698 32.9484 849.662 32.9306 849.662C32.2523 849.466 31.5741 849.234 30.9137 849.002C30.2354 848.77 29.5572 848.502 28.8789 848.234C28.2185 847.984 27.5581 847.681 26.9156 847.377C26.3623 847.145 25.809 846.878 25.2914 846.592C25.1843 846.539 25.095 846.485 24.988 846.431C24.3633 846.11 23.7207 845.753 23.1139 845.396C21.2933 844.343 19.5442 843.165 17.8842 841.844C17.8485 841.809 17.8485 841.809 17.8128 841.791C16.7062 840.916 15.6532 840.006 14.6358 839.024C14.6001 839.024 14.6001 838.989 14.5823 838.971C14.0825 838.489 13.5649 838.007 13.1008 837.489C12.8153 837.204 12.5475 836.918 12.2798 836.633C11.8336 836.133 11.3874 835.633 10.9769 835.115C10.6913 834.794 10.4235 834.473 10.1558 834.116C9.53112 833.348 8.94212 832.545 8.38881 831.724C8.17463 831.421 7.9783 831.135 7.79981 830.832C7.60348 830.546 7.42499 830.261 7.24651 829.975C6.85384 829.35 6.47902 828.744 6.1399 828.083C5.96141 827.78 5.78293 827.458 5.64014 827.137C4.08732 824.21 2.85577 821.104 1.98119 817.838C1.90979 817.57 1.8384 817.302 1.78485 817.053C1.67776 816.696 1.60637 816.357 1.53497 816C1.10661 814.161 0.821033 812.269 0.642547 810.359C0.60685 810.038 0.589002 809.735 0.553305 809.396C0.464062 808.271 0.428365 807.129 0.428365 805.987V76.0885C0.428365 74.9462 0.464062 73.8038 0.553305 72.6794C0.589002 72.3224 0.60685 71.9654 0.660396 71.6085C0.838881 69.7165 1.14231 67.896 1.55282 66.0933C1.62422 65.7363 1.71346 65.3793 1.8027 65.0224C1.8741 64.7189 1.96334 64.3977 2.03473 64.0942C2.90931 60.8815 4.12301 57.8116 5.65799 54.9379C5.81862 54.6167 5.99711 54.3132 6.15775 53.992C6.85384 52.7247 7.62133 51.4932 8.44236 50.2973C8.63869 50.0296 8.83503 49.744 9.03136 49.4584C9.38833 48.9587 9.781 48.4411 10.1737 47.9592C11.191 46.6562 12.2619 45.4425 13.4221 44.2645C13.672 43.9968 13.9219 43.7469 14.1896 43.497C14.3145 43.3542 14.4573 43.2293 14.5823 43.1222C14.7072 42.9973 14.8321 42.8723 14.9571 42.7652C15.3497 42.3726 15.7603 41.9977 16.1886 41.6586C16.5634 41.3195 16.974 40.9804 17.3845 40.6591C17.5451 40.5163 17.7236 40.3735 17.8842 40.2486C17.9913 40.1593 18.0806 40.088 18.1877 40.0166C18.616 39.6774 19.0622 39.3383 19.5085 39.017C19.5442 39.017 19.5798 38.9813 19.6155 38.9278C20.151 38.553 20.7043 38.1782 21.2576 37.8212C21.3112 37.7855 21.3647 37.7498 21.4182 37.7141C21.9716 37.3571 22.5249 37.018 23.0782 36.7146C23.685 36.3576 24.3097 36.0185 24.9523 35.6794C25.0593 35.6258 25.1486 35.5723 25.2557 35.5187C25.7911 35.2332 26.3444 34.9654 26.8799 34.7334C27.5224 34.43 28.1828 34.1444 28.8432 33.8767C29.5036 33.5911 30.1819 33.3412 30.878 33.1092C32.9127 32.3774 35.0367 31.8062 37.1964 31.3957C37.9281 31.2351 38.6599 31.1101 39.3917 31.0209C40.0343 30.9138 40.6768 30.8424 41.3194 30.7889C41.4265 30.7889 41.5336 30.7889 41.6228 30.7532C41.9441 30.7175 42.2832 30.6818 42.6223 30.6818C43.0328 30.6461 43.4433 30.6104 43.8539 30.5925C44.55 30.5568 45.2639 30.539 45.9778 30.539H1030.32C1031.04 30.539 1031.75 30.539 1032.45 30.5925C1032.86 30.5925 1033.27 30.6282 1033.68 30.6818C1034.02 30.6818 1034.36 30.7175 1034.68 30.7532C1034.79 30.7532 1034.89 30.7889 1034.98 30.7889C1035.63 30.8424 1036.27 30.9317 1036.91 31.0209C1037.64 31.128 1038.37 31.2529 1039.11 31.3957C1041.27 31.8062 1043.39 32.3774 1045.42 33.1092C1046.12 33.3412 1046.78 33.6089 1047.46 33.8767C1048.12 34.1444 1048.78 34.43 1049.42 34.7334C1049.98 34.9654 1050.51 35.2332 1051.05 35.5187C1051.15 35.5723 1051.24 35.6258 1051.35 35.6794C1051.97 36.0185 1052.62 36.3576 1053.22 36.7146C1053.8 37.018 1054.33 37.3571 1054.88 37.7141C1054.94 37.7498 1054.99 37.8033 1055.05 37.8212C1055.6 38.1782 1056.15 38.553 1056.69 38.9278C1056.72 38.9635 1056.76 38.9992 1056.79 39.017C1057.24 39.3383 1057.69 39.6774 1058.11 40.0166C1058.22 40.088 1058.33 40.1772 1058.42 40.2486C1058.58 40.3735 1058.76 40.5163 1058.92 40.6591C1059.33 40.9804 1059.74 41.3195 1060.11 41.6586C1060.54 42.0156 1060.95 42.3726 1061.35 42.7652C1061.47 42.8723 1061.6 42.9973 1061.72 43.1222C1061.85 43.2293 1061.99 43.3542 1062.11 43.497C1062.38 43.7469 1062.63 43.9968 1062.88 44.2645C1064.04 45.4425 1065.11 46.6741 1066.13 47.9592C1066.52 48.4589 1066.9 48.9587 1067.27 49.4584C1067.47 49.744 1067.66 50.0296 1067.86 50.2973C1068.68 51.4932 1069.43 52.7247 1070.14 53.992C1070.31 54.2954 1070.48 54.6167 1070.64 54.9379C1072.16 57.8294 1073.39 60.8993 1074.27 64.0942C1074.36 64.3977 1074.43 64.7189 1074.5 65.0224C1074.61 65.3793 1074.68 65.7185 1074.75 66.0933C1075.16 67.896 1075.45 69.7165 1075.64 71.6085C1075.68 71.9654 1075.71 72.3224 1075.75 72.6794C1075.84 73.8038 1075.87 74.9462 1075.87 76.0885V805.987H1075.93Z" fill="#DFDFDF"/>
<path d="M1030.34 64.9893H45.9953C39.864 64.9893 34.8936 69.9597 34.8936 76.0911V805.989C34.8936 812.121 39.864 817.091 45.9953 817.091H1030.34C1036.47 817.091 1041.44 812.121 1041.44 805.989V76.0911C1041.44 69.9597 1036.47 64.9893 1030.34 64.9893Z" fill="url(#paint4_linear_3822_2169)"/>
<path d="M1030.34 64.2923H45.9961C39.4814 64.2923 34.1982 69.5933 34.1982 76.108V806.006C34.1982 812.521 39.4993 817.822 45.9961 817.822H1030.34C1036.86 817.822 1042.14 812.521 1042.14 806.006V76.0902C1042.14 69.5754 1036.84 64.2744 1030.34 64.2744V64.2923ZM1041.44 805.988C1041.44 812.11 1036.47 817.09 1030.34 817.09H45.9961C39.8741 817.09 34.8943 812.11 34.8943 805.988V76.0902C34.8943 69.9681 39.8741 64.9884 45.9961 64.9884H1030.34C1036.47 64.9884 1041.44 69.9681 1041.44 76.0902V805.988Z" fill="url(#paint5_linear_3822_2169)"/>
<path d="M1030.34 34.7324H45.9947C23.1843 34.7324 4.63965 53.2771 4.63965 76.0875V805.986C4.63965 828.796 23.1843 847.341 45.9947 847.341H1030.34C1053.15 847.341 1071.7 828.796 1071.7 805.986V76.0875C1071.7 53.2771 1053.15 34.7324 1030.34 34.7324ZM1042.16 805.986C1042.16 812.5 1036.86 817.801 1030.36 817.801H45.9947C39.48 817.801 34.1968 812.5 34.1968 805.986V76.0875C34.1968 69.5728 39.4978 64.2718 45.9947 64.2718H1030.34C1036.86 64.2718 1042.14 69.5728 1042.14 76.0875V805.986H1042.16Z" fill="#030303"/>
<path d="M43.8723 851.519C43.3726 851.483 42.8907 851.466 42.3909 851.412C42.141 851.412 41.8911 851.376 41.6413 851.358C41.5342 851.358 41.4271 851.323 41.3378 851.323C40.6953 851.251 40.0349 851.162 39.4102 851.091C38.6606 850.984 37.9466 850.859 37.2148 850.716C36.5009 850.573 35.7869 850.412 35.073 850.252C34.3769 850.073 33.6987 849.895 33.0204 849.681C32.9847 849.681 32.9312 849.645 32.9133 849.645C32.2351 849.431 31.5568 849.217 30.8964 848.985C30.2003 848.753 29.5399 848.485 28.8617 848.217C28.2013 847.949 27.5409 847.664 26.8984 847.36C26.3451 847.11 25.7918 846.843 25.2741 846.575C25.1671 846.521 25.0778 846.468 24.9707 846.414C24.346 846.075 23.7035 845.736 23.0966 845.379C21.2761 844.308 19.5269 843.13 17.867 841.827C17.8313 841.792 17.8313 841.792 17.7956 841.774C16.7069 840.899 15.6359 839.971 14.6186 839.007C14.5829 839.007 14.5829 838.972 14.565 838.954C14.0653 838.472 13.5655 837.99 13.0836 837.472C12.798 837.187 12.5303 836.901 12.2626 836.616C11.8342 836.116 11.3701 835.616 10.9596 835.098C10.674 834.777 10.4063 834.456 10.1386 834.099C9.53174 833.331 8.94273 832.528 8.37158 831.707C8.17525 831.404 7.97891 831.118 7.78258 830.815C7.60409 830.529 7.42561 830.244 7.22928 829.958C6.83661 829.333 6.46179 828.727 6.12267 828.066C5.96203 827.763 5.78354 827.441 5.62291 827.12C4.07008 824.193 2.83853 821.087 1.96396 817.821C1.89256 817.571 1.82117 817.303 1.76762 817.036C1.66053 816.679 1.58914 816.34 1.51774 815.983C1.08938 814.144 0.803801 812.252 0.625315 810.343C0.589618 810.021 0.57177 809.718 0.536073 809.379C0.44683 808.254 0.411133 807.112 0.411133 805.97V76.0893C0.411133 74.947 0.44683 73.8047 0.536073 72.6802C0.57177 72.3233 0.589618 71.9663 0.643164 71.6093C0.821649 69.7174 1.12507 67.8968 1.53559 66.0941C1.60698 65.7371 1.69623 65.3802 1.78547 65.0232C1.85686 64.7198 1.94611 64.3985 2.0175 64.0951C2.89208 60.8823 4.10578 57.8124 5.64076 54.9388C5.80139 54.6175 5.97988 54.3141 6.14051 53.9928C6.83661 52.7256 7.60409 51.494 8.42513 50.2982C8.62146 50.0304 8.81779 49.7449 9.01413 49.4593C9.3711 48.9595 9.76377 48.4419 10.1564 47.96C11.1738 46.6571 12.2447 45.4434 13.4049 44.2654C13.6547 43.9976 13.9046 43.7477 14.1724 43.4979C14.2973 43.3551 14.4401 43.2301 14.565 43.123C14.69 42.9981 14.8149 42.8732 14.9398 42.7661C15.3325 42.3734 15.743 41.9986 16.1714 41.6595C16.5462 41.3203 16.9567 40.9812 17.3672 40.66C17.5279 40.5172 17.7064 40.3744 17.867 40.2494C17.9741 40.1602 18.0633 40.0888 18.1704 40.0174C18.5988 39.6783 19.045 39.3392 19.4912 39.0179C19.5269 39.0179 19.5626 38.9822 19.5983 38.9286C20.1338 38.5538 20.6871 38.179 21.2404 37.822C21.2939 37.7863 21.3475 37.7506 21.401 37.7149C21.9543 37.3758 22.5076 37.0367 23.0609 36.7154C23.6678 36.3585 24.2925 36.0193 24.935 35.6802C25.0421 35.6267 25.1314 35.5731 25.2385 35.5196C25.7739 35.2518 26.3272 34.9841 26.8627 34.7342C27.5052 34.4308 28.1656 34.1452 28.826 33.8775C29.4864 33.5919 30.1646 33.342 30.8607 33.11C32.8955 32.3961 35.0195 31.8071 37.1791 31.3966C37.9109 31.2538 38.6249 31.1288 39.3745 31.0217C39.9992 30.9325 40.6596 30.8611 41.3021 30.7897C41.4092 30.7897 41.5163 30.7897 41.6056 30.754C41.9268 30.7183 42.266 30.6826 42.6051 30.6826C42.3374 30.6826 42.0696 30.7183 41.8019 30.754C41.1237 30.8254 40.4454 30.9146 39.785 31.0039C39.4637 31.0396 39.1425 31.111 38.8212 31.1645C38.4107 31.2181 38.018 31.2895 37.6253 31.3787C37.0185 31.4858 36.4295 31.6286 35.8583 31.7892C35.2336 31.9499 34.5911 32.1105 33.9664 32.3068C33.4488 32.4675 32.9312 32.6281 32.4314 32.8066C31.3427 33.1636 30.2717 33.5741 29.2544 34.056C28.9331 34.1809 28.6118 34.3416 28.2906 34.4844C27.7908 34.7164 27.3089 34.9484 26.827 35.1983C26.7913 35.234 26.7377 35.234 26.702 35.2697C26.1487 35.5731 25.6133 35.8587 25.0778 36.1621C25.0421 36.1621 25.0243 36.1978 25.0064 36.1978C24.6316 36.4298 24.2389 36.644 23.882 36.8939C23.5607 37.0902 23.2394 37.3044 22.9181 37.5186C22.8467 37.5543 22.7754 37.6257 22.704 37.6792C22.2042 38.0184 21.6866 38.3753 21.2047 38.7502C20.7228 39.1071 20.2409 39.4641 19.7768 39.8568C19.6697 39.9282 19.5626 40.0174 19.4734 40.1066C19.0093 40.4636 18.5631 40.8563 18.1169 41.2668C17.6171 41.6952 17.1531 42.1592 16.689 42.6233C16.2785 43.016 15.868 43.4443 15.4753 43.8727C15.3682 43.9798 15.2611 44.1047 15.154 44.2297C14.7792 44.658 14.3865 45.1221 14.0117 45.5683C13.5834 46.0681 13.1728 46.6035 12.7802 47.139C12.4589 47.5673 12.1555 47.9778 11.8699 48.4241C11.7093 48.6382 11.5665 48.8524 11.4058 49.0845C11.2273 49.3522 11.031 49.6378 10.8704 49.9233C10.6919 50.1911 10.5134 50.4588 10.3706 50.7444C10.0493 51.2977 9.72807 51.8331 9.42465 52.4043C9.24616 52.7434 9.06767 53.1004 8.88919 53.4395C8.47867 54.2605 8.086 55.0994 7.72903 55.9561C7.62194 56.2239 7.497 56.5095 7.38991 56.795C7.22927 57.2234 7.06864 57.6339 6.908 58.0801C6.71167 58.6334 6.53318 59.1867 6.3547 59.7579C6.17621 60.329 6.01557 60.9002 5.85494 61.4713C5.85494 61.507 5.85494 61.5249 5.85494 61.5606C5.6943 62.1853 5.53366 62.8278 5.40872 63.4525C5.40872 63.4882 5.40872 63.5239 5.40872 63.5596C5.30163 64.0415 5.21239 64.5234 5.15884 64.9875C4.76618 67.2186 4.56984 69.521 4.56984 71.877V810.218C4.56984 811.039 4.60554 811.86 4.65908 812.663C4.65908 813.091 4.69478 813.537 4.74833 813.966C4.78403 814.323 4.81972 814.698 4.87327 815.055C4.87327 815.233 4.90896 815.411 4.92681 815.572C4.98036 816.072 5.05175 816.536 5.15884 817.018C5.15884 817.089 5.15884 817.143 5.19454 817.214C5.23024 817.518 5.30163 817.803 5.35518 818.107C5.39088 818.249 5.40872 818.392 5.44442 818.535C5.44442 818.589 5.48012 818.642 5.48012 818.696C5.56936 819.124 5.6586 819.552 5.78354 819.999C5.81924 820.177 5.87279 820.356 5.92633 820.552C6.08697 821.159 6.2476 821.766 6.42609 822.355C6.60458 822.944 6.78306 823.533 6.99724 824.104C6.99724 824.139 6.99724 824.139 7.03294 824.175C7.14003 824.479 7.22927 824.746 7.35421 825.032C7.35421 825.068 7.38991 825.103 7.38991 825.139C7.497 825.46 7.62194 825.764 7.74688 826.085C7.74688 826.121 7.74688 826.121 7.78258 826.156C8.13955 827.013 8.53222 827.852 8.94273 828.655C9.10337 829.012 9.29971 829.351 9.47819 829.69C9.78162 830.261 10.1029 830.797 10.4242 831.35C10.5848 831.636 10.7454 831.904 10.9239 832.171C11.0846 832.457 11.2809 832.742 11.4594 833.01C11.6022 833.242 11.7628 833.456 11.9234 833.671C12.209 834.099 12.5124 834.527 12.8337 834.956C13.2085 835.491 13.6191 836.009 14.0653 836.526C14.3687 836.919 14.7078 837.312 15.0648 837.686C15.1005 837.74 15.1719 837.794 15.2076 837.847C15.3147 837.972 15.4396 838.079 15.5288 838.204C15.5645 838.24 15.6181 838.293 15.6359 838.329C15.9929 838.704 16.3677 839.096 16.7247 839.453C17.0817 839.828 17.4565 840.185 17.8313 840.524C17.867 840.524 17.8849 840.56 17.9206 840.596C18.0812 840.756 18.2418 840.899 18.4203 841.042C18.7594 841.363 19.1164 841.667 19.4555 841.934C19.5626 842.042 19.6876 842.131 19.8125 842.238C20.2766 842.613 20.7406 843.005 21.2404 843.344C21.5973 843.63 21.9365 843.88 22.3113 844.112C22.347 844.148 22.3827 844.166 22.4184 844.201C22.704 844.398 22.9895 844.594 23.2573 844.772C23.7392 845.076 24.2211 845.397 24.7387 845.701C24.7744 845.701 24.7922 845.736 24.8279 845.754C25.1671 845.95 25.5062 846.147 25.8631 846.325C26.0416 846.432 26.238 846.557 26.4343 846.646C26.7913 846.843 27.1661 847.039 27.5231 847.218C28.005 847.467 28.5047 847.717 29.0223 847.914C29.3793 848.074 29.7541 848.253 30.1111 848.413C30.2539 848.467 30.3788 848.521 30.5216 848.574C30.9143 848.735 31.307 848.878 31.7175 849.02C31.9495 849.127 32.2172 849.199 32.4671 849.288C32.5207 849.288 32.5742 849.324 32.6277 849.342C33.074 849.502 33.5202 849.645 33.9842 849.77C34.4661 849.931 34.9481 850.073 35.4478 850.18C35.5192 850.216 35.5728 850.216 35.6441 850.234C35.8048 850.27 35.9833 850.323 36.1439 850.359C36.608 850.484 37.0899 850.591 37.5718 850.68C37.6075 850.68 37.6075 850.68 37.6432 850.68C38.0359 850.769 38.4285 850.841 38.839 850.894C39.1425 850.966 39.4637 851.019 39.8029 851.055C40.4633 851.162 41.1415 851.234 41.8197 851.305C42.4801 851.376 43.1762 851.43 43.8545 851.466L43.8723 851.519Z" fill="url(#paint6_linear_3822_2169)"/>
<path d="M1075.93 76.0893V805.987C1075.93 807.13 1075.89 808.272 1075.8 809.396C1075.77 809.718 1075.75 810.021 1075.71 810.36C1075.53 812.27 1075.23 814.162 1074.82 816C1074.75 816.357 1074.66 816.697 1074.57 817.053C1074.52 817.321 1074.45 817.589 1074.37 817.839C1073.5 821.105 1072.27 824.211 1070.72 827.138C1070.55 827.441 1070.38 827.763 1070.22 828.084C1069.86 828.727 1069.5 829.351 1069.11 829.976C1068.93 830.261 1068.75 830.547 1068.56 830.833C1068.36 831.136 1068.16 831.422 1067.97 831.725C1067.4 832.546 1066.81 833.349 1066.2 834.117C1065.93 834.474 1065.66 834.795 1065.38 835.116C1064.95 835.634 1064.5 836.151 1064.08 836.633C1063.81 836.937 1063.54 837.205 1063.25 837.49C1062.77 837.99 1062.29 838.49 1061.77 838.971C1061.77 838.971 1061.74 839.007 1061.72 839.025C1060.7 839.989 1059.63 840.917 1058.54 841.792C1058.51 841.792 1058.51 841.827 1058.47 841.845C1056.83 843.148 1055.08 844.326 1053.26 845.397C1052.65 845.754 1052.03 846.093 1051.39 846.432C1051.28 846.468 1051.19 846.539 1051.08 846.593C1050.55 846.861 1049.99 847.128 1049.46 847.378C1048.81 847.682 1048.15 847.967 1047.49 848.235C1046.83 848.52 1046.16 848.77 1045.46 849.002C1044.8 849.234 1044.12 849.449 1043.44 849.663C1043.41 849.663 1043.37 849.663 1043.34 849.698C1042.66 849.895 1041.98 850.073 1041.28 850.27C1040.59 850.43 1039.85 850.591 1039.14 850.734C1038.41 850.877 1037.7 851.001 1036.95 851.109C1036.32 851.198 1035.66 851.269 1035.02 851.341C1034.91 851.341 1034.8 851.341 1034.71 851.376C1034.46 851.412 1034.21 851.412 1033.96 851.43C1034.14 851.43 1034.32 851.394 1034.52 851.376C1035.2 851.323 1035.87 851.233 1036.54 851.126C1036.86 851.091 1037.18 851.019 1037.5 850.966C1037.91 850.912 1038.3 850.841 1038.69 850.752C1039.37 850.609 1040.03 850.448 1040.69 850.288C1041.26 850.145 1041.82 849.984 1042.35 849.823C1042.82 849.681 1043.26 849.538 1043.71 849.395C1044.57 849.092 1045.41 848.788 1046.21 848.449C1046.57 848.288 1046.94 848.128 1047.3 847.949C1047.8 847.735 1048.32 847.503 1048.8 847.253C1049.15 847.075 1049.53 846.896 1049.89 846.682C1050.08 846.575 1050.28 846.468 1050.46 846.361C1050.83 846.164 1051.21 845.95 1051.56 845.736C1052.06 845.433 1052.56 845.111 1053.04 844.808C1053.33 844.63 1053.62 844.433 1053.88 844.237C1054.29 843.969 1054.69 843.666 1055.06 843.38C1055.54 843.023 1056.03 842.666 1056.49 842.273C1056.61 842.166 1056.72 842.077 1056.85 841.97C1057.2 841.685 1057.54 841.399 1057.88 841.078C1058.06 840.935 1058.24 840.774 1058.38 840.631C1058.79 840.274 1059.18 839.9 1059.56 839.489C1059.97 839.096 1060.38 838.668 1060.77 838.24C1060.88 838.133 1060.99 838.008 1061.09 837.883C1061.47 837.454 1061.86 836.99 1062.24 836.544C1062.67 836.044 1063.08 835.509 1063.47 834.973C1063.79 834.545 1064.09 834.135 1064.38 833.688C1064.54 833.474 1064.7 833.26 1064.84 833.028C1065.02 832.742 1065.2 832.457 1065.38 832.189C1065.56 831.921 1065.74 831.654 1065.88 831.368C1066.2 830.815 1066.52 830.279 1066.82 829.708C1067 829.351 1067.18 829.012 1067.36 828.673C1067.77 827.852 1068.14 827.031 1068.52 826.174C1068.66 825.835 1068.79 825.496 1068.91 825.157C1069.06 824.818 1069.18 824.461 1069.3 824.122C1069.52 823.55 1069.7 822.961 1069.88 822.372C1070.05 821.783 1070.23 821.177 1070.38 820.57C1070.55 819.927 1070.7 819.249 1070.84 818.571C1070.95 818.071 1071.04 817.571 1071.11 817.071C1071.48 814.858 1071.68 812.573 1071.68 810.253V71.877C1071.68 69.521 1071.48 67.2364 1071.09 64.9875C1071.04 64.5056 1070.93 64.0237 1070.84 63.5596C1070.84 63.5239 1070.84 63.5061 1070.84 63.4525C1070.72 62.8278 1070.55 62.1853 1070.39 61.5606C1070.39 61.5249 1070.39 61.507 1070.39 61.4713C1070.23 60.9002 1070.09 60.3112 1069.89 59.7579C1069.73 59.1867 1069.54 58.6334 1069.34 58.0801C1069.18 57.6518 1069.04 57.2234 1068.86 56.795C1068.75 56.5095 1068.63 56.2239 1068.52 55.9561C1068.16 55.0994 1067.77 54.2605 1067.36 53.4395C1067.2 53.0825 1067 52.7434 1066.82 52.4043C1066.52 51.8331 1066.2 51.2977 1065.88 50.7444C1065.72 50.4588 1065.56 50.1911 1065.38 49.9233C1065.22 49.6199 1065.02 49.3522 1064.84 49.0845C1064.68 48.8524 1064.54 48.6382 1064.38 48.4241C1064.09 47.9957 1063.79 47.5673 1063.47 47.139C1063.09 46.6035 1062.68 46.0859 1062.24 45.5683C1061.86 45.1221 1061.47 44.6759 1061.09 44.2297C1060.99 44.1047 1060.86 43.9976 1060.77 43.8727C1060.38 43.4443 1059.97 43.016 1059.56 42.6233C1059.1 42.1592 1058.61 41.6952 1058.13 41.2668C1057.7 40.8384 1057.24 40.4458 1056.78 40.1066C1056.69 39.9996 1056.6 39.9282 1056.47 39.8568C1056.01 39.4641 1055.53 39.0893 1055.04 38.7502C1054.54 38.3932 1054.04 38.0184 1053.54 37.6792C1053.47 37.6257 1053.4 37.5722 1053.33 37.5186C1053.03 37.3044 1052.71 37.0902 1052.37 36.8939C1051.99 36.6619 1051.62 36.4298 1051.24 36.1978C1051.24 36.1978 1051.21 36.1621 1051.17 36.1621C1050.64 35.8587 1050.1 35.5553 1049.55 35.2697C1049.51 35.234 1049.46 35.234 1049.42 35.1983C1048.94 34.9484 1048.46 34.6985 1047.96 34.4844C1047.65 34.3237 1047.33 34.1809 1046.99 34.056C1045.96 33.5741 1044.91 33.1636 1043.82 32.8066C1043.32 32.6281 1042.8 32.4496 1042.28 32.3068C1041.66 32.1105 1041.03 31.9499 1040.39 31.7892C1039.82 31.6286 1039.23 31.4858 1038.62 31.3787C1038.23 31.2895 1037.84 31.2181 1037.43 31.1645C1037.12 31.0931 1036.8 31.0396 1036.46 31.0039C1035.8 30.8968 1035.13 30.8254 1034.45 30.754C1034.18 30.7183 1033.91 30.7005 1033.64 30.6826C1033.98 30.6826 1034.32 30.7183 1034.64 30.754C1034.75 30.754 1034.86 30.7897 1034.95 30.7897C1035.59 30.8611 1036.25 30.9503 1036.87 31.0217C1037.62 31.1288 1038.34 31.2538 1039.07 31.3966C1041.23 31.8249 1043.35 32.3961 1045.39 33.11C1046.08 33.342 1046.74 33.6098 1047.42 33.8775C1048.08 34.1452 1048.74 34.4308 1049.39 34.7342C1049.94 34.9841 1050.47 35.2518 1051.01 35.5196C1051.12 35.5731 1051.21 35.6267 1051.31 35.6802C1051.94 36.0193 1052.58 36.3585 1053.19 36.7154C1053.76 37.0367 1054.29 37.3758 1054.85 37.7149C1054.9 37.7506 1054.95 37.8042 1055.01 37.822C1055.56 38.179 1056.11 38.5538 1056.65 38.9286C1056.69 38.9643 1056.72 39 1056.76 39.0179C1057.2 39.3392 1057.65 39.6783 1058.08 40.0174C1058.19 40.0888 1058.29 40.178 1058.38 40.2494C1058.54 40.3744 1058.72 40.5172 1058.88 40.66C1059.29 40.9812 1059.7 41.3203 1060.08 41.6595C1060.51 42.0164 1060.92 42.3734 1061.31 42.7661C1061.43 42.8732 1061.56 42.9981 1061.68 43.123C1061.81 43.2301 1061.95 43.3551 1062.08 43.4979C1062.34 43.7477 1062.59 43.9976 1062.84 44.2654C1064 45.4434 1065.07 46.6749 1066.09 47.96C1066.48 48.4598 1066.86 48.9595 1067.23 49.4593C1067.43 49.7449 1067.63 50.0304 1067.82 50.2982C1068.64 51.494 1069.39 52.7256 1070.11 53.9928C1070.27 54.2962 1070.45 54.6175 1070.61 54.9388C1072.13 57.8302 1073.36 60.9002 1074.23 64.0951C1074.32 64.3985 1074.39 64.7198 1074.46 65.0232C1074.57 65.3802 1074.64 65.7193 1074.71 66.0941C1075.12 67.8968 1075.41 69.7174 1075.61 71.6093C1075.64 71.9663 1075.68 72.3233 1075.71 72.6802C1075.8 73.8047 1075.84 74.947 1075.84 76.0893H1075.93Z" fill="url(#paint7_linear_3822_2169)"/>
<path d="M1071.7 71.8763V76.1064C1071.7 53.2959 1053.15 34.7513 1030.34 34.7513H45.9947C23.1843 34.7513 4.63965 53.2959 4.63965 76.1064V71.8763C4.63965 69.5203 4.83598 67.2357 5.22865 64.9867C5.2822 64.5048 5.38929 64.0229 5.47853 63.5589C5.47853 63.5232 5.47853 63.5053 5.47853 63.4518C5.60347 62.8271 5.76411 62.1845 5.92474 61.5598C5.92474 61.5241 5.92474 61.5063 5.92474 61.4706C6.08538 60.8994 6.22817 60.3104 6.4245 59.7571C6.58514 59.186 6.78147 58.6327 6.97781 58.0794C7.13844 57.651 7.28123 57.2226 7.45972 56.7943C7.56681 56.5087 7.69175 56.2231 7.79884 55.9554C8.15581 55.0987 8.54848 54.2598 8.95899 53.4387C9.11963 53.0818 9.31597 52.7426 9.49445 52.4035C9.79788 51.8324 10.1191 51.2969 10.4404 50.7436C10.6011 50.458 10.7617 50.1903 10.9402 49.9226C11.1008 49.6191 11.2972 49.3514 11.4756 49.0837C11.6184 48.8517 11.7791 48.6375 11.9397 48.4233C12.2253 47.9949 12.5287 47.5666 12.85 47.1382C13.2426 46.6027 13.6532 46.0851 14.0815 45.5675C14.4563 45.1213 14.849 44.6751 15.2238 44.2289C15.3309 44.104 15.4559 43.9969 15.5451 43.8719C15.9378 43.4436 16.3483 43.033 16.7588 42.6225C17.2229 42.1585 17.7048 41.6944 18.1867 41.266C18.6151 40.8555 19.0791 40.4807 19.5432 40.1059C19.6324 39.9988 19.7217 39.9274 19.8466 39.856C20.3107 39.4812 20.7747 39.1064 21.2745 38.7494C21.7742 38.3924 22.274 38.0176 22.7738 37.6785C22.8452 37.6249 22.9166 37.5714 22.9879 37.5178C23.2914 37.3037 23.6126 37.0895 23.9518 36.8931C24.3266 36.6611 24.7014 36.4291 25.0762 36.197C25.0762 36.197 25.1119 36.1614 25.1476 36.1614C25.6831 35.8579 26.2185 35.5545 26.7718 35.2689C26.8075 35.2332 26.8611 35.2332 26.8968 35.1975C27.3787 34.9476 27.8606 34.6978 28.3604 34.4836C28.6638 34.323 28.9851 34.1802 29.3242 34.0552C30.3594 33.5733 31.4125 33.1628 32.5012 32.8058C33.001 32.6273 33.5186 32.4489 34.0362 32.3061C34.6609 32.1276 35.2856 31.9491 35.9281 31.7885C36.4993 31.6278 37.0883 31.485 37.6951 31.3779C38.0878 31.2887 38.4805 31.2173 38.891 31.1638C39.1944 31.0924 39.5157 31.0388 39.8548 31.0031C40.5152 30.896 41.1935 30.8246 41.8717 30.7532C42.1394 30.7175 42.4072 30.6997 42.6749 30.6819C43.0854 30.6462 43.4959 30.6105 43.9064 30.5926C44.6025 30.5569 45.3165 30.5391 46.0304 30.5391H1030.38C1031.09 30.5391 1031.81 30.5391 1032.5 30.5926C1032.91 30.5926 1033.32 30.6283 1033.73 30.6819C1034 30.6819 1034.27 30.7175 1034.54 30.7532C1035.21 30.8246 1035.89 30.9139 1036.55 31.0031C1036.87 31.0388 1037.2 31.1102 1037.52 31.1638C1037.93 31.2173 1038.32 31.2887 1038.71 31.3779C1039.32 31.485 1039.91 31.6278 1040.48 31.7885C1041.1 31.9491 1041.75 32.1276 1042.37 32.3061C1042.89 32.4667 1043.41 32.6273 1043.91 32.8058C1045 33.1628 1046.07 33.5733 1047.08 34.0552C1047.4 34.1802 1047.73 34.3408 1048.05 34.4836C1048.55 34.7156 1049.03 34.9476 1049.51 35.1975C1049.55 35.2332 1049.6 35.2332 1049.64 35.2689C1050.19 35.5724 1050.72 35.8579 1051.26 36.1614C1051.3 36.1614 1051.31 36.197 1051.33 36.197C1051.71 36.4291 1052.1 36.6433 1052.46 36.8931C1052.78 37.0895 1053.1 37.3037 1053.42 37.5178C1053.49 37.5535 1053.56 37.6249 1053.63 37.6785C1054.13 38.0176 1054.65 38.3746 1055.13 38.7494C1055.62 39.1242 1056.1 39.4812 1056.56 39.856C1056.67 39.9274 1056.78 40.0166 1056.86 40.1059C1057.33 40.4807 1057.77 40.8734 1058.22 41.266C1058.72 41.6944 1059.18 42.1585 1059.65 42.6225C1060.06 43.033 1060.47 43.4614 1060.86 43.8719C1060.97 43.979 1061.08 44.104 1061.18 44.2289C1061.56 44.6573 1061.95 45.1213 1062.33 45.5675C1062.75 46.0673 1063.17 46.6027 1063.56 47.1382C1063.88 47.5666 1064.18 47.9771 1064.47 48.4233C1064.63 48.6375 1064.79 48.8517 1064.93 49.0837C1065.11 49.3514 1065.29 49.637 1065.47 49.9226C1065.65 50.1903 1065.82 50.458 1065.97 50.7436C1066.29 51.2969 1066.61 51.8324 1066.91 52.4035C1067.09 52.7426 1067.27 53.0996 1067.45 53.4387C1067.86 54.2598 1068.25 55.0987 1068.61 55.9554C1068.72 56.2231 1068.84 56.5087 1068.95 56.7943C1069.11 57.2226 1069.27 57.6331 1069.43 58.0794C1069.63 58.6327 1069.8 59.186 1069.98 59.7571C1070.16 60.3283 1070.32 60.8994 1070.48 61.4706C1070.48 61.5063 1070.48 61.5241 1070.48 61.5598C1070.64 62.1845 1070.8 62.8271 1070.93 63.4518C1070.93 63.4875 1070.93 63.5232 1070.93 63.5589C1071.04 64.0408 1071.13 64.5227 1071.18 64.9867C1071.57 67.2178 1071.77 69.5203 1071.77 71.8763H1071.7Z" fill="url(#paint8_linear_3822_2169)"/>
<path d="M1071.7 805.987V810.217C1071.7 812.538 1071.5 814.822 1071.13 817.036C1071.06 817.535 1070.97 818.053 1070.86 818.535C1070.72 819.213 1070.57 819.891 1070.4 820.534C1070.23 821.141 1070.07 821.748 1069.9 822.337C1069.72 822.926 1069.54 823.515 1069.32 824.086C1069.2 824.443 1069.07 824.782 1068.93 825.121C1068.81 825.46 1068.68 825.799 1068.54 826.138C1068.18 826.995 1067.79 827.834 1067.38 828.637C1067.22 828.994 1067.02 829.333 1066.84 829.672C1066.54 830.243 1066.22 830.779 1065.9 831.332C1065.74 831.618 1065.58 831.886 1065.4 832.153C1065.24 832.439 1065.04 832.724 1064.86 832.992C1064.72 833.224 1064.56 833.438 1064.4 833.653C1064.11 834.081 1063.81 834.509 1063.49 834.938C1063.1 835.473 1062.69 835.991 1062.26 836.508C1061.88 836.955 1061.49 837.401 1061.11 837.847C1061.01 837.972 1060.88 838.079 1060.79 838.204C1060.4 838.632 1059.99 839.043 1059.58 839.453C1059.2 839.828 1058.81 840.221 1058.4 840.596C1058.24 840.756 1058.08 840.899 1057.9 841.042C1057.56 841.345 1057.21 841.649 1056.87 841.934C1056.76 842.041 1056.63 842.131 1056.51 842.238C1056.05 842.613 1055.58 843.005 1055.08 843.344C1054.71 843.648 1054.31 843.915 1053.9 844.201C1053.62 844.397 1053.33 844.594 1053.06 844.772C1052.58 845.076 1052.1 845.397 1051.58 845.7C1051.23 845.932 1050.85 846.129 1050.48 846.325C1050.3 846.432 1050.1 846.557 1049.91 846.646C1049.55 846.843 1049.17 847.021 1048.82 847.217C1048.33 847.467 1047.84 847.717 1047.32 847.914C1046.96 848.074 1046.59 848.253 1046.23 848.413C1045.41 848.752 1044.59 849.056 1043.73 849.359C1043.28 849.52 1042.84 849.663 1042.37 849.788C1041.84 849.948 1041.28 850.109 1040.71 850.252C1040.05 850.412 1039.39 850.573 1038.71 850.716C1038.32 850.805 1037.93 850.876 1037.52 850.93C1037.22 851.001 1036.89 851.055 1036.55 851.091C1035.89 851.198 1035.22 851.269 1034.54 851.34C1034.36 851.34 1034.18 851.376 1033.98 851.394C1033.48 851.43 1033 851.465 1032.5 851.501C1032.18 851.501 1031.88 851.537 1031.54 851.537C1031.15 851.537 1030.77 851.537 1030.38 851.537H45.9965C45.6038 851.537 45.229 851.537 44.8363 851.537C44.5151 851.537 44.2116 851.501 43.8725 851.501C43.3728 851.465 42.8909 851.448 42.3911 851.394C42.2126 851.394 42.0341 851.358 41.8378 851.34C41.1595 851.269 40.4813 851.18 39.8209 851.091C39.4996 851.055 39.1784 850.983 38.8571 850.93C38.4466 850.876 38.0539 850.805 37.6612 850.716C37.6255 850.716 37.6255 850.716 37.5898 850.716C37.1079 850.609 36.626 850.519 36.162 850.394C36.0013 850.359 35.8228 850.305 35.6622 850.27C35.5908 850.27 35.5373 850.234 35.4659 850.216C34.9661 850.109 34.4842 849.966 34.0023 849.805C33.5382 849.663 33.092 849.52 32.6458 849.377C32.5923 849.377 32.5387 849.341 32.4852 849.324C32.2353 849.234 31.9854 849.163 31.7355 849.056C31.325 848.913 30.9323 848.752 30.5397 848.61C30.3969 848.556 30.2719 848.502 30.1292 848.449C29.7722 848.288 29.3974 848.128 29.0404 847.949C28.5406 847.735 28.023 847.503 27.5411 847.253C27.1841 847.092 26.8093 846.896 26.4524 846.682C26.256 846.575 26.0597 846.468 25.8812 846.361C25.5242 846.182 25.1851 845.986 24.846 845.79C24.8103 845.754 24.7924 845.754 24.7567 845.736C24.257 845.433 23.7572 845.111 23.2753 844.808C22.9897 844.629 22.7042 844.433 22.4364 844.237C22.4007 844.201 22.3472 844.183 22.3293 844.147C21.9724 843.898 21.5975 843.648 21.2584 843.38C20.7587 843.023 20.2946 842.648 19.8305 842.273C19.7056 842.166 19.5985 842.077 19.4736 841.97C19.1166 841.667 18.7775 841.381 18.4384 841.078C18.2599 840.935 18.0814 840.774 17.9386 840.631C17.9029 840.596 17.8851 840.578 17.8494 840.56C17.4745 840.203 17.0997 839.846 16.7427 839.489C16.3858 839.132 16.011 838.739 15.654 838.365C15.6183 838.329 15.5826 838.275 15.5469 838.24C15.4398 838.133 15.3327 838.008 15.2256 837.883C15.1899 837.829 15.1185 837.776 15.0828 837.722C14.7437 837.347 14.4224 836.955 14.0833 836.562C13.6549 836.062 13.2444 835.527 12.8518 834.991C12.5305 834.563 12.2271 834.152 11.9415 833.706C11.7809 833.492 11.6202 833.278 11.4774 833.046C11.2989 832.76 11.1026 832.475 10.942 832.207C10.7635 831.939 10.585 831.671 10.4422 831.386C10.1209 830.832 9.79966 830.297 9.49624 829.726C9.31775 829.369 9.13927 829.03 8.96078 828.691C8.55027 827.87 8.17545 827.049 7.80063 826.192C7.80063 826.156 7.80063 826.156 7.76493 826.12C7.63999 825.817 7.51505 825.496 7.40796 825.174C7.40796 825.139 7.37226 825.103 7.37226 825.067C7.24732 824.782 7.14023 824.496 7.05099 824.211C7.05099 824.175 7.05099 824.175 7.01529 824.139C6.80111 823.568 6.62262 822.979 6.44414 822.39C6.26565 821.801 6.08717 821.194 5.94438 820.587C5.89083 820.409 5.83729 820.23 5.80159 820.034C5.6945 819.606 5.58741 819.177 5.49817 818.731C5.49817 818.678 5.49817 818.624 5.46247 818.571C5.42677 818.428 5.40892 818.285 5.37323 818.142C5.31968 817.839 5.26614 817.553 5.21259 817.25C5.21259 817.178 5.21259 817.125 5.17689 817.053C5.08765 816.571 5.01626 816.09 4.94486 815.608C4.94486 815.447 4.90916 815.269 4.89132 815.09C4.83777 814.733 4.80207 814.358 4.76638 814.001C4.73068 813.573 4.69498 813.145 4.67713 812.698C4.62359 811.895 4.58789 811.074 4.58789 810.253V806.023C4.58789 828.833 23.1325 847.378 45.943 847.378H1030.29C1053.1 847.378 1071.64 828.833 1071.64 806.023L1071.7 805.987Z" fill="url(#paint9_linear_3822_2169)"/>
</g>
<defs>
<filter id="filter0_d_3822_2169" x="0" y="0" width="1090.64" height="868.064" filterUnits="userSpaceOnUse" color-interpolation-filters="sRGB">
<feFlood flood-opacity="0" result="BackgroundImageFix"/>
<feColorMatrix in="SourceAlpha" type="matrix" values="0 0 0 0 0 0 0 0 0 0 0 0 0 0 0 0 0 0 127 0" result="hardAlpha"/>
<feOffset dx="7.13941" dy="8.92427"/>
<feGaussianBlur stdDeviation="3.56971"/>
<feComposite in2="hardAlpha" operator="out"/>
<feColorMatrix type="matrix" values="0 0 0 0 0 0 0 0 0 0 0 0 0 0 0 0 0 0 0.25 0"/>
<feBlend mode="normal" in2="BackgroundImageFix" result="effect1_dropShadow_3822_2169"/>
<feBlend mode="normal" in="SourceGraphic" in2="effect1_dropShadow_3822_2169" result="shape"/>
</filter>
<linearGradient id="paint0_linear_3822_2169" x1="218.965" y1="24.4703" x2="237.367" y2="6.05064" gradientUnits="userSpaceOnUse">
<stop stop-color="#808080"/>
<stop offset="0.28" stop-color="#BABABA"/>
<stop offset="0.37" stop-color="#CECECE"/>
<stop offset="0.5" stop-color="#E9E9E9"/>
<stop offset="0.61" stop-color="#F9F9F9"/>
<stop offset="0.7" stop-color="white"/>
<stop offset="0.83" stop-color="#FBFBFB"/>
<stop offset="0.93" stop-color="#F2F2F2"/>
<stop offset="1" stop-color="#E5E5E5"/>
</linearGradient>
<linearGradient id="paint1_linear_3822_2169" x1="527.833" y1="30.521" x2="527.833" y2="0" gradientUnits="userSpaceOnUse">
<stop stop-color="#808080"/>
<stop offset="0.28" stop-color="#BABABA"/>
<stop offset="0.37" stop-color="#CECECE"/>
<stop offset="0.5" stop-color="#E9E9E9"/>
<stop offset="0.61" stop-color="#F9F9F9"/>
<stop offset="0.7" stop-color="white"/>
<stop offset="0.83" stop-color="#FBFBFB"/>
<stop offset="0.93" stop-color="#F2F2F2"/>
<stop offset="1" stop-color="#E5E5E5"/>
</linearGradient>
<linearGradient id="paint2_linear_3822_2169" x1="841.541" y1="24.6669" x2="841.541" y2="5.85449" gradientUnits="userSpaceOnUse">
<stop stop-color="#808080"/>
<stop offset="0.28" stop-color="#BABABA"/>
<stop offset="0.37" stop-color="#CECECE"/>
<stop offset="0.5" stop-color="#E9E9E9"/>
<stop offset="0.61" stop-color="#F9F9F9"/>
<stop offset="0.7" stop-color="white"/>
<stop offset="0.83" stop-color="#FBFBFB"/>
<stop offset="0.93" stop-color="#F2F2F2"/>
<stop offset="1" stop-color="#E5E5E5"/>
</linearGradient>
<linearGradient id="paint3_linear_3822_2169" x1="824.941" y1="24.8995" x2="824.941" y2="5.62305" gradientUnits="userSpaceOnUse">
<stop stop-color="#808080"/>
<stop offset="0.03" stop-color="#898989"/>
<stop offset="0.12" stop-color="#9E9E9E"/>
<stop offset="0.22" stop-color="#AEAEAE"/>
<stop offset="0.33" stop-color="#B7B7B7"/>
<stop offset="0.49" stop-color="#BABABA"/>
<stop offset="0.67" stop-color="#B7B7B7"/>
<stop offset="0.8" stop-color="#ADADAD"/>
<stop offset="0.92" stop-color="#9D9D9D"/>
<stop offset="1" stop-color="#8D8D8D"/>
</linearGradient>
<linearGradient id="paint4_linear_3822_2169" x1="101.772" y1="4.64335" x2="974.583" y2="877.455" gradientUnits="userSpaceOnUse">
<stop stop-color="#F2F3F4"/>
<stop offset="0.48" stop-color="#EDEEEE"/>
<stop offset="1" stop-color="#E2E2E2"/>
</linearGradient>
<linearGradient id="paint5_linear_3822_2169" x1="101.273" y1="4.14269" x2="975.084" y2="877.954" gradientUnits="userSpaceOnUse">
<stop stop-color="#F2F3F4"/>
<stop offset="0.48" stop-color="#EDEEEE"/>
<stop offset="1" stop-color="#E2E2E2"/>
</linearGradient>
<linearGradient id="paint6_linear_3822_2169" x1="0.428981" y1="441.092" x2="43.8902" y2="441.092" gradientUnits="userSpaceOnUse">
<stop stop-color="#F1F1F1"/>
<stop offset="0.06" stop-color="#DCDCDC"/>
<stop offset="0.15" stop-color="#C6C6C6"/>
<stop offset="0.25" stop-color="#B5B5B5"/>
<stop offset="0.37" stop-color="#A9A9A9"/>
<stop offset="0.54" stop-color="#A2A2A2"/>
<stop offset="1" stop-color="#A1A1A1"/>
</linearGradient>
<linearGradient id="paint7_linear_3822_2169" x1="1033.7" y1="441.038" x2="1075.93" y2="441.038" gradientUnits="userSpaceOnUse">
<stop stop-color="#A1A1A1"/>
<stop offset="0.46" stop-color="#A2A2A2"/>
<stop offset="0.63" stop-color="#A9A9A9"/>
<stop offset="0.75" stop-color="#B5B5B5"/>
<stop offset="0.85" stop-color="#C6C6C6"/>
<stop offset="0.94" stop-color="#DCDCDC"/>
<stop offset="1" stop-color="#F1F1F1"/>
</linearGradient>
<linearGradient id="paint8_linear_3822_2169" x1="4.6575" y1="53.3138" x2="1071.71" y2="53.3138" gradientUnits="userSpaceOnUse">
<stop stop-color="#C9C9C9"/>
<stop offset="0.48" stop-color="#F1F1F1"/>
<stop offset="0.64" stop-color="#ECECEC"/>
<stop offset="0.82" stop-color="#DEDEDE"/>
<stop offset="1" stop-color="#C9C9C9"/>
</linearGradient>
<linearGradient id="paint9_linear_3822_2169" x1="1271.19" y1="828.78" x2="1272.98" y2="828.78" gradientUnits="userSpaceOnUse">
<stop stop-color="#C9C9C9"/>
<stop offset="0.48" stop-color="#F1F1F1"/>
<stop offset="0.64" stop-color="#ECECEC"/>
<stop offset="0.82" stop-color="#DEDEDE"/>
<stop offset="1" stop-color="#C9C9C9"/>
</linearGradient>
</defs>
</svg>
