<svg width="104" height="107" viewBox="0 0 104 107" fill="none" xmlns="http://www.w3.org/2000/svg">
<path d="M95.66 29.8737C97.2412 44.3749 99.9783 73.8457 98.2771 77.7275C81.2658 105.335 44.4626 99.8139 38.5741 98.1407C33.8632 96.8021 31.1589 92.0056 30.3956 89.7746L12.8936 50.9562C30.3956 54.9719 69.4888 49.7849 95.66 29.8737ZM95.66 29.8737V29.0371" stroke="white" stroke-opacity="0.36" stroke-width="1.12866"/>
<path d="M48.2998 16.5755C60.0857 13.6771 71.062 12.4473 79.2724 12.7911C83.3813 12.9631 86.7643 13.5281 89.2019 14.4541C91.6598 15.3879 93.0209 16.6325 93.3602 18.0754C93.6994 19.5184 93.0402 21.2607 91.2656 23.2354C89.5058 25.1936 86.7435 27.2698 83.1602 29.3336C75.9997 33.4573 65.6764 37.4655 53.8905 40.3639C42.1046 43.2623 31.1284 44.4921 22.918 44.1483C18.8091 43.9763 15.4261 43.4113 12.9885 42.4853C10.5304 41.5515 9.16907 40.3062 8.82992 38.8631C8.49095 37.4201 9.15031 35.6786 10.9247 33.7041C12.6845 31.7458 15.4468 29.6696 19.0302 27.6059C26.1907 23.4821 36.5139 19.4739 48.2998 16.5755Z" stroke="white" stroke-opacity="0.36" stroke-width="1.12866"/>
<path d="M48.0396 12.5222C60.9617 9.34443 73.0675 8.30491 82.1853 9.17828C86.7469 9.61527 90.529 10.5281 93.2849 11.8679C96.0451 13.2098 97.6992 14.9391 98.1778 16.9758C98.6563 19.0123 97.9513 21.3211 96.0891 23.7996C94.2297 26.2744 91.2665 28.846 87.3975 31.3563C79.6641 36.3737 68.4193 41.0765 55.4973 44.2543C42.575 47.4322 30.4685 48.472 21.3507 47.5985C16.7892 47.1615 13.0078 46.2484 10.252 44.9087C7.49192 43.5668 5.83805 41.8382 5.35931 39.8017C4.88066 37.7651 5.58551 35.4556 7.44783 32.9769C9.30716 30.5023 12.2696 27.9307 16.1385 25.4205C23.8718 20.403 35.1174 15.7001 48.0396 12.5222Z" stroke="white" stroke-opacity="0.36" stroke-width="1.12866"/>
<path d="M5.42217 43.9439L5.41647 43.9282C3.64563 38.0207 7.2162 31.9682 14.6964 26.4373C22.1419 20.9322 33.271 16.1047 46.0709 12.6851C59.2002 9.45722 71.9863 8.64702 81.7621 9.88218C86.6532 10.5002 90.7611 11.6264 93.7757 13.1957C96.7961 14.7681 98.6451 16.7437 99.1822 19.0291C99.722 21.3265 99.0295 23.8792 97.1776 26.5693C95.3255 29.2594 92.3491 32.0309 88.4478 34.7146C80.6487 40.0795 69.2555 45.0256 56.118 48.2563C42.9672 51.4903 30.7775 52.8091 21.606 52.0815C17.018 51.7176 13.2213 50.8438 10.4432 49.4688C7.66996 48.0962 5.96514 46.254 5.42619 43.961L5.42217 43.9439Z" stroke="white" stroke-opacity="0.36" stroke-width="1.12866"/>
<path d="M47.6414 12.8177C60.6454 9.61977 72.8461 8.65102 82.0502 9.65443C86.6546 10.1564 90.4778 11.1492 93.2712 12.5786C96.0665 14.0092 97.7641 15.8398 98.271 17.9961C98.7768 20.1486 98.0545 22.5946 96.1549 25.2118C94.2582 27.8251 91.2347 30.54 87.2985 33.1811C79.4306 38.4603 68.0182 43.3749 55.0166 46.5723C42.0148 49.7697 29.9313 50.6332 20.8444 49.5255C16.2987 48.9714 12.5326 47.9273 9.78175 46.4598C7.02965 44.9915 5.35385 43.1342 4.84554 40.9714C4.33883 38.815 5.03743 36.3951 6.89169 33.8211C8.74464 31.249 11.7089 28.5871 15.5871 25.9991C23.3395 20.8257 34.6374 16.0157 47.6414 12.8177Z" stroke="white" stroke-opacity="0.36" stroke-width="1.12866"/>
<path d="M61.7128 69.8536C70.9475 67.3103 79.7172 66.5938 86.4205 67.4722C89.7734 67.9116 92.5812 68.7463 94.6673 69.9273C96.7504 71.1066 98.0766 72.6082 98.5645 74.3794C99.0524 76.1508 98.6822 78.1203 97.4965 80.2C96.3092 82.2825 94.3247 84.4371 91.6696 86.5311C86.3612 90.7177 78.4612 94.5923 69.2266 97.1356C59.9921 99.6789 51.2222 100.395 44.5189 99.517C41.1661 99.0776 38.3582 98.2428 36.2721 97.0619C34.1887 95.8825 32.8615 94.3805 32.3737 92.6091C31.886 90.8378 32.2572 88.8688 33.4429 86.7891C34.6302 84.7067 36.6147 82.5521 39.2698 80.458C44.5782 76.2715 52.4783 72.3968 61.7128 69.8536Z" stroke="white" stroke-opacity="0.36" stroke-width="1.12866"/>
</svg>
