<svg width="177" height="152" viewBox="0 0 177 152" fill="none" xmlns="http://www.w3.org/2000/svg">
<path d="M16.6583 88.4115C13.9483 86.6693 14.3688 82.5858 17.377 81.4325L105.744 47.5586C106.561 47.2455 107.459 47.2133 108.296 47.468L155.469 61.8255C158.935 62.8803 159.251 67.6641 155.954 69.1658L58.8542 113.394C57.6378 113.948 56.2232 113.845 55.0987 113.123L16.6583 88.4115Z" stroke="white" stroke-opacity="0.36" stroke-width="1.31063"/>
<path d="M13.0811 90.1827C10.3988 88.4378 10.8136 84.3905 13.7937 83.225L107.033 46.7596C107.863 46.4348 108.78 46.4017 109.632 46.6666L160.096 62.3543C163.517 63.4181 163.849 68.1309 160.61 69.6634L58.9248 117.773C57.6912 118.357 56.2426 118.259 55.0987 117.515L13.0811 90.1827Z" stroke="white" stroke-opacity="0.36" stroke-width="1.31063"/>
<path d="M7.86825 90.6017C5.18803 88.833 5.64346 84.7708 8.64891 83.6398L108.044 46.2348C108.856 45.9295 109.745 45.9008 110.575 46.1535L164.831 62.6909C168.273 63.7399 168.615 68.4784 165.358 70.0099L57.1848 120.89C55.9445 121.473 54.4898 121.368 53.3458 120.613L7.86825 90.6017Z" stroke="white" stroke-opacity="0.36" stroke-width="1.31063"/>
<path d="M5.57008 89.3054L6.38922 93.5649M6.38922 93.5649L14.5806 100.032M6.38922 93.5649L7.86368 94.5479L6.88071 90.4522L11.7956 89.3054L14.5806 86.3564M48.4931 124.692L15.7274 100.937L14.5806 100.032M48.4931 124.692C49.1876 125.141 50.2891 125.595 51.7697 125.902M48.4931 124.692L47.8378 119.286L51.7697 115.846M166.664 74.397C166.344 74.6542 166.041 74.8795 165.794 75.0523C164.054 75.9187 162.182 76.8507 160.201 77.8374M166.664 74.397C167.762 73.516 169.071 72.2596 169.071 71.4481C169.071 70.3996 168.525 67.68 168.415 66.5332L167.76 68.9906V72.9225L166.664 74.397ZM163.337 76.0353V78.4927M163.337 76.0353L163.501 71.4481L160.716 70.3013L157.93 71.2842L157.439 68.9906L160.201 66.3694M163.337 76.0353L166.664 74.2331L166.286 70.1374L162.354 68.9906M71.5929 143.696C98.57 129.334 153.343 100.249 156.62 98.8074C158.513 97.9743 159.696 96.8457 160.388 95.8517M71.5929 143.696C71.5331 143.725 71.4713 143.754 71.4078 143.783M71.5929 143.696L69.627 123.382M14.5806 100.032L18.8599 112.405M51.7697 125.902C54.1725 127.322 61.239 129.738 68.9717 126.331C76.7044 122.923 133.902 94.111 161.535 80.131L163.337 78.4927M51.7697 125.902L52.425 126.358M51.7697 125.902C52.7523 126.106 53.9018 126.244 55.2101 126.272M51.7697 125.902L50.7867 120.597L53.5718 116.992L54.7186 113.552M163.337 78.4927V78.165C162.19 91.599 160.894 95.1256 160.388 95.8517M162.19 76.8544L160.388 95.8517M158.586 97.4968L160.201 77.8374M160.201 77.8374C132.712 91.527 84.1066 115.753 72.2482 121.743C70.1031 122.827 68.0801 123.677 66.1866 124.334M160.716 93.0734L71.5929 139.928M71.5929 139.928L71.4078 143.783M71.5929 139.928L66.9368 141.567M71.4078 143.783C70.4273 144.231 69.0115 144.7 67.3334 144.991M67.3334 144.991C64.2557 145.527 60.2957 145.467 56.5207 143.597M67.3334 144.991L66.9368 141.567M56.5207 143.597C55.9137 143.296 55.3116 142.949 54.7186 142.55C48.2965 138.225 28.7791 122.508 19.8231 115.19L18.8599 112.405M56.5207 143.597L55.7269 140.256M52.425 126.358L56.0292 126.658L58.9918 141.894M52.425 126.358L55.7269 140.256M66.9368 141.567L65.0398 125.184L60.1249 126.331L62.8577 141.894M62.8577 141.894L63.4015 144.991L59.4696 144.352L58.9918 141.894M62.8577 141.894L66.6781 141.567L58.9918 141.894M58.9918 141.894L55.7269 140.256M55.7269 140.256L18.8599 112.405M69.9546 122.726L69.4631 117.484L67.1696 115.19L66.3504 110.767L62.7462 112.405L63.5653 116.337L65.3674 119.286L66.1866 124.334M66.1866 124.334C63.5884 125.234 61.234 125.77 59.142 126.044M63.0738 125.184L62.4185 120.269L61.4356 117.32L60.1249 117.484M60.1249 117.484L59.4696 113.716M60.1249 117.484L58.4866 118.467L58.3228 120.924L59.142 125.675V126.044M59.142 126.044C57.7056 126.232 56.393 126.297 55.2101 126.272M55.2101 126.272L54.5548 120.924L55.7016 118.303L56.6845 114.207M162.354 68.9906L160.201 66.3694M162.354 68.9906L163.337 67.1885H168.088L167.596 68.3353L163.009 68.0077M160.201 66.3694L161.043 64.5673M166.45 64.0758L168.088 66.2056L163.501 66.3694L161.043 64.5673M166.45 64.0758L163.501 65.2226L162.845 63.7481L163.828 63.2566L166.45 64.0758ZM166.45 64.0758L161.862 62.4375H161.371L161.043 64.5673M5.40625 89.633L14.0892 85.7011L10.6488 86.3564L5.89774 87.3394L6.38922 85.3735L10.9764 85.7011L14.0892 85.5373M14.0892 85.5373L8.68282 83.4075L12.7785 81.7693L14.5806 83.0799L14.0892 85.5373Z" stroke="white" stroke-opacity="0.36" stroke-width="1.31063"/>
</svg>
