<svg width="80" height="82" viewBox="0 0 80 82" fill="none" xmlns="http://www.w3.org/2000/svg">
<path d="M73.2979 22.891C74.5094 34.0023 76.6067 56.5839 75.3032 59.5583C62.2686 80.7124 34.0687 76.4816 29.5567 75.1995C25.9471 74.1739 23.8749 70.4986 23.29 68.7892L9.87939 39.0451C23.29 42.1221 53.2446 38.1477 73.2979 22.891ZM73.2979 22.891V22.25" stroke="white" stroke-opacity="0.36" stroke-width="1.12866"/>
<path d="M37.0389 12.8298C46.0611 10.611 54.4585 9.67125 60.7341 9.93398C63.8758 10.0655 66.4526 10.4967 68.3021 11.1993C70.1717 11.9095 71.1623 12.8406 71.4072 13.8819C71.652 14.9233 71.1835 16.2139 69.8336 17.7161C68.4985 19.2018 66.3948 20.784 63.6549 22.362C58.1818 25.5139 50.2845 28.5814 41.2623 30.8001C32.2401 33.0188 23.8427 33.9586 17.5671 33.6959C14.4255 33.5644 11.8486 33.1332 9.99917 32.4306C8.12933 31.7202 7.13856 30.7885 6.89381 29.747C6.64931 28.7057 7.11796 27.4157 8.46761 25.9138C9.80275 24.4281 11.9064 22.8458 14.6463 21.2679C20.1194 18.1159 28.0168 15.0485 37.0389 12.8298Z" stroke="white" stroke-opacity="0.36" stroke-width="1.12866"/>
<path d="M36.8403 9.72356C46.7312 7.29123 55.9918 6.49723 62.96 7.16475C66.4468 7.49878 69.3277 8.19593 71.4202 9.21322C73.5169 10.2326 74.7448 11.5322 75.0989 13.0389C75.453 14.5457 74.9368 16.2741 73.5221 18.157C72.1103 20.0361 69.8541 21.9966 66.8967 23.9154C60.9866 27.7499 52.3851 31.3486 42.4942 33.781C32.6032 36.2134 23.3419 37.0076 16.3736 36.34C12.8869 36.006 10.0059 35.3088 7.91343 34.2916C5.81677 33.2722 4.5888 31.9726 4.23469 30.4659C3.88061 28.9591 4.39688 27.2306 5.81148 25.3477C7.22326 23.4687 9.47959 21.5082 12.4369 19.5894C18.3471 15.7548 26.9493 12.156 36.8403 9.72356Z" stroke="white" stroke-opacity="0.36" stroke-width="1.12866"/>
<path d="M4.28104 33.6365L4.2763 33.6206C2.94513 29.1798 5.61703 24.594 11.3383 20.3637C17.0251 16.159 25.5354 12.4657 35.3341 9.84791C45.3807 7.37832 55.1604 6.7594 62.6315 7.7034C66.3704 8.17583 69.5013 9.03625 71.7927 10.2291C74.0899 11.425 75.4691 12.9138 75.8684 14.6128C76.2704 16.3239 75.759 18.241 74.3524 20.2842C72.9458 22.3272 70.6795 24.4401 67.698 26.4911C61.7384 30.5907 53.0244 34.3745 42.9695 36.8472C32.9012 39.3232 23.5764 40.3311 16.5674 39.7751C13.0605 39.4969 10.1692 38.8297 8.06102 37.7863C5.9578 36.7453 4.6862 35.3602 4.28507 33.6536L4.28104 33.6365Z" stroke="white" stroke-opacity="0.36" stroke-width="1.12866"/>
<path d="M36.5351 9.94962C46.4882 7.50197 55.821 6.76191 62.8546 7.52869C66.3737 7.91236 69.2858 8.67019 71.4069 9.75564C73.5303 10.8423 74.7948 12.22 75.171 13.8208C75.5463 15.4176 75.0144 17.2514 73.5708 19.2403C72.13 21.2254 69.8276 23.2956 66.8189 25.3144C60.8058 29.349 52.076 33.1102 42.125 35.5573C32.1743 38.0044 22.9323 38.6628 15.9891 37.8165C12.5152 37.393 9.6467 36.5965 7.55802 35.4823C5.46793 34.3672 4.21898 32.9695 3.8412 31.3622C3.465 29.7615 3.97828 27.9465 5.38667 25.9914C6.79375 24.0382 9.05159 22.0091 12.0158 20.031C17.9402 16.0776 26.5819 12.3973 36.5351 9.94962Z" stroke="white" stroke-opacity="0.36" stroke-width="1.12866"/>
<path d="M47.321 53.6523C54.3841 51.7071 61.0859 51.1615 66.2009 51.8317C68.7596 52.167 70.893 52.8026 72.4719 53.6964C74.048 54.5886 75.0351 55.7142 75.397 57.0276C75.7587 58.3412 75.4872 59.8141 74.5901 61.3876C73.6915 62.9637 72.1842 64.6021 70.1581 66.2001C66.1075 69.3946 60.0714 72.3572 53.0083 74.3024C45.9452 76.2476 39.2434 76.7933 34.1285 76.123C31.5698 75.7877 29.4363 75.1521 27.8575 74.2583C26.2813 73.366 25.2948 72.2394 24.9331 70.9259C24.5715 69.6125 24.8423 68.1404 25.7392 66.5671C26.6378 64.991 28.1451 63.3527 30.1713 61.7547C34.2218 58.5601 40.2579 55.5976 47.321 53.6523Z" stroke="white" stroke-opacity="0.36" stroke-width="1.12866"/>
</svg>
