<svg width="142" height="72" viewBox="0 0 142 72" fill="none" xmlns="http://www.w3.org/2000/svg">
<path d="M136.239 18.2922C134.436 18.8993 131.913 19.6365 128.359 20.6866C118.452 23.6135 88.8639 24.0638 75.308 23.9231C74.0416 23.9231 69.7074 23.9231 62.5027 23.9231C35.3721 25.0488 13.1104 20.7335 5.37092 18.4351M136.239 18.2922C140.719 16.7841 140.763 14.5302 141.164 11.8213C141.305 12.9136 140.517 16.9754 136.239 18.2922ZM136.239 18.2922L121.323 68.2494C120.526 68.9999 118.537 70.5291 116.961 70.6416C115.385 70.7542 54.3879 70.6886 24.0865 70.6416C22.9138 70.3602 20.4278 69.347 19.8649 67.5458C19.3021 65.7446 9.96772 34.0548 5.37092 18.4351M5.37092 18.4351C4.85885 18.2828 4.20304 18.0122 3.54158 17.6195M3.54158 17.6195C1.96116 16.6813 0.348405 15.0464 0.586484 12.6656C0.727206 14.6357 0.867924 16.3817 3.54158 17.6195Z" stroke="white" stroke-opacity="0.36" stroke-width="1.12575"/>
<path d="M71.5088 3.37695C89.7522 3.37696 106.224 4.50102 118.126 6.18457C124.08 7.02686 128.87 8.00607 132.16 9.04785C133.809 9.57003 135.05 10.0987 135.867 10.6152C136.724 11.1569 136.942 11.5735 136.942 11.8203C136.942 12.06 136.731 12.4647 135.871 12.9834C135.052 13.4776 133.806 13.9739 132.15 14.457C128.847 15.4209 124.039 16.296 118.065 17.0332C106.126 18.5066 89.6159 19.4189 71.3682 19.4189C53.1196 19.4189 36.3616 18.541 24.1748 17.1025C18.0776 16.3828 13.1452 15.5257 9.74805 14.5742C8.04526 14.0973 6.761 13.6053 5.91406 13.1133C5.02091 12.5944 4.80762 12.191 4.80762 11.9609C4.80768 11.8487 4.85434 11.6896 5.03223 11.4756C5.21253 11.2587 5.50429 11.015 5.93066 10.7539C6.78366 10.2317 8.07596 9.69712 9.78516 9.16797C13.1954 8.11222 18.1448 7.11481 24.2578 6.25488C36.4769 4.53601 53.2662 3.37695 71.5088 3.37695Z" stroke="white" stroke-opacity="0.36" stroke-width="1.12575"/>
<path d="M71.9307 1.40723C90.546 1.40723 107.212 2.3341 119.213 3.96777C125.218 4.78524 130.029 5.7762 133.326 6.90625C134.978 7.47238 136.214 8.0623 137.027 8.65918C137.851 9.26376 138.139 9.7978 138.139 10.2432C138.139 10.687 137.842 11.2353 136.994 11.8682C136.16 12.4908 134.894 13.1154 133.209 13.7236C129.846 14.9379 124.947 16.0416 118.856 16.9717C106.684 18.8305 89.8475 19.9824 71.2373 19.9824C52.626 19.9824 35.5368 18.8745 23.1113 17.0596C16.8942 16.1515 11.8687 15.0698 8.41016 13.8711C6.67752 13.2705 5.37158 12.6518 4.50977 12.0322C3.63145 11.4008 3.33026 10.8558 3.33008 10.4209C3.33008 9.99416 3.63183 9.45752 4.53027 8.83887C5.41021 8.23297 6.74282 7.63411 8.50879 7.05859C12.0333 5.91 17.1462 4.89643 23.4512 4.05664C36.0522 2.37824 53.3166 1.40723 71.9307 1.40723Z" stroke="white" stroke-opacity="0.36" stroke-width="1.12575"/>
<path d="M74.6753 0.5625C93.2894 0.562516 109.953 1.55566 121.952 3.30566C127.956 4.18133 132.764 5.24243 136.058 6.45215C137.708 7.05814 138.945 7.6897 139.757 8.3291C140.575 8.97237 140.883 9.55606 140.883 10.0693C140.883 10.581 140.566 11.1809 139.724 11.8545C138.89 12.5216 137.624 13.1897 135.941 13.8408C132.58 15.1408 127.685 16.323 121.595 17.3193C109.425 19.3106 92.5901 20.5449 73.981 20.5449C55.3691 20.5449 37.0113 19.467 23.3159 17.6299C16.4641 16.7108 10.8025 15.6048 6.86572 14.3574C4.89343 13.7325 3.38832 13.0815 2.38721 12.4219C1.36008 11.7451 1.0083 11.1579 1.0083 10.6943C1.00841 9.97748 1.43171 9.23154 2.44678 8.46191C3.46012 7.69371 4.98432 6.96648 6.98389 6.29199C10.9771 4.94508 16.7181 3.85563 23.6567 3.00391C37.5237 1.30174 56.0554 0.5625 74.6753 0.5625Z" stroke="white" stroke-opacity="0.36" stroke-width="1.12575"/>
<path d="M74.6753 0.5625C93.2876 0.562518 109.948 1.66159 121.943 3.59766C127.945 4.56648 132.75 5.73994 136.041 7.07715C137.688 7.74667 138.923 8.44439 139.736 9.15234C140.549 9.85999 140.883 10.525 140.883 11.1436C140.883 11.7603 140.54 12.4428 139.703 13.1836C138.868 13.9224 137.603 14.6614 135.922 15.3809C132.565 16.8179 127.673 18.1252 121.585 19.2275C109.419 21.4305 92.5877 22.7969 73.981 22.7969C55.371 22.7969 37.0159 21.6029 23.3237 19.5703C16.4733 18.5534 10.8154 17.3303 6.88232 15.9512C4.91228 15.2604 3.40875 14.5417 2.40869 13.8125C1.3942 13.0727 1.0083 12.4063 1.0083 11.835C1.00845 10.9905 1.45915 10.1462 2.46924 9.29883C3.48267 8.4487 5.00481 7.6457 7.00146 6.90039C10.9904 5.41142 16.7265 4.20603 23.6636 3.26367C37.5272 1.38038 56.0564 0.5625 74.6753 0.5625Z" stroke="white" stroke-opacity="0.36" stroke-width="1.12575"/>
<path d="M28.9902 55.4551C35.1722 33.6445 53.5236 23.6482 71.7324 24.3779C89.6677 25.0967 107.41 36.2209 113.194 56.7119L113.461 57.6943L116.257 70.0771H25.3682L28.9902 55.4551Z" stroke="white" stroke-opacity="0.36" stroke-width="1.12575"/>
</svg>
