<svg width="117" height="90" viewBox="0 0 117 90" fill="none" xmlns="http://www.w3.org/2000/svg">
<path d="M27.8475 77.7117L17.4578 55.7187C43.4902 64.1545 81.3807 55.7187 105.888 32.3474C105.772 43.3911 107.339 57.8207 105.888 60.6784C90.5745 81.5168 60.8713 87.6189 47.1403 85.8808C35.3213 84.3847 28.7814 79.1719 27.8475 77.7117Z" stroke="white" stroke-opacity="0.36" stroke-width="1.7931"/>
<path d="M53.085 20.7017C65.4461 17.0806 77.3187 15.4815 86.5034 15.8017C91.1004 15.962 94.9712 16.602 97.8767 17.6739C100.79 18.7488 102.595 20.2019 103.337 21.9248C104.079 23.6479 103.789 25.7154 102.35 28.0655C100.915 30.409 98.3997 32.9188 94.955 35.4349C88.0722 40.4621 77.6367 45.3991 65.2755 49.0204C52.9141 52.6417 41.0407 54.24 31.8559 53.9198C27.2589 53.7595 23.3885 53.1204 20.483 52.0485C17.5694 50.9735 15.764 49.5198 15.0222 47.7967C14.2807 46.0737 14.5706 44.0068 16.0097 41.6569C17.4449 39.3133 19.9594 36.8028 23.4043 34.2866C30.2871 29.2594 40.7237 24.323 53.085 20.7017Z" stroke="white" stroke-opacity="0.36" stroke-width="1.7931"/>
<path d="M51.1414 15.9914C63.8725 12.2618 76.2353 10.9337 85.9104 11.7724C90.7503 12.192 94.8697 13.1494 98.0142 14.5842C101.155 16.0172 103.251 17.8898 104.214 20.1265C105.177 22.363 104.981 24.9064 103.64 27.6523C102.296 30.4018 99.8316 33.288 96.3965 36.1318C89.5296 41.8165 78.9204 47.2181 66.1892 50.9477C53.4583 54.6772 41.0961 56.0051 31.4212 55.1664C26.5813 54.7468 22.4619 53.7894 19.3173 52.3546C16.1768 50.9216 14.0807 49.0497 13.1178 46.8132C12.155 44.5765 12.3502 42.0326 13.6918 39.2865C15.0351 36.537 17.5 33.6507 20.935 30.807C27.8019 25.1224 38.4105 19.7209 51.1414 15.9914Z" stroke="white" stroke-opacity="0.36" stroke-width="1.7931"/>
<path d="M50.3181 15.46C64.0302 11.4431 77.3544 10.0253 87.791 10.952C93.0115 11.4155 97.4616 12.4615 100.865 14.026C104.264 15.5887 106.548 17.6329 107.603 20.0825C108.657 22.5322 108.447 25.307 107.004 28.2881C105.559 31.2728 102.906 34.3999 99.2089 37.4758C91.8182 43.6249 80.3947 49.458 66.6827 53.475C52.9705 57.492 39.6461 58.9088 29.2094 57.9822C23.9887 57.5186 19.5379 56.4729 16.1347 54.9083C12.7359 53.3457 10.4514 51.3016 9.39687 48.8519C8.34249 46.4022 8.55225 43.6274 9.99525 40.6463C11.4401 37.6615 14.0945 34.5343 17.7915 31.4584C25.1823 25.3092 36.6061 19.4769 50.3181 15.46Z" stroke="white" stroke-opacity="0.36" stroke-width="1.7931"/>
<path d="M60.8103 45.4374C66.9133 43.7566 72.5091 42.5497 76.616 41.9545C78.6753 41.656 80.326 41.5166 81.4679 41.5389C81.7901 41.5453 82.055 41.566 82.2669 41.5934C82.0989 41.7253 81.8816 41.878 81.6082 42.0483C80.6388 42.6521 79.1495 43.3775 77.2277 44.1755C73.3951 45.7668 67.9705 47.5951 61.8675 49.2759C55.7647 50.9567 50.1697 52.1634 46.0628 52.7586C44.0031 53.0572 42.3519 53.1968 41.21 53.1744C40.8877 53.1681 40.6231 53.1483 40.4112 53.1209C40.5792 52.9889 40.796 52.8356 41.0697 52.6651C42.0392 52.0612 43.529 51.3357 45.4511 50.5376C49.2836 48.9463 54.7075 47.1182 60.8103 45.4374Z" stroke="white" stroke-opacity="0.36" stroke-width="1.7931"/>
</svg>
