<svg width="131" height="112" viewBox="0 0 131 112" fill="none" xmlns="http://www.w3.org/2000/svg">
<path d="M12.2964 65.2614C10.296 63.9754 10.606 60.9613 12.8265 60.11L78.0551 35.1056C78.6581 34.8745 79.3211 34.852 79.939 35.04L114.76 45.6373C117.318 46.4159 117.552 49.947 115.118 51.0555L43.443 83.7025C42.5451 84.1114 41.5007 84.0362 40.6707 83.5027L12.2964 65.2614Z" stroke="white" stroke-opacity="0.36" stroke-width="0.967445"/>
<path d="M9.65568 66.5694C7.67571 65.2814 7.98193 62.2937 10.1817 61.4334L79.006 34.5158C79.6192 34.276 80.2956 34.2524 80.9243 34.4478L118.174 46.0279C120.7 46.8131 120.945 50.2914 118.555 51.4227L43.4953 86.9353C42.5848 87.3661 41.5153 87.2939 40.6709 86.7446L9.65568 66.5694Z" stroke="white" stroke-opacity="0.36" stroke-width="0.967445"/>
<path d="M5.80763 66.8783C3.82928 65.5727 4.16549 62.574 6.38382 61.7391L79.7529 34.1291C80.3521 33.9037 81.0092 33.882 81.6215 34.0687L121.671 46.2758C124.211 47.0502 124.463 50.5483 122.06 51.6788L42.2113 89.2356C41.2957 89.6662 40.2216 89.5887 39.3771 89.0314L5.80763 66.8783Z" stroke="white" stroke-opacity="0.36" stroke-width="0.967445"/>
<path d="M4.11165 67.8561L4.71631 71.0003M4.71631 71.0003L10.7628 75.7738M4.71631 71.0003L5.80468 71.7258L5.0791 68.7026L8.70702 67.8561L10.7628 65.6793M35.7955 93.9771L11.6094 76.4421L10.7628 75.7738M35.7955 93.9771C36.3081 94.3081 37.1212 94.6437 38.2141 94.8701M35.7955 93.9771L35.3117 89.9864L38.2141 87.4468M123.024 56.8514C122.787 57.0413 122.564 57.2075 122.382 57.3351C121.097 57.9747 119.716 58.6626 118.253 59.3909M123.024 56.8514C123.834 56.2011 124.8 55.2736 124.8 54.6746C124.8 53.9007 124.397 51.8932 124.317 51.0467L123.833 52.8607V55.763L123.024 56.8514ZM120.568 58.0607V59.8746M120.568 58.0607L120.689 54.6746L118.633 53.8281L116.577 54.5537L116.214 52.8607L118.253 50.9258M120.568 58.0607L123.024 56.7304L122.745 53.7072L119.842 52.8607M52.8467 108.005C72.7599 97.4034 113.191 75.9342 115.61 74.87C117.007 74.255 117.88 73.422 118.391 72.6882M52.8467 108.005C52.8025 108.026 52.7569 108.048 52.71 108.069M52.8467 108.005L51.3955 93.0096M10.7628 75.7738L13.9216 84.9073M38.2141 94.8701C39.9877 95.9181 45.2039 97.7017 50.9118 95.1864C56.6197 92.671 98.8406 71.4034 119.238 61.0839L120.568 59.8746M38.2141 94.8701L38.6978 95.2065M38.2141 94.8701C38.9394 95.0203 39.7879 95.1223 40.7536 95.143M38.2141 94.8701L37.4885 90.9538L39.5443 88.2933L40.3908 85.7538M120.568 59.8746V59.6328C119.721 69.5491 118.764 72.1523 118.391 72.6882M119.721 58.6653L118.391 72.6882M117.061 73.9026L118.253 59.3909M118.253 59.3909C97.962 69.496 62.0837 87.3785 53.3304 91.8003C51.7469 92.6002 50.2537 93.2277 48.856 93.7122M118.633 70.6375L52.8467 105.224M52.8467 105.224L52.71 108.069M52.8467 105.224L49.4098 106.433M52.71 108.069C51.9863 108.4 50.9412 108.746 49.7025 108.961M49.7025 108.961C47.4307 109.356 44.5076 109.312 41.7211 107.932M49.7025 108.961L49.4098 106.433M41.7211 107.932C41.273 107.71 40.8285 107.453 40.3908 107.159C35.6504 103.966 21.2435 92.3647 14.6326 86.9631L13.9216 84.9073M41.7211 107.932L41.1351 105.465M38.6978 95.2065L41.3583 95.4282L43.5451 106.675M38.6978 95.2065L41.1351 105.465M49.4098 106.433L48.0095 94.3399L44.3815 95.1864L46.3987 106.675M46.3987 106.675L46.8002 108.961L43.8978 108.489L43.5451 106.675M46.3987 106.675L49.2188 106.433L43.5451 106.675M43.5451 106.675L41.1351 105.465M41.1351 105.465L13.9216 84.9073M51.6374 92.5259L51.2746 88.6561L49.5816 86.9631L48.9769 83.698L46.3164 84.9073L46.9211 87.8096L48.2513 89.9864L48.856 93.7122M48.856 93.7122C46.9381 94.3771 45.2002 94.7727 43.656 94.975M46.5583 94.3399L46.0746 90.7119L45.349 88.5352L44.3815 88.6561M44.3815 88.6561L43.8978 85.8747M44.3815 88.6561L43.1722 89.3817L43.0513 91.1957L43.656 94.7027V94.975M43.656 94.975C42.5957 95.1139 41.6268 95.1618 40.7536 95.143M40.7536 95.143L40.2699 91.1957L41.1164 89.2608L41.842 86.2375M119.842 52.8607L118.253 50.9258M119.842 52.8607L120.568 51.5304H124.075L123.712 52.3769L120.326 52.1351M118.253 50.9258L118.875 49.5955M122.866 49.2327L124.075 50.8048L120.689 50.9258L118.875 49.5955M122.866 49.2327L120.689 50.0793L120.205 48.9909L120.931 48.6281L122.866 49.2327ZM122.866 49.2327L119.479 48.0234H119.117L118.875 49.5955M3.99072 68.0979L10.4 65.1956L7.8605 65.6793L4.35351 66.4049L4.71631 64.9537L8.10236 65.1956L10.4 65.0747M10.4 65.0747L6.40933 63.5026L9.4326 62.2932L10.7628 63.2607L10.4 65.0747Z" stroke="white" stroke-opacity="0.36" stroke-width="0.967445"/>
</svg>
