<svg width="106" height="109" viewBox="0 0 106 109" fill="none" xmlns="http://www.w3.org/2000/svg">
<path d="M97.4997 30.4484C99.1113 45.2284 101.901 75.266 100.167 79.2225C82.8287 107.361 45.3177 101.734 39.316 100.028C34.5145 98.6639 31.7582 93.7751 30.9802 91.5013L13.1416 51.9363C30.9802 56.0292 70.8252 50.7425 97.4997 30.4484ZM97.4997 30.4484V29.5957" stroke="white" stroke-opacity="0.36" stroke-width="1.12866"/>
<path d="M49.2255 16.8838C61.2388 13.9295 72.4273 12.6762 80.7969 13.0266C84.9853 13.202 88.4346 13.7779 90.9206 14.7223C93.4271 15.6745 94.8184 16.9448 95.1653 18.4208C95.5122 19.8969 94.8374 21.6753 93.0279 23.6889C91.2332 25.6861 88.4171 27.8037 84.7642 29.9075C77.4649 34.1112 66.9419 38.1961 54.9286 41.1504C42.9153 44.1047 31.727 45.359 23.3574 45.0086C19.1689 44.8332 15.7195 44.2564 13.2335 43.312C10.727 42.3598 9.33567 41.0895 8.98876 39.6134C8.64188 38.1373 9.3167 36.3589 11.1262 34.3453C12.9208 32.3482 15.7373 30.2315 19.3901 28.1277C26.6894 23.924 37.2123 19.8381 49.2255 16.8838Z" stroke="white" stroke-opacity="0.36" stroke-width="1.12866"/>
<path d="M48.9605 12.7524C62.132 9.51321 74.4723 8.45309 83.767 9.34345C88.4171 9.78891 92.2733 10.7199 95.0837 12.0862C97.8984 13.4547 99.5877 15.2191 100.077 17.2993C100.565 19.3793 99.8444 21.7358 97.9455 24.2632C96.0493 26.787 93.0282 29.4093 89.0842 31.9682C81.2008 37.0831 69.7383 41.8775 56.5667 45.1167C43.3951 48.3558 31.0546 49.415 21.76 48.5246C17.11 48.0791 13.2546 47.1479 10.4442 45.7816C7.62954 44.4132 5.94051 42.6496 5.45155 40.5695C4.96266 38.4893 5.68323 36.1323 7.58237 33.6046C9.47854 31.0809 12.4989 28.4587 16.4428 25.8998C24.3261 20.785 35.7889 15.9915 48.9605 12.7524Z" stroke="white" stroke-opacity="0.36" stroke-width="1.12866"/>
<path d="M5.51556 44.7925L5.51081 44.7766C3.70381 38.7483 7.348 32.576 14.9729 26.9382C22.5632 21.326 33.9076 16.4045 46.9547 12.9189C60.3376 9.62876 73.3711 8.80271 83.3363 10.0619C88.3221 10.6918 92.51 11.8403 95.584 13.4405C98.6639 15.0439 100.551 17.0592 101.1 19.3929C101.651 21.7386 100.944 24.3442 99.0551 27.0877C97.1664 29.831 94.1317 32.6559 90.155 35.3915C82.2046 40.8606 70.5907 45.9016 57.1995 49.1947C43.7951 52.4911 31.3703 53.8361 22.0209 53.0944C17.3436 52.7233 13.4716 51.8325 10.6383 50.4301C7.81028 49.0303 6.06981 47.1506 5.51958 44.8096L5.51556 44.7925Z" stroke="white" stroke-opacity="0.36" stroke-width="1.12866"/>
<path d="M48.5548 13.0543C61.8098 9.79458 74.2466 8.80695 83.6293 9.82983C88.3228 10.3415 92.2206 11.3531 95.0693 12.8108C97.92 14.2696 99.6538 16.1379 100.172 18.3399C100.688 20.5381 99.949 23.0341 98.0119 25.7031C96.0777 28.368 92.9958 31.136 88.9835 33.8282C80.9628 39.2099 69.3294 44.2206 56.0766 47.4797C42.8239 50.7388 30.5067 51.6181 21.2434 50.4889C16.6097 49.924 12.7704 48.8601 9.96517 47.3636C7.15837 45.8662 5.44725 43.9708 4.92818 41.7621C4.41082 39.5601 5.12409 37.09 7.01506 34.4651C8.90472 31.8421 11.9277 29.1287 15.8812 26.4905C23.784 21.2168 35.3 16.3139 48.5548 13.0543Z" stroke="white" stroke-opacity="0.36" stroke-width="1.12866"/>
<path d="M62.8967 71.1871C72.3101 68.5946 81.2501 67.8642 88.0841 68.7598C91.5023 69.2077 94.3653 70.0588 96.4931 71.2633C98.6181 72.4664 99.9731 73.9986 100.471 75.8076C100.97 77.6166 100.59 79.6266 99.3806 81.748C98.1696 83.872 96.146 86.069 93.4392 88.2038C88.0273 92.472 79.974 96.4218 70.5607 99.0143C61.1473 101.607 52.2073 102.337 45.3733 101.442C41.9551 100.994 39.0921 100.143 36.9643 98.9381C34.8392 97.7351 33.4842 96.2029 32.986 94.3939C32.4878 92.5848 32.8673 90.5749 34.0767 88.4535C35.2878 86.3294 37.3114 84.1325 40.0182 81.9977C45.4301 77.7295 53.4834 73.7797 62.8967 71.1871Z" stroke="white" stroke-opacity="0.36" stroke-width="1.12866"/>
</svg>
