<svg width="130" height="122" viewBox="0 0 130 122" fill="none" xmlns="http://www.w3.org/2000/svg">
<path d="M118.725 36.2455C120.688 53.8397 124.085 89.5964 121.973 94.3062C100.86 127.803 55.1833 121.104 47.8749 119.073C42.0283 117.449 38.6718 111.63 37.7245 108.923L16.0024 61.8247C37.7245 66.6969 86.2437 60.4037 118.725 36.2455ZM118.725 36.2455V35.2305" stroke="white" stroke-opacity="0.36" stroke-width="1.62408"/>
<path d="M59.9753 20.2348C74.5965 16.7198 88.2092 15.229 98.3876 15.6455C103.483 15.8541 107.67 16.5392 110.68 17.6571C113.723 18.7872 115.357 20.276 115.761 21.9576C116.166 23.6393 115.387 25.709 113.19 28.0989C111.017 30.4629 107.599 32.9763 103.155 35.4779C94.2787 40.4755 81.4759 45.3351 66.8546 48.8502C52.2331 52.3653 38.6198 53.8563 28.4414 53.4397C23.3464 53.2312 19.1594 52.5461 16.1492 51.4282C13.1063 50.298 11.4727 48.8082 11.0684 47.1265C10.6644 45.4449 11.4425 43.376 13.6389 40.9864C15.8121 38.6224 19.2301 36.109 23.6735 33.6073C32.5503 28.6097 45.3538 23.75 59.9753 20.2348Z" stroke="white" stroke-opacity="0.36" stroke-width="1.62408"/>
<path d="M59.6525 15.3162C75.6829 11.4624 90.6965 10.2031 101.999 11.2615C107.654 11.7912 112.334 12.8966 115.737 14.5143C119.149 16.1359 121.161 18.2093 121.741 20.6221C122.321 23.0349 121.472 25.7958 119.17 28.7911C116.873 31.7793 113.208 34.8918 108.411 37.9342C98.825 44.0144 84.8796 49.7171 68.8492 53.571C52.8187 57.4248 37.8043 58.6843 26.5018 57.6258C20.8464 57.0962 16.1669 55.9898 12.763 54.3721C9.35106 52.7505 7.34083 50.6769 6.76078 48.2641C6.18079 45.8513 7.0287 43.0905 9.33074 40.0953C11.6273 37.1072 15.293 33.9955 20.0895 30.9532C29.6758 24.8729 43.6219 19.17 59.6525 15.3162Z" stroke="white" stroke-opacity="0.36" stroke-width="1.62408"/>
<path d="M6.8371 53.2872L6.83044 53.2637C4.66082 46.188 9.02232 38.8938 18.305 32.1841C27.5295 25.5164 41.3241 19.6628 57.1992 15.5157L57.1994 15.5166C73.4888 11.6006 89.3497 10.6179 101.471 12.1151C107.535 12.8642 112.619 14.2286 116.344 16.1245C120.08 18.0256 122.334 20.3977 122.987 23.114C123.644 25.8481 122.807 28.9068 120.518 32.1566C118.23 35.4048 114.548 38.7579 109.712 42.01C100.045 48.5108 85.9171 54.5081 69.6203 58.426C53.3046 62.3484 38.1868 63.9469 26.8178 63.0653C21.1294 62.6242 16.4316 61.5655 13.0012 59.9057C9.5768 58.2487 7.49874 56.039 6.84303 53.3119L6.8371 53.2872Z" stroke="white" stroke-opacity="0.36" stroke-width="1.62408"/>
<path d="M59.2667 16.1252C75.4073 12.2449 90.4778 10.773 101.784 11.5133C107.441 11.8838 112.109 12.806 115.485 14.2246C118.881 15.6512 120.81 17.5063 121.326 19.6532C121.842 21.8 120.967 24.3296 118.591 27.1436C116.228 29.9419 112.49 32.884 107.619 35.7856C97.8849 41.5841 83.7926 47.1241 67.652 51.0045C51.5114 54.8848 36.4407 56.3557 25.1349 55.6154C19.4772 55.2449 14.8098 54.3237 11.4334 52.9051C8.03804 51.4786 6.10965 49.623 5.59343 47.4762C5.07731 45.3294 5.95161 42.8002 8.32755 39.9861C10.6902 37.1877 14.4285 34.2449 19.2997 31.3431C29.0335 25.5447 43.1262 20.0055 59.2667 16.1252Z" stroke="white" stroke-opacity="0.36" stroke-width="1.62408"/>
</svg>
