<svg width="145" height="125" viewBox="0 0 145 125" fill="none" xmlns="http://www.w3.org/2000/svg">
<path d="M13.6915 72.6691C11.4644 71.237 11.8103 67.8809 14.2828 66.9331L86.9155 39.0902C87.5869 38.8329 88.3253 38.8068 89.0132 39.0162L127.787 50.8175C130.636 51.6846 130.895 55.6159 128.185 56.8502L48.3745 93.203C47.3746 93.6584 46.2118 93.5751 45.2875 92.981L13.6915 72.6691Z" stroke="white" stroke-opacity="0.36" stroke-width="1.07726"/>
<path d="M10.7519 74.1256C8.54729 72.6915 8.88759 69.3648 11.3367 68.4066L87.9741 38.4345C88.657 38.1674 89.4105 38.1399 90.1106 38.3576L131.589 51.2523C134.402 52.1266 134.675 56.0004 132.012 57.26L48.4321 96.8034C47.4182 97.283 46.2279 97.2031 45.2878 96.5916L10.7519 74.1256Z" stroke="white" stroke-opacity="0.36" stroke-width="1.07726"/>
<path d="M6.46696 74.47C4.26398 73.0162 4.63867 69.6775 7.10898 68.7479L88.8057 38.0028C89.4728 37.7518 90.2044 37.7286 90.8862 37.9364L135.482 51.5281C138.311 52.3904 138.591 56.2856 135.915 57.5444L47.0028 99.3639C45.9832 99.8435 44.7872 99.7581 43.8468 99.1376L6.46696 74.47Z" stroke="white" stroke-opacity="0.36" stroke-width="1.07726"/>
<path d="M4.57851 75.559L5.25179 79.0601M5.25179 79.0601L11.9847 84.3755M5.25179 79.0601L6.46371 79.868L5.65577 76.5016L9.6955 75.559L11.9847 73.1351M39.8588 104.645L12.9273 85.1196L11.9847 84.3755M39.8588 104.645C40.4296 105.014 41.335 105.387 42.552 105.639M39.8588 104.645L39.3202 100.201L42.552 97.3735M136.989 63.3051C136.725 63.5166 136.477 63.7017 136.274 63.8437C134.843 64.5559 133.305 65.3219 131.676 66.1329M136.989 63.3051C137.891 62.581 138.967 61.5483 138.967 60.8813C138.967 60.0195 138.518 57.7841 138.428 56.8415L137.89 58.8614V62.0932L136.989 63.3051ZM134.254 64.6517V66.6715M134.254 64.6517L134.388 60.8813L132.099 59.9387L129.81 60.7466L129.406 58.8614L131.676 56.7069M134.254 64.6517L136.989 63.1704L136.678 59.804L133.446 58.8614M58.8455 120.265C81.0192 108.46 126.04 84.5541 128.733 83.3691C130.289 82.6843 131.261 81.7567 131.83 80.9396M58.8455 120.265C58.7964 120.289 58.7456 120.313 58.6934 120.337M58.8455 120.265L57.2297 103.568M11.9847 84.3755L15.502 94.5457M42.552 105.639C44.5269 106.806 50.3352 108.792 56.691 105.992C63.0469 103.191 110.06 79.5089 132.773 68.0181L134.254 66.6715M42.552 105.639L43.0906 106.014M42.552 105.639C43.3596 105.807 44.3044 105.92 45.3798 105.943M42.552 105.639L41.744 101.279L44.0332 98.3161L44.9758 95.4883M134.254 66.6715V66.4022C133.311 77.4442 132.246 80.3429 131.83 80.9396M133.311 65.325L131.83 80.9396M130.349 82.2918L131.676 66.1329M131.676 66.1329C109.082 77.3851 69.1311 97.2975 59.3842 102.221C57.621 103.112 55.9582 103.811 54.4018 104.35M132.099 78.6561L58.8455 117.168M58.8455 117.168L58.6934 120.337M58.8455 117.168L55.0185 118.515M58.6934 120.337C57.8875 120.705 56.7238 121.09 55.3444 121.33M55.3444 121.33C52.8148 121.77 49.5599 121.721 46.457 120.184M55.3444 121.33L55.0185 118.515M46.457 120.184C45.9581 119.937 45.4632 119.651 44.9758 119.323C39.6972 115.768 23.655 102.85 16.2937 96.8349L15.502 94.5457M46.457 120.184L45.8046 117.437M43.0906 106.014L46.0531 106.261L48.4881 118.784M43.0906 106.014L45.8046 117.437M55.0185 118.515L53.4592 105.049L49.4195 105.992L51.6657 118.784M51.6657 118.784L52.1127 121.33L48.8809 120.804L48.4881 118.784M51.6657 118.784L54.8058 118.515L48.4881 118.784M48.4881 118.784L45.8046 117.437M45.8046 117.437L15.502 94.5457M57.499 103.029L57.095 98.7201L55.2098 96.8349L54.5365 93.1991L51.574 94.5457L52.2473 97.7775L53.7286 100.201L54.4018 104.35M54.4018 104.35C52.2663 105.09 50.3311 105.531 48.6116 105.756M51.8433 105.049L51.3047 101.009L50.4968 98.5854L49.4195 98.7201M49.4195 98.7201L48.8809 95.6229M49.4195 98.7201L48.0729 99.528L47.9383 101.548L48.6116 105.453V105.756M48.6116 105.756C47.431 105.911 46.352 105.964 45.3798 105.943M45.3798 105.943L44.8411 101.548L45.7838 99.3934L46.5917 96.0269M133.446 58.8614L131.676 56.7069M133.446 58.8614L134.254 57.3802H138.159L137.755 58.3228L133.985 58.0535M131.676 56.7069L132.369 55.2256M136.812 54.8217L138.159 56.5722L134.388 56.7069L132.369 55.2256M136.812 54.8217L134.388 55.7643L133.85 54.5524L134.658 54.1484L136.812 54.8217ZM136.812 54.8217L133.042 53.4751H132.638L132.369 55.2256M4.44385 75.8283L11.5807 72.5965L8.75289 73.1351L4.84782 73.9431L5.25179 72.3272L9.02221 72.5965L11.5807 72.4618M11.5807 72.4618L7.137 70.7113L10.5034 69.3647L11.9847 70.442L11.5807 72.4618Z" stroke="white" stroke-opacity="0.36" stroke-width="1.07726"/>
</svg>
