<svg width="122" height="62" viewBox="0 0 122 62" fill="none" xmlns="http://www.w3.org/2000/svg">
<path d="M116.915 15.6971C115.367 16.2181 113.202 16.8507 110.152 17.7518C101.651 20.2636 76.2594 20.65 64.6263 20.5293C63.5395 20.5293 59.8201 20.5293 53.6373 20.5293C30.3551 21.4953 11.2511 17.7921 4.60935 15.8197M116.915 15.6971C120.759 14.4029 120.797 12.4687 121.141 10.144C121.262 11.0814 120.586 14.567 116.915 15.6971ZM116.915 15.6971L104.114 58.5682C103.43 59.2122 101.723 60.5245 100.371 60.6211C99.0183 60.7177 46.6736 60.6613 20.6702 60.6211C19.6639 60.3796 17.5305 59.5101 17.0475 57.9644C16.5644 56.4187 8.55413 29.2239 4.60935 15.8197M4.60935 15.8197C4.16992 15.689 3.60713 15.4568 3.03949 15.1198M3.03949 15.1198C1.68325 14.3146 0.299253 12.9117 0.503562 10.8686C0.624323 12.5592 0.745081 14.0576 3.03949 15.1198Z" stroke="white" stroke-opacity="0.36" stroke-width="0.966068"/>
<path d="M61.3657 2.89844C77.0214 2.89844 91.1572 3.86189 101.371 5.30664C106.481 6.02947 110.591 6.87061 113.415 7.76465C114.829 8.21271 115.894 8.66619 116.595 9.10938C117.331 9.57428 117.518 9.93179 117.518 10.1436C117.518 10.3492 117.337 10.6965 116.599 11.1416C115.896 11.5657 114.827 11.9916 113.406 12.4062C110.571 13.2334 106.445 13.9846 101.319 14.6172C91.073 15.8816 76.9041 16.6641 61.2446 16.6641C45.5846 16.6641 31.2038 15.9112 20.7456 14.6768C15.5134 14.0592 11.281 13.3234 8.36572 12.5068C6.90431 12.0975 5.80153 11.6752 5.07471 11.2529C4.30894 10.808 4.12665 10.4621 4.12646 10.2646C4.12646 10.1683 4.16607 10.0315 4.31885 9.84766C4.47361 9.66148 4.72439 9.45256 5.09033 9.22852C5.82233 8.78041 6.93042 8.32122 8.39697 7.86719C11.3235 6.96117 15.5709 6.10516 20.8169 5.36719C31.3028 3.89212 45.7107 2.89844 61.3657 2.89844Z" stroke="white" stroke-opacity="0.36" stroke-width="0.966068"/>
<path d="M61.728 1.20801C77.7027 1.20801 92.0043 2.00239 102.303 3.4043C107.457 4.10579 111.585 4.95702 114.415 5.92676C115.832 6.41261 116.894 6.91843 117.591 7.43066C118.298 7.94949 118.545 8.40785 118.545 8.79004C118.545 9.17087 118.291 9.64153 117.563 10.1846C116.847 10.7189 115.76 11.2544 114.315 11.7764C111.429 12.8183 107.225 13.7653 101.999 14.5635C91.5524 16.1587 77.1039 17.1474 61.1333 17.1475C45.1619 17.1475 30.4965 16.1972 19.8335 14.6396C14.4984 13.8604 10.1863 12.932 7.21826 11.9033C5.73121 11.3879 4.61024 10.8569 3.87061 10.3252C3.11681 9.78329 2.859 9.31558 2.85889 8.94238C2.85889 8.57618 3.11721 8.11585 3.88818 7.58496C4.64327 7.06503 5.78689 6.55148 7.30225 6.05762C10.3268 5.07194 14.7149 4.20212 20.1255 3.48145C30.9391 2.04114 45.7544 1.20802 61.728 1.20801Z" stroke="white" stroke-opacity="0.36" stroke-width="0.966068"/>
<path d="M64.083 0.483398C80.0568 0.483402 94.3564 1.33515 104.653 2.83691C109.806 3.58841 113.933 4.49892 116.76 5.53711C118.176 6.05714 119.236 6.59876 119.934 7.14746C120.635 7.69961 120.899 8.20105 120.899 8.6416C120.899 9.08061 120.628 9.595 119.905 10.1729C119.189 10.7453 118.104 11.3192 116.659 11.8779C113.775 12.9935 109.574 14.0073 104.348 14.8623C93.9036 16.5711 79.4568 17.6309 63.4873 17.6309C47.5155 17.6308 31.7615 16.7054 20.0088 15.1289C14.1289 14.3402 9.27095 13.3907 5.89258 12.3203C4.20001 11.784 2.90796 11.2262 2.04883 10.6602C1.16743 10.0794 0.866257 9.57556 0.866211 9.17773C0.866211 8.56241 1.22913 7.92235 2.10059 7.26172C2.97026 6.60243 4.27801 5.97826 5.99414 5.39941C9.42085 4.24361 14.3467 3.30804 20.3008 2.57715C32.2008 1.11641 48.1042 0.483398 64.083 0.483398Z" stroke="white" stroke-opacity="0.36" stroke-width="0.966068"/>
<path d="M64.083 0.483398C80.0555 0.483402 94.3527 1.42544 104.646 3.08691C109.797 3.91831 113.92 4.92573 116.744 6.07324C118.158 6.64779 119.217 7.24695 119.915 7.85449C120.612 8.46163 120.899 9.03179 120.899 9.5625C120.899 10.0918 120.605 10.6777 119.887 11.3135C119.17 11.9475 118.085 12.5818 116.643 13.1992C113.762 14.4324 109.564 15.5541 104.34 16.5C93.899 18.3905 79.4549 19.5625 63.4873 19.5625C47.5171 19.5625 31.7656 18.5392 20.0156 16.7949C14.1368 15.9222 9.28148 14.872 5.90625 13.6885C4.21568 13.0957 2.92557 12.4793 2.06738 11.8535C1.19665 11.2186 0.866211 10.6466 0.866211 10.1562C0.866333 9.43153 1.25233 8.7067 2.11914 7.97949C2.98882 7.24998 4.29543 6.56046 6.00879 5.9209C9.4319 4.64319 14.3547 3.60945 20.3076 2.80078C32.2048 1.18464 48.1052 0.483398 64.083 0.483398Z" stroke="white" stroke-opacity="0.36" stroke-width="0.966068"/>
<path d="M24.8789 47.5898C30.184 28.8732 45.9317 20.2948 61.5576 20.9209C77.1932 21.5475 92.6576 31.3891 97.3672 49.5117L99.7666 60.1377H21.7705L24.8789 47.5898Z" stroke="white" stroke-opacity="0.36" stroke-width="0.966068"/>
</svg>
