<svg width="158" height="126" viewBox="0 0 158 126" fill="none" xmlns="http://www.w3.org/2000/svg">
<path d="M129.824 18.7037C128.476 20.0476 126.542 21.8268 123.822 24.3441C116.241 31.3605 89.9201 44.8846 77.7075 50.7697C76.5724 51.3313 72.6877 53.2532 66.23 56.448C42.4119 69.4877 20.545 75.4914 12.5888 76.8633M129.824 18.7037C133.17 15.3652 132.21 13.3257 131.369 10.7197C131.979 11.6364 133.074 15.6264 129.824 18.7037ZM129.824 18.7037L138.607 70.095C138.225 71.1213 137.12 73.3738 135.758 74.1735C134.395 74.9733 79.6941 101.963 52.514 115.357C51.3381 115.625 48.6606 115.819 47.3574 114.454C46.0541 113.09 23.6353 88.825 12.5888 76.8633M12.5888 76.8633C12.0624 76.9539 11.3545 77.0022 10.5875 76.9435M10.5875 76.9435C8.75495 76.8034 6.58447 76.0532 5.74214 73.8137C6.74186 75.5171 7.64226 77.0197 10.5875 76.9435Z" stroke="white" stroke-opacity="0.36" stroke-width="1.12575"/>
<path d="M65.1916 34.0394C81.5433 25.9496 96.8059 19.6527 108.22 15.8841C113.93 13.9987 118.658 12.7524 122.068 12.2273C123.778 11.9641 125.125 11.8877 126.086 11.9883C127.095 12.0938 127.475 12.3705 127.584 12.5916C127.691 12.8065 127.681 13.2629 127.14 14.1092C126.624 14.9155 125.728 15.9125 124.458 17.0799C121.925 19.4087 118.003 22.3251 112.976 25.6347C102.928 32.2496 88.5347 40.3886 72.1792 48.4803C55.8229 56.5723 40.4133 63.2165 28.8523 67.3313C23.0682 69.3899 18.2672 70.8089 14.8003 71.4624C13.0626 71.79 11.6933 71.9185 10.7161 71.8531C9.68545 71.7841 9.31538 71.5171 9.21337 71.3109C9.16364 71.2102 9.13494 71.047 9.19946 70.7763C9.26488 70.5019 9.41833 70.1541 9.68472 69.731C10.2177 68.8847 11.1389 67.8325 12.4363 66.6003C15.0247 64.1418 19.0186 61.0531 24.1164 57.5716C34.3063 50.6126 48.8406 42.1288 65.1916 34.0394Z" stroke="white" stroke-opacity="0.36" stroke-width="1.12575"/>
<path d="M64.6963 32.0867C81.3814 23.832 96.7299 17.2727 108.211 13.4152C113.956 11.4849 118.708 10.2398 122.164 9.79061C123.895 9.5656 125.265 9.54606 126.259 9.72054C127.265 9.89731 127.76 10.2483 127.957 10.6475C128.154 11.0453 128.131 11.6682 127.652 12.6115C127.18 13.5396 126.322 14.6608 125.082 15.953C122.606 18.5327 118.705 21.6942 113.658 25.2287C103.572 32.2926 88.9922 40.7908 72.3117 49.0433C55.6303 57.2962 39.8219 63.8811 27.88 67.7643C21.9049 69.7072 16.9209 70.9662 13.2894 71.4254C11.4701 71.6555 10.0252 71.68 8.97803 71.5068C7.9108 71.3303 7.39915 70.9754 7.20615 70.5857C7.01692 70.2032 7.04942 69.5884 7.58037 68.6355C8.10038 67.7022 9.02925 66.5745 10.3569 65.2756C13.0066 62.6832 17.1399 59.5075 22.4187 55.959C32.9688 48.8669 48.0124 40.3409 64.6963 32.0867Z" stroke="white" stroke-opacity="0.36" stroke-width="1.12575"/>
<path d="M66.7818 30.1126C83.4657 21.8584 98.8417 15.3594 110.372 11.6073C116.142 9.72981 120.922 8.54878 124.411 8.1722C126.159 7.98359 127.547 8.00147 128.559 8.21416C129.577 8.42819 130.112 8.81461 130.34 9.27464C130.567 9.73328 130.549 10.4114 130.093 11.3887C129.641 12.3566 128.803 13.5167 127.583 14.8467C125.147 17.502 121.283 20.7325 116.267 24.3259C106.242 31.5075 91.6998 40.0789 75.0204 48.3308C58.3384 56.584 41.4062 63.7583 28.3163 68.1847C21.7674 70.3993 16.2025 71.9185 12.1208 72.5462C10.0759 72.8607 8.43818 72.9446 7.24839 72.7973C6.02769 72.6462 5.45199 72.2759 5.24642 71.8604C4.92864 71.2178 4.97726 70.3615 5.5458 69.2216C6.11342 68.0837 7.15709 66.7559 8.65022 65.2647C11.6321 62.2868 16.2947 58.7645 22.1361 54.9243C33.8104 47.2495 50.0927 38.3693 66.7818 30.1126Z" stroke="white" stroke-opacity="0.36" stroke-width="1.12575"/>
<path d="M66.7818 30.1126C83.4641 21.8592 98.8841 15.4566 110.494 11.8729C116.304 10.0796 121.13 9.00076 124.673 8.74018C126.446 8.60973 127.862 8.6876 128.905 8.96156C129.947 9.23545 130.542 9.68306 130.816 10.2375C131.09 10.7903 131.085 11.5543 130.663 12.5895C130.242 13.6219 129.436 14.8451 128.249 16.2352C125.877 19.0119 122.072 22.353 117.104 26.0405C107.176 33.4102 92.6963 42.0984 76.019 50.3493C59.3388 58.6016 42.3575 65.6707 29.1838 69.9205C22.5928 72.0467 16.9792 73.4594 12.8424 73.9673C10.7703 74.2218 9.104 74.2443 7.8843 74.0342C6.64696 73.821 6.00556 73.3948 5.75221 72.8827C5.37786 72.1257 5.40747 71.1692 5.93705 69.9617C6.46841 68.7504 7.47664 67.3557 8.93576 65.8022C11.8508 62.6988 16.4576 59.0748 22.2575 55.1541C33.8484 47.3184 50.0936 38.3688 66.7818 30.1126Z" stroke="white" stroke-opacity="0.36" stroke-width="1.12575"/>
<path d="M50.1756 99.5717C46.045 77.2814 58.0607 60.184 74.705 52.7636C91.0992 45.4547 111.934 47.558 126.206 63.3591L126.88 64.1214L134.877 73.9804L53.413 114.284L50.1756 99.5717Z" stroke="white" stroke-opacity="0.36" stroke-width="1.12575"/>
</svg>
