<svg width="158" height="129" viewBox="0 0 158 129" fill="none" xmlns="http://www.w3.org/2000/svg">
<path d="M39.9688 81.2861L80.6118 90.7301C80.4431 91.6858 80.4769 93.6982 81.9609 94.103C83.445 94.5077 93.7097 97.1948 98.6566 98.4877C99.3312 98.6001 100.714 98.5552 100.849 97.4758C100.984 96.3965 100.905 95.677 100.849 95.4521C103.547 96.464 110.192 97.5433 115.184 93.7657C120.175 89.9881 129.743 80.9488 133.903 76.9014H131.542L113.329 93.2598C111.979 94.0468 107.966 95.3509 102.704 94.2716C97.4424 93.1923 61.6113 84.8276 44.3535 80.7802L56.3271 80.2742M56.3271 80.2742L102.873 91.236C105.234 91.7982 110.698 92.2142 113.666 89.381C116.634 86.5478 123.222 80.6677 126.145 78.0819L127.157 77.2387L56.3271 80.2742Z" stroke="white" stroke-opacity="0.36" stroke-width="1.01752"/>
<path d="M135.089 1.66602C136.103 1.59892 137.012 2.28935 137.217 3.28418L142.926 30.9229C143.178 32.1403 142.288 33.2967 141.046 33.3662L9.52783 40.7266C7.94665 40.8151 6.87435 39.143 7.61475 37.7432L22.2358 10.1045C22.566 9.48049 23.1965 9.07202 23.9009 9.02539L135.089 1.66602Z" stroke="white" stroke-opacity="0.36" stroke-width="1.01752"/>
<path d="M135.979 1.69141C137.141 1.61111 138.178 2.41496 138.39 3.55957L144.285 35.5039C144.538 36.873 143.52 38.1491 142.129 38.207L7.52344 43.8115C5.76207 43.8849 4.58159 42.0235 5.39941 40.4619L20.9736 10.7363C21.3426 10.0322 22.0507 9.56958 22.8438 9.51465L135.979 1.69141Z" stroke="white" stroke-opacity="0.36" stroke-width="1.01752"/>
<path d="M137.08 0.732422C138.634 0.622985 140.022 1.70141 140.299 3.23438L146.169 35.6914C146.498 37.5099 145.147 39.2015 143.301 39.2842L6.08203 45.4268C3.74565 45.5313 2.16417 43.0776 3.22461 40.9932L18.7041 10.5693C19.19 9.61448 20.1413 8.98471 21.21 8.90918L137.08 0.732422Z" stroke="white" stroke-opacity="0.36" stroke-width="1.01752"/>
<path d="M137.276 0.759766C138.85 0.637131 140.259 1.736 140.523 3.29297L147.065 41.8545C147.371 43.6582 146.032 45.3244 144.205 45.4141L6.49951 52.167C4.24855 52.2773 2.65859 49.994 3.54248 47.9209L19.0151 11.6299C19.4612 10.5837 20.4525 9.87164 21.5864 9.7832L137.276 0.759766Z" stroke="white" stroke-opacity="0.36" stroke-width="1.01752"/>
<path d="M15.8527 77.4067L8.60107 52.9534C13.0533 52.9534 100.174 48.3439 143.178 46.0391C142.223 53.4032 140.278 68.9408 140.143 72.1788C140.008 75.4167 136.264 76.3386 134.409 76.3949C98.7128 78.0813 26.2749 81.4542 22.0925 81.4542C17.9102 81.4542 16.19 78.7559 15.8527 77.4067Z" stroke="white" stroke-opacity="0.36" stroke-width="1.01752"/>
<path d="M135.201 40.2305C135.386 41.8548 134.148 43.3205 132.483 43.376L114.521 43.9746C112.949 44.027 111.79 42.5529 112.171 41.0596L135.201 40.2305Z" stroke="white" stroke-opacity="0.36" stroke-width="0.508762"/>
<path d="M7.08334 79.431L14.5036 101.523C14.8409 102.479 16.8646 104.694 22.2612 105.908C27.6578 107.122 79.0378 121.03 104.053 127.832C106.133 128.281 111.372 128.101 115.69 123.784C120.007 119.467 138.962 100.624 147.9 91.7419C148.238 91.2922 148.946 90.0892 149.081 88.875C149.216 87.6608 151.386 73.1912 152.454 66.1082M7.08334 79.431C34.4035 85.8394 91.1689 99.3309 99.6685 102.029C108.168 104.727 112.766 103.153 114.003 102.029L152.454 66.1082M7.08334 79.431C5.56555 79.3748 2.52997 78.4529 2.52997 75.2149C2.39506 71.977 2.36133 71.2799 2.36133 71.3361C2.47376 70.8302 2.76607 69.7171 3.0359 69.3124C2.90099 68.7727 3.20454 67.5135 3.37319 66.9514L10.2876 62.2294L10.7693 61.9571C10.9068 62.3825 11.045 62.8111 11.1834 63.2412M152.454 66.1082L156.501 62.2294V56.1582L139.974 71.1675V69.8183M142.504 49.0752C142.504 49.2438 143.684 49.716 148.406 50.2557C153.128 50.7954 154.646 51.8297 154.815 52.2794V55.6523L139.974 69.3124V69.8183M142.504 50.2557L150.599 51.6048C152.117 51.8859 154.478 53.0889 151.779 55.6523C149.081 58.2157 143.122 63.6909 140.48 66.1082L139.974 69.8183M139.468 72.8539C139.468 72.8539 138.254 76.4629 133.397 76.7327C128.54 77.0025 56.9455 80.218 21.7553 81.792C20.1251 82.1293 16.5611 81.6233 15.3469 76.9013C15.2686 76.597 15.1778 76.2583 15.0758 75.8895M11.1834 63.2412L5.22826 66.6141C4.55369 67.4011 3.91285 69.1437 6.74605 69.8183C9.57926 70.4929 12.5854 71.1112 13.7343 71.3361M11.1834 63.2412C12.0772 66.0191 12.977 68.861 13.7343 71.3361M13.7343 71.3361C14.0697 72.4324 14.3771 73.4568 14.6437 74.3717M3.20454 69.481C2.86726 70.0994 3.0359 71.5385 6.40877 72.348C9.78163 73.1575 13.3041 74.0344 14.6437 74.3717M14.6437 74.3717C14.8033 74.9195 14.9483 75.4281 15.0758 75.8895M2.52997 71.842C2.86726 72.1793 2.5637 72.6178 6.74605 73.6971C10.9284 74.7764 14.0419 75.6084 15.0758 75.8895" stroke="white" stroke-opacity="0.36" stroke-width="1.01752"/>
<path d="M123.102 42.4421C123.108 42.5612 123.091 42.6637 123.05 42.7497C123.01 42.8356 122.952 42.9026 122.877 42.9507C122.802 42.9984 122.716 43.0248 122.62 43.0298C122.523 43.0349 122.434 43.0174 122.355 42.9773C122.275 42.9372 122.211 42.8765 122.162 42.7953C122.113 42.714 122.085 42.614 122.079 42.4952C122.073 42.3761 122.09 42.2736 122.13 42.1877C122.171 42.1018 122.229 42.035 122.303 41.9872C122.378 41.9391 122.464 41.9125 122.561 41.9075C122.658 41.9025 122.746 41.92 122.825 41.9601C122.905 41.9998 122.969 42.0603 123.019 42.1415C123.068 42.2228 123.096 42.3229 123.102 42.4421ZM122.868 42.4542C122.864 42.3771 122.849 42.3126 122.823 42.2608C122.798 42.209 122.763 42.1705 122.72 42.1453C122.677 42.1201 122.628 42.1089 122.572 42.1118C122.516 42.1147 122.468 42.1309 122.428 42.1605C122.388 42.19 122.357 42.2319 122.337 42.2861C122.317 42.3402 122.309 42.4059 122.313 42.4831C122.317 42.5602 122.332 42.6247 122.357 42.6765C122.383 42.7283 122.418 42.7668 122.461 42.792C122.504 42.8173 122.553 42.8284 122.609 42.8255C122.665 42.8226 122.713 42.8064 122.753 42.7769C122.793 42.7473 122.823 42.7055 122.843 42.6513C122.864 42.5971 122.872 42.5314 122.868 42.4542ZM123.332 42.9779L123.275 41.8854L123.706 41.863C123.789 41.8587 123.86 41.8709 123.92 41.8995C123.98 41.9277 124.027 41.969 124.06 42.0232C124.094 42.0771 124.113 42.1403 124.117 42.2129C124.12 42.2854 124.108 42.3502 124.08 42.4073C124.051 42.4644 124.008 42.51 123.95 42.544C123.893 42.578 123.822 42.5972 123.738 42.6016L123.464 42.6158L123.454 42.4307L123.691 42.4184C123.736 42.4161 123.772 42.4066 123.8 42.3898C123.828 42.3726 123.849 42.35 123.862 42.3218C123.875 42.2933 123.881 42.2611 123.879 42.2252C123.877 42.1889 123.868 42.1577 123.852 42.1314C123.836 42.1048 123.813 42.0847 123.784 42.0713C123.754 42.0575 123.716 42.0518 123.671 42.0541L123.516 42.0622L123.563 42.9659L123.332 42.9779ZM124.334 42.9258L124.277 41.8333L125.014 41.7951L125.023 41.9855L124.518 42.0117L124.532 42.2721L124.999 42.2478L125.009 42.4382L124.542 42.4625L124.555 42.7233L125.063 42.697L125.072 42.8874L124.334 42.9258ZM126.141 41.7365L126.198 42.8289L125.998 42.8393L125.487 42.1764L125.479 42.1768L125.515 42.8644L125.284 42.8764L125.227 41.784L125.43 41.7734L125.937 42.436L125.947 42.4355L125.911 41.7484L126.141 41.7365Z" fill="#4A4A4A"/>
<path d="M88.299 93.8724C88.271 93.9884 88.2252 94.0817 88.1615 94.1524C88.0983 94.2232 88.0237 94.2709 87.9379 94.2956C87.8525 94.32 87.7629 94.3208 87.6691 94.2982C87.5746 94.2753 87.495 94.2333 87.4302 94.1723C87.3655 94.1112 87.3212 94.0347 87.2972 93.9428C87.2733 93.8509 87.2753 93.7472 87.3033 93.6316C87.3313 93.5156 87.377 93.4222 87.4402 93.3515C87.5035 93.2807 87.5779 93.2331 87.6633 93.2087C87.7488 93.1839 87.8388 93.183 87.9332 93.2058C88.027 93.2285 88.1063 93.2704 88.171 93.3315C88.2362 93.3923 88.2807 93.4686 88.3047 93.5605C88.329 93.6525 88.3271 93.7565 88.299 93.8724ZM88.0711 93.8173C88.0893 93.7422 88.0934 93.6761 88.0833 93.6191C88.0737 93.5622 88.0518 93.5155 88.0177 93.479C87.9837 93.4426 87.9395 93.4178 87.8852 93.4047C87.8308 93.3915 87.7802 93.3934 87.7332 93.4102C87.6863 93.4271 87.6453 93.4586 87.6104 93.5047C87.5757 93.5509 87.5493 93.6116 87.5312 93.6867C87.513 93.7618 87.5088 93.8278 87.5184 93.8847C87.5285 93.9418 87.5505 93.9885 87.5846 94.0249C87.6186 94.0614 87.6628 94.0862 87.7171 94.0993C87.7715 94.1125 87.8221 94.1106 87.8691 94.0937C87.916 94.0769 87.9568 94.0454 87.9914 93.9991C88.0264 93.953 88.053 93.8924 88.0711 93.8173ZM88.3662 94.4514L88.6234 93.3881L89.0429 93.4896C89.1235 93.5091 89.1885 93.5411 89.2378 93.5856C89.2872 93.6298 89.3202 93.6827 89.3369 93.7442C89.3539 93.8055 89.3539 93.8714 89.3368 93.942C89.3197 94.0127 89.2895 94.0713 89.2459 94.1179C89.2024 94.1645 89.1481 94.1959 89.083 94.212C89.0183 94.2283 88.9451 94.2265 88.8634 94.2067L88.596 94.1421L88.6396 93.9619L88.8706 94.0178C88.9139 94.0283 88.9513 94.0294 88.983 94.0213C89.015 94.013 89.0412 93.9971 89.0615 93.9738C89.0822 93.9503 89.0968 93.921 89.1053 93.886C89.1138 93.8507 89.1142 93.8182 89.1063 93.7885C89.0989 93.7585 89.0828 93.7328 89.0579 93.7114C89.0332 93.6896 88.999 93.6735 88.9553 93.6629L88.8037 93.6263L88.591 94.5058L88.3662 94.4514ZM89.3421 94.6874L89.5992 93.6241L90.3157 93.7974L90.2709 93.9828L89.7792 93.8638L89.7179 94.1172L90.1727 94.2272L90.1279 94.4125L89.6731 94.3025L89.6117 94.5564L90.1054 94.6758L90.0606 94.8612L89.3421 94.6874ZM91.413 94.0628L91.1559 95.1261L90.9617 95.0791L90.661 94.298L90.6532 94.2961L90.4913 94.9654L90.2665 94.911L90.5237 93.8477L90.721 93.8954L91.0182 94.6751L91.0275 94.6774L91.1893 94.0087L91.413 94.0628Z" fill="#4A4A4A"/>
</svg>
