<svg width="157" height="116" viewBox="0 0 157 116" fill="none" xmlns="http://www.w3.org/2000/svg">
<path d="M133.623 18.9582C132.145 20.1573 130.04 21.7296 127.076 23.9556C118.818 30.1603 91.2524 40.9232 78.5022 45.5291C77.3156 45.9717 73.2548 47.4865 66.5044 50.0045C41.4782 60.5413 19.1122 64.2784 11.0574 64.8299M133.623 18.9582C137.294 15.9793 136.547 13.8523 135.976 11.174C136.49 12.1483 137.171 16.2293 133.623 18.9582ZM133.623 18.9582L137.107 70.9781C136.622 71.96 135.293 74.0878 133.856 74.7441C132.419 75.4004 75.2456 96.6569 46.8387 107.203C45.6416 107.349 42.9583 107.269 41.8014 105.778C40.6445 104.287 20.8234 77.858 11.0574 64.8299M11.0574 64.8299C10.5244 64.8662 9.8154 64.8418 9.05841 64.7051M9.05841 64.7051C7.24975 64.3783 5.16732 63.4102 4.55831 61.0964C5.37868 62.893 6.12078 64.4798 9.05841 64.7051Z" stroke="white" stroke-opacity="0.36" stroke-width="1.12575"/>
<path d="M67.7619 27.6066C84.8549 21.2306 100.681 16.5269 112.421 13.9447C118.294 12.6528 123.124 11.8963 126.57 11.7225C128.298 11.6354 129.645 11.6972 130.592 11.8955C131.584 12.1035 131.934 12.4176 132.02 12.6488C132.104 12.8734 132.047 13.3264 131.423 14.1129C130.828 14.8623 129.834 15.7626 128.452 16.794C125.693 18.8517 121.495 21.352 116.155 24.1303C105.484 29.6835 90.3338 36.3086 73.2368 42.6861C56.1391 49.0639 40.131 54.0982 28.21 57.0096C22.2457 58.4663 17.3249 59.3871 13.8093 59.6828C12.0473 59.8311 10.672 59.819 9.70655 59.654C8.68838 59.48 8.34754 59.1766 8.26714 58.961C8.22796 58.8558 8.21609 58.6905 8.30796 58.4278C8.40107 58.1615 8.58927 57.8312 8.89751 57.4376C9.51419 56.6502 10.5382 55.6977 11.9547 54.6046C14.7808 52.4235 19.0696 49.7592 24.4965 46.817C35.3443 40.936 50.6697 33.9823 67.7619 27.6066Z" stroke="white" stroke-opacity="0.36" stroke-width="1.12575"/>
<path d="M67.4688 25.6137C84.9102 19.1077 100.849 14.1516 112.664 11.4878C118.576 10.155 123.43 9.40201 126.914 9.30848C128.66 9.26163 130.025 9.38222 130.995 9.65732C131.978 9.936 132.434 10.3357 132.59 10.753C132.745 11.1689 132.659 11.7862 132.085 12.6755C131.521 13.5506 130.553 14.5782 129.187 15.7369C126.461 18.05 122.257 20.7961 116.875 23.7963C106.12 29.7922 90.7478 36.7556 73.3111 43.2598C55.8735 49.7644 39.4748 54.6989 27.1985 57.3411C21.0561 58.6631 15.9696 59.4061 12.3101 59.4917C10.4768 59.5345 9.037 59.4112 8.013 59.1319C6.9694 58.8473 6.49671 58.4419 6.34456 58.0345C6.19542 57.6347 6.29058 57.0264 6.91615 56.1328C7.52884 55.2576 8.56811 54.2307 10.0216 53.0743C12.9224 50.7663 17.3587 48.0297 22.9725 45.0394C34.1923 39.0628 50.0286 32.1192 67.4688 25.6137Z" stroke="white" stroke-opacity="0.36" stroke-width="1.12575"/>
<path d="M69.745 23.863C87.1853 17.3575 103.145 12.4642 114.999 9.91031C120.93 8.63243 125.806 7.94619 129.315 7.92824C131.073 7.91928 132.452 8.07894 133.437 8.39397C134.428 8.71094 134.921 9.15004 135.1 9.63094C135.279 10.1104 135.192 10.7831 134.638 11.7086C134.09 12.6253 133.137 13.6936 131.788 14.8919C129.094 17.2844 124.92 20.103 119.563 23.1648C108.856 29.284 93.5138 36.3242 76.0782 42.828C58.6401 49.3327 41.0632 54.7387 27.5894 57.804C20.8485 59.3375 15.1574 60.2799 11.0329 60.4871C8.9666 60.5909 7.32887 60.507 6.16036 60.2389C4.9615 59.9638 4.42667 59.5365 4.26465 59.1022C4.01421 58.4305 4.15011 57.5837 4.83219 56.5078C5.51315 55.4339 6.68707 54.2198 8.3248 52.889C11.5955 50.2314 16.5937 47.2042 22.7971 43.9812C35.1947 37.5399 52.2994 30.3706 69.745 23.863Z" stroke="white" stroke-opacity="0.36" stroke-width="1.12575"/>
<path d="M69.745 23.863C87.1836 17.3581 103.177 12.5652 115.093 10.187C121.055 8.99687 125.967 8.41711 129.517 8.51997C131.295 8.57148 132.696 8.79369 133.705 9.1728C134.714 9.55179 135.26 10.0579 135.476 10.6374C135.691 11.2153 135.608 11.9748 135.083 12.9614C134.559 13.9454 133.632 15.0798 132.309 16.3413C129.666 18.861 125.539 21.7956 120.22 24.9561C109.591 31.2723 94.2987 38.4349 76.8653 44.9379C59.4289 51.442 41.8141 56.7383 28.2749 59.6193C21.5011 61.0607 15.7726 61.8921 11.6055 61.9746C9.51825 62.0159 7.85834 61.868 6.66651 61.5343C5.45745 61.1957 4.86297 60.7062 4.66329 60.1709C4.36828 59.3796 4.49551 58.4311 5.14573 57.2841C5.79814 56.1334 6.94365 54.849 8.55391 53.4529C11.7709 50.6637 16.724 47.5296 22.8943 44.2222C35.2254 37.6124 52.3003 30.3702 69.745 23.863Z" stroke="white" stroke-opacity="0.36" stroke-width="1.12575"/>
<path d="M46.1258 91.2607C44.2952 68.665 57.9956 52.8854 75.3112 47.2052C92.3667 41.6103 112.878 45.8323 125.459 63.0094L126.052 63.8367L133 74.4614L47.8424 106.227L46.1258 91.2607Z" stroke="white" stroke-opacity="0.36" stroke-width="1.12575"/>
</svg>
