<svg width="136" height="140" viewBox="0 0 136 140" fill="none" xmlns="http://www.w3.org/2000/svg">
<path d="M125.094 39.0657C127.162 58.0288 130.741 96.5675 128.516 101.644C106.271 137.746 58.1434 130.526 50.443 128.338C44.2827 126.587 40.7463 120.315 39.7481 117.398L16.8608 66.6351C39.7481 71.8864 90.87 65.1034 125.094 39.0657ZM125.094 39.0657V37.9717" stroke="white" stroke-opacity="0.36" stroke-width="1.12866"/>
<path d="M63.1207 21.5059C78.5443 17.713 92.9148 16.1012 103.672 16.5515C109.054 16.7769 113.499 17.5179 116.711 18.7381C119.943 19.9661 121.792 21.6236 122.255 23.5953C122.718 25.567 121.808 27.903 119.475 30.4997C117.156 33.0799 113.526 35.8057 108.832 38.509C99.4508 43.9119 85.9347 49.1589 70.5111 52.9519C55.0876 56.7448 40.7177 58.3555 29.9606 57.9051C24.5781 57.6798 20.133 56.94 16.9211 55.7198C13.6889 54.4918 11.8413 52.8339 11.3778 50.8623C10.9144 48.8906 11.8235 46.5548 14.1569 43.9582C16.4757 41.3779 20.106 38.6511 24.8002 35.9477C34.1817 30.5449 47.6973 25.2989 63.1207 21.5059Z" stroke="white" stroke-opacity="0.36" stroke-width="1.12866"/>
<path d="M62.7815 16.2054C79.6936 12.0464 95.5446 10.6836 107.492 11.8281C113.468 12.4006 118.436 13.5976 122.065 15.3619C125.698 17.1283 127.913 19.4226 128.555 22.1566C129.198 24.8905 128.244 27.963 125.793 31.2256C123.345 34.4844 119.452 37.8605 114.383 41.1493C104.25 47.7239 89.5255 53.8812 72.6134 58.0402C55.7013 62.1992 39.8502 63.561 27.9029 62.4165C21.9265 61.844 16.9587 60.647 13.3297 58.8827C9.69658 57.1164 7.4824 54.8228 6.83981 52.0889C6.19726 49.3549 7.15 46.2818 9.60142 43.019C12.0499 39.7602 15.9429 36.3841 21.0119 33.0953C31.1451 26.5207 45.8695 20.3644 62.7815 16.2054Z" stroke="white" stroke-opacity="0.36" stroke-width="1.12866"/>
<path d="M6.92255 57.5124L6.91758 57.4955C4.56811 49.6574 9.32072 41.6745 19.1159 34.4319C28.8768 27.2147 43.4543 20.8941 60.2054 16.4191C77.3919 12.1936 94.1344 11.1316 106.943 12.75C113.351 13.5596 118.744 15.0364 122.71 17.1013C126.683 19.1692 129.15 21.7848 129.868 24.842C130.59 27.9114 129.658 31.3004 127.22 34.8424C124.782 38.3841 120.871 42.0223 115.759 45.5387C105.539 52.569 90.6203 59.0437 73.4256 63.2722C56.2173 67.5041 40.2574 69.2328 28.2394 68.2794C22.2278 67.8025 17.2384 66.6572 13.5783 64.8456C9.92327 63.0365 7.64664 60.5934 6.92635 57.5286L6.92255 57.5124Z" stroke="white" stroke-opacity="0.36" stroke-width="1.12866"/>
<path d="M62.2604 16.5923C79.28 12.4068 95.2554 11.137 107.316 12.4518C113.349 13.1095 118.372 14.4108 122.05 16.2931C125.73 18.1764 127.998 20.6039 128.677 23.4916C129.355 26.3753 128.38 29.6258 125.881 33.0699C123.384 36.51 119.412 40.074 114.255 43.5342C103.946 50.4517 89.0019 56.8863 71.9845 61.0712C54.9672 65.2561 39.1444 66.3875 27.236 64.936C21.2796 64.2099 16.3327 62.8412 12.7103 60.9088C9.08638 58.9755 6.84832 56.5134 6.16809 53.619C5.48951 50.7313 6.43115 47.5145 8.87234 44.1258C11.3122 40.7389 15.2077 37.2445 20.2891 33.8536C30.4478 27.0746 45.2412 20.7777 62.2604 16.5923Z" stroke="white" stroke-opacity="0.36" stroke-width="1.12866"/>
<path d="M80.6546 91.1798C92.7475 87.8493 104.24 86.9089 113.034 88.0612C117.432 88.6376 121.127 89.7334 123.881 91.2922C126.632 92.8495 128.406 94.8455 129.06 97.2195C129.714 99.5935 129.211 102.217 127.646 104.963C126.078 107.712 123.465 110.545 119.983 113.292C113.019 118.784 102.666 123.861 90.5726 127.192C78.4799 130.522 66.9881 131.461 58.1942 130.309C53.796 129.733 50.1009 128.637 47.3473 127.078C44.5963 125.521 42.8214 123.525 42.1676 121.151C41.5139 118.777 42.0166 116.153 43.5822 113.407C45.1495 110.659 47.7626 107.825 51.2454 105.078C58.2093 99.5862 68.562 94.5103 80.6546 91.1798Z" stroke="white" stroke-opacity="0.36" stroke-width="1.12866"/>
</svg>
