<svg width="119" height="98" viewBox="0 0 119 98" fill="none" xmlns="http://www.w3.org/2000/svg">
<path d="M30.144 61.305L60.7969 68.4277C60.6698 69.1484 60.6952 70.6662 61.8145 70.9715C62.9337 71.2767 70.6754 73.3033 74.4063 74.2784C74.9151 74.3632 75.9581 74.3293 76.0598 73.5153C76.1616 72.7013 76.1022 72.1586 76.0598 71.989C78.0949 72.7521 83.1062 73.5662 86.871 70.7171C90.6358 67.868 97.8518 61.0506 100.989 57.998H99.2085L85.4719 70.3355C84.4544 70.9291 81.4272 71.9127 77.4589 71.0987C73.4906 70.2846 46.4668 63.976 33.451 60.9234L42.4815 60.5419M42.4815 60.5419L77.5861 68.8092C79.3668 69.2332 83.4877 69.5469 85.7263 67.4101C87.9648 65.2733 92.9337 60.8386 95.1384 58.8884L95.9015 58.2524L42.4815 60.5419Z" stroke="white" stroke-opacity="0.36" stroke-width="1.01752"/>
<path d="M101.35 1.41699C102.363 1.35011 103.271 2.04048 103.477 3.03516L107.525 22.6367C107.777 23.8541 106.887 25.0103 105.646 25.0801L8.28418 30.5283C6.70293 30.6168 5.63051 28.9448 6.37109 27.5449L16.7178 7.9873C17.0478 7.36347 17.6776 6.95494 18.3818 6.9082L101.35 1.41699Z" stroke="white" stroke-opacity="0.36" stroke-width="1.01752"/>
<path d="M101.952 1.44238C103.113 1.3621 104.15 2.166 104.361 3.31055L108.553 26.0205C108.805 27.3896 107.787 28.6647 106.396 28.7227L6.86035 32.8682C5.09884 32.9415 3.91812 31.0793 4.73633 29.5176L15.751 8.49512C16.1199 7.79088 16.828 7.32828 17.6211 7.27344L101.952 1.44238Z" stroke="white" stroke-opacity="0.36" stroke-width="1.01752"/>
<path d="M102.61 0.732422C104.164 0.622753 105.552 1.70126 105.829 3.23438L109.938 25.9551C110.267 27.7737 108.918 29.4652 107.071 29.5479L6.08203 34.0684C3.74559 34.173 2.16399 31.7192 3.22461 29.6348L13.9941 8.46973C14.4801 7.5148 15.4312 6.88402 16.5 6.80859L102.61 0.732422Z" stroke="white" stroke-opacity="0.36" stroke-width="1.01752"/>
<path d="M102.745 0.759766C104.32 0.636961 105.728 1.7359 105.992 3.29297L110.627 30.6152C110.933 32.4189 109.595 34.0851 107.768 34.1748L6.29199 39.1514C4.04111 39.2616 2.45125 36.9783 3.33496 34.9053L14.248 9.30859C14.6941 8.26246 15.6846 7.55044 16.8184 7.46191L102.745 0.759766Z" stroke="white" stroke-opacity="0.36" stroke-width="1.01752"/>
<path d="M11.956 58.3801L6.48682 39.9375C9.84464 39.9375 75.5512 36.4609 107.985 34.7227C107.264 40.2766 105.797 51.9951 105.695 54.4372C105.594 56.8792 102.77 57.5745 101.371 57.6169C74.4489 58.8888 19.8164 61.4327 16.6621 61.4327C13.5077 61.4327 12.2104 59.3976 11.956 58.3801Z" stroke="white" stroke-opacity="0.36" stroke-width="1.01752"/>
<path d="M101.912 30.4058C102.012 31.5719 101.115 32.6119 99.9165 32.6519L86.3696 33.103C85.2415 33.1406 84.4081 32.0986 84.6509 31.0278L101.912 30.4058Z" stroke="white" stroke-opacity="0.36" stroke-width="0.508762"/>
<path d="M5.34209 59.9065L10.9385 76.5684C11.1929 77.2892 12.7191 78.9596 16.7892 79.8754C20.8593 80.7912 59.61 91.2801 78.4766 96.4102C80.0453 96.7493 83.9967 96.6137 87.2527 93.3576C90.5088 90.1015 104.805 75.8901 111.546 69.1914C111.801 68.8522 112.335 67.9449 112.436 67.0292C112.538 66.1134 114.175 55.2004 114.98 49.8584M5.34209 59.9065C25.9469 64.7397 68.7593 74.915 75.1697 76.95C81.5801 78.9851 85.0481 77.798 85.9808 76.95L114.98 49.8584M5.34209 59.9065C4.19738 59.8641 1.90795 59.1688 1.90795 56.7267C1.8062 54.2847 1.78076 53.759 1.78076 53.8013C1.86556 53.4198 2.08602 52.5803 2.28952 52.2751C2.18777 51.8681 2.41671 50.9184 2.5439 50.4944L7.75871 46.9331L8.12202 46.7277C8.22575 47.0486 8.33001 47.3718 8.43438 47.6962M114.98 49.8584L118.033 46.9331V42.3542L105.568 53.6742V52.6566M107.476 37.0122C107.476 37.1394 108.366 37.4955 111.928 37.9025C115.489 38.3095 116.634 39.0897 116.761 39.4288V41.9726L105.568 52.2751V52.6566M107.476 37.9025L113.581 38.9201C114.726 39.132 116.507 40.0393 114.472 41.9726C112.436 43.9059 107.942 48.0354 105.95 49.8584L105.568 52.6566M105.187 54.9461C105.187 54.9461 104.271 57.6679 100.608 57.8714C96.9447 58.0749 42.9481 60.5 16.4077 61.6872C15.1782 61.9415 12.4902 61.56 11.5744 57.9986C11.5154 57.7691 11.4469 57.5137 11.37 57.2355M8.43438 47.6962L3.943 50.24C3.43424 50.8336 2.95091 52.1479 5.08771 52.6566C7.22451 53.1654 9.49171 53.6318 10.3582 53.8013M8.43438 47.6962C9.10843 49.7913 9.78707 51.9347 10.3582 53.8013M10.3582 53.8013C10.6112 54.6282 10.8431 55.4007 11.0441 56.0908M2.41671 52.4023C2.16233 52.8686 2.28952 53.954 4.83333 54.5645C7.37714 55.175 10.0338 55.8364 11.0441 56.0908M11.0441 56.0908C11.1645 56.504 11.2738 56.8875 11.37 57.2355M1.90795 54.1829C2.16233 54.4373 1.93339 54.768 5.08771 55.582C8.24204 56.396 10.5902 57.0235 11.37 57.2355" stroke="white" stroke-opacity="0.36" stroke-width="1.01752"/>
<path d="M92.6082 32.3794C92.6144 32.4985 92.5971 32.601 92.5563 32.687C92.5158 32.7729 92.4579 32.8399 92.3827 32.888C92.3078 32.9357 92.2222 32.9621 92.1258 32.9671C92.0287 32.9722 91.9405 32.9546 91.861 32.9146C91.7815 32.8745 91.7172 32.8138 91.6681 32.7326C91.6189 32.6513 91.5913 32.5513 91.5851 32.4325C91.5789 32.3134 91.596 32.2109 91.6365 32.125C91.677 32.0391 91.7347 31.9723 91.8095 31.9245C91.8844 31.8764 91.9704 31.8498 92.0675 31.8448C92.1639 31.8398 92.2518 31.8573 92.3312 31.8974C92.411 31.9371 92.4755 31.9976 92.5247 32.0788C92.5742 32.1601 92.602 32.2602 92.6082 32.3794ZM92.374 32.3915C92.37 32.3144 92.3551 32.2499 92.3292 32.1981C92.3037 32.1463 92.2694 32.1078 92.2264 32.0826C92.1834 32.0574 92.1339 32.0462 92.0781 32.0491C92.0223 32.052 91.9743 32.0682 91.9341 32.0978C91.8939 32.1273 91.8636 32.1692 91.8433 32.2234C91.8233 32.2775 91.8153 32.3432 91.8193 32.4204C91.8233 32.4975 91.838 32.562 91.8636 32.6138C91.8894 32.6656 91.9239 32.7041 91.9669 32.7293C92.0099 32.7546 92.0594 32.7657 92.1152 32.7628C92.171 32.7599 92.219 32.7437 92.2592 32.7142C92.2994 32.6846 92.3295 32.6428 92.3495 32.5886C92.3699 32.5344 92.378 32.4687 92.374 32.3915ZM92.8377 32.9152L92.781 31.8227L93.212 31.8003C93.2948 31.796 93.3663 31.8082 93.4262 31.8368C93.4862 31.865 93.5329 31.9063 93.5664 31.9605C93.6002 32.0144 93.619 32.0776 93.6228 32.1502C93.6265 32.2227 93.6142 32.2875 93.5858 32.3446C93.5574 32.4017 93.5143 32.4473 93.4565 32.4813C93.3991 32.5153 93.3284 32.5345 93.2445 32.5389L92.9698 32.5531L92.9601 32.368L93.1975 32.3557C93.242 32.3534 93.2782 32.3439 93.3062 32.3271C93.3346 32.3099 93.3551 32.2873 93.3679 32.2591C93.3811 32.2306 93.3867 32.1984 93.3848 32.1625C93.383 32.1262 93.374 32.095 93.358 32.0687C93.3424 32.0421 93.3196 32.022 93.2897 32.0086C93.2597 31.9948 93.2223 31.9891 93.1775 31.9914L93.0218 31.9995L93.0687 32.9032L92.8377 32.9152ZM93.8404 32.8631L93.7836 31.7706L94.5197 31.7324L94.5296 31.9228L94.0245 31.949L94.038 32.2093L94.5053 32.1851L94.5152 32.3755L94.0479 32.3998L94.0614 32.6606L94.5687 32.6343L94.5786 32.8247L93.8404 32.8631ZM95.6472 31.6738L95.7039 32.7662L95.5044 32.7766L94.9934 32.1137L94.9854 32.1141L95.0211 32.8017L94.7902 32.8137L94.7334 31.7212L94.9361 31.7107L95.4434 32.3733L95.453 32.3728L95.4173 31.6857L95.6472 31.6738Z" fill="white" fill-opacity="0.36"/>
<path d="M66.2639 71.0852C66.2359 71.2011 66.1901 71.2944 66.1264 71.3651C66.0631 71.4359 65.9886 71.4837 65.9027 71.5083C65.8173 71.5327 65.7277 71.5336 65.6339 71.5109C65.5395 71.4881 65.4598 71.4461 65.3951 71.385C65.3304 71.3239 65.2861 71.2474 65.2621 71.1556C65.2382 71.0637 65.2402 70.9599 65.2681 70.8443C65.2962 70.7284 65.3419 70.635 65.4051 70.5642C65.4684 70.4934 65.5428 70.4458 65.6282 70.4214C65.7137 70.3967 65.8036 70.3957 65.8981 70.4186C65.9919 70.4413 66.0712 70.4831 66.1359 70.5442C66.2011 70.605 66.2456 70.6814 66.2696 70.7733C66.2939 70.8653 66.292 70.9692 66.2639 71.0852ZM66.036 71.03C66.0542 70.9549 66.0583 70.8889 66.0482 70.8319C66.0385 70.7749 66.0167 70.7282 65.9826 70.6918C65.9486 70.6553 65.9044 70.6306 65.85 70.6174C65.7957 70.6043 65.7451 70.6061 65.6981 70.623C65.6512 70.6398 65.6102 70.6713 65.5753 70.7175C65.5406 70.7637 65.5142 70.8243 65.4961 70.8994C65.4779 70.9746 65.4737 71.0406 65.4833 71.0975C65.4934 71.1545 65.5154 71.2012 65.5495 71.2377C65.5835 71.2741 65.6277 71.2989 65.682 71.3121C65.7364 71.3252 65.787 71.3234 65.834 71.3065C65.8809 71.2896 65.9217 71.2581 65.9563 71.2119C65.9913 71.1658 66.0179 71.1051 66.036 71.03ZM66.3311 71.6642L66.5883 70.6009L67.0078 70.7023C67.0884 70.7218 67.1534 70.7539 67.2027 70.7984C67.2521 70.8426 67.2851 70.8954 67.3018 70.957C67.3188 71.0183 67.3188 71.0842 67.3017 71.1548C67.2846 71.2254 67.2543 71.284 67.2108 71.3307C67.1673 71.3773 67.113 71.4087 67.0479 71.4248C66.9832 71.441 66.91 71.4392 66.8283 71.4195L66.5609 71.3548L66.6045 71.1747L66.8355 71.2305C66.8788 71.241 66.9162 71.2422 66.9479 71.2341C66.9799 71.2257 67.0061 71.2099 67.0264 71.1866C67.0471 71.163 67.0617 71.1338 67.0702 71.0988C67.0787 71.0635 67.0791 71.031 67.0712 71.0012C67.0638 70.9712 67.0477 70.9455 67.0228 70.9241C66.998 70.9024 66.9639 70.8862 66.9202 70.8757L66.7686 70.839L66.5559 71.7185L66.3311 71.6642ZM67.307 71.9002L67.5641 70.8369L68.2806 71.0102L68.2358 71.1955L67.7441 71.0766L67.6828 71.33L68.1376 71.44L68.0928 71.6253L67.638 71.5153L67.5766 71.7692L68.0703 71.8886L68.0255 72.0739L67.307 71.9002ZM69.3779 71.2756L69.1208 72.3388L68.9266 72.2919L68.6258 71.5108L68.6181 71.5089L68.4562 72.1781L68.2314 72.1237L68.4886 71.0605L68.6858 71.1082L68.9831 71.8879L68.9924 71.8901L69.1541 71.2214L69.3779 71.2756Z" fill="white" fill-opacity="0.36"/>
</svg>
