<svg width="152" height="138" viewBox="0 0 152 138" fill="none" xmlns="http://www.w3.org/2000/svg">
<path d="M60.5335 113.733L40.9744 96.9401C69.812 93.8528 102.833 69.3138 116.448 36.1057C121.109 46.8429 128.862 60.1291 128.692 63.5219C122.879 90.3055 96.7726 109.048 82.7339 113.3C70.6499 116.96 62.0684 114.742 60.5335 113.733Z" stroke="white" stroke-opacity="0.36" stroke-width="1.90038"/>
<path d="M60.3182 47.6566C70.7151 38.8101 81.5134 32.1319 90.5399 28.4723C95.0577 26.6407 99.0798 25.587 102.355 25.3687C105.639 25.1497 108.014 25.7758 109.476 27.1226C110.939 28.4695 111.552 30.5953 111.175 33.4913C110.798 36.3794 109.449 39.895 107.203 43.8185C102.715 51.658 94.7501 60.9451 84.3531 69.7917C73.956 78.6383 63.1573 85.317 54.1307 88.9765C49.6131 90.8081 45.5914 91.8624 42.3165 92.0809C39.0327 92.2998 36.6573 91.6736 35.1949 90.3269C33.7324 88.98 33.1197 86.8544 33.4967 83.9582C33.8727 81.0701 35.2212 77.5541 37.4674 73.6304C41.9553 65.7908 49.9211 56.5032 60.3182 47.6566Z" stroke="white" stroke-opacity="0.36" stroke-width="1.90038"/>
<path d="M56.4014 43.9381C67.1096 34.8268 78.4988 28.1984 88.224 24.8287C93.0889 23.143 97.489 22.2898 101.152 22.3192C104.811 22.3487 107.648 23.2545 109.546 25.0027C111.445 26.7509 112.355 29.2966 112.243 32.5337C112.132 35.7749 110.994 39.6332 108.899 43.8697C104.711 52.3386 96.7792 62.1512 86.0711 71.2625C75.3629 80.3738 63.9729 87.0015 54.2478 90.3712C49.383 92.0568 44.9827 92.9102 41.3197 92.8807C37.6614 92.8512 34.8238 91.9455 32.9255 90.1973C31.0273 88.4489 30.1171 85.9033 30.2285 82.6662C30.3402 79.425 31.4774 75.5667 33.5725 71.3302C37.7608 62.8614 45.6933 53.0494 56.4014 43.9381Z" stroke="white" stroke-opacity="0.36" stroke-width="1.90038"/>
<path d="M55.3743 43.7798C66.9076 33.9664 79.1896 26.8363 89.6899 23.2224C94.9419 21.4149 99.6999 20.5033 103.669 20.5465C107.634 20.5897 110.729 21.5803 112.808 23.4951C114.887 25.41 115.883 28.1865 115.775 31.6951C115.666 35.2079 114.45 39.3808 112.202 43.955C107.707 53.0998 99.1726 63.681 87.6393 73.4944C76.106 83.3077 63.8252 90.438 53.3251 94.0518C48.0727 95.8595 43.3138 96.7709 39.3443 96.7277C35.3797 96.6845 32.2857 95.6933 30.2065 93.7784C28.1273 91.8635 27.1308 89.0876 27.2389 85.5791C27.3471 82.0663 28.5648 77.8936 30.813 73.3192C35.3075 64.1744 43.841 53.5932 55.3743 43.7798Z" stroke="white" stroke-opacity="0.36" stroke-width="1.90038"/>
<path d="M78.4837 68.2546C83.6632 63.9905 88.5563 60.404 92.2733 58.053C94.1374 56.874 95.6751 56.0259 96.7898 55.5541C97.1038 55.4212 97.3682 55.3264 97.5848 55.2614C97.4793 55.4616 97.337 55.704 97.1461 55.9869C96.4689 56.9902 95.3407 58.3357 93.8256 59.9386C90.8046 63.1349 86.3452 67.2482 81.1657 71.5123C75.9865 75.7763 71.0939 79.3622 67.3769 81.7132C65.513 82.8921 63.9757 83.741 62.861 84.2129C62.5466 84.346 62.2809 84.4397 62.064 84.5047C62.1695 84.3045 62.3139 84.063 62.5048 83.7801C63.1819 82.7768 64.3096 81.4305 65.8246 79.8276C68.8456 76.6314 73.3045 72.5185 78.4837 68.2546Z" stroke="white" stroke-opacity="0.36" stroke-width="1.90038"/>
</svg>
